<svg width="24" height="24" viewBox="0 0 24 24" fill="none" xmlns="http://www.w3.org/2000/svg">
<g clip-path="url(#clip0_10061_11975)">
<path d="M11.9888 21C9.37521 21 6.76164 21 4.14246 21C2.83006 21 2.00561 20.1935 2 18.8886C2 14.3018 2 9.715 2 5.12819C2 3.81207 2.82445 3.0056 4.13685 3.0056C5.35951 3 6.58777 3.0168 7.81604 3C8.23668 3 8.56197 3.12881 8.84801 3.43124C9.27426 3.87368 9.72294 4.28811 10.1436 4.73615C10.3399 4.94337 10.5418 5.02738 10.8278 5.02738C13.8452 5.01618 16.857 5.01618 19.8744 5.02738C20.8727 5.02738 21.5681 5.46422 21.871 6.30429C21.9607 6.55632 21.9944 6.84194 21.9944 7.11077C22 11.0479 22.0056 14.9851 21.9944 18.9222C21.9944 20.2047 21.1587 21.0168 19.8688 21.0168C17.244 21.0168 14.6136 21.0168 11.9888 21.0168V21ZM12.9983 16.9956V14.0106H15.9596V11.9888H12.9759V9.02614H11.0017V12.0056H8.02916V14.0162H11.0129V16.9956H12.9927H12.9983Z" fill="#6478BA"/>
</g>
<defs>
<clipPath id="clip0_10061_11975">
<rect width="20" height="18" fill="white" transform="translate(2 3)"/>
</clipPath>
</defs>
</svg>
