<svg width="37" height="36" viewBox="0 0 37 36" fill="none" xmlns="http://www.w3.org/2000/svg">
<path fill-rule="evenodd" clip-rule="evenodd" d="M21.8676 2.84499C20.2785 2.41918 18.6236 3.37467 18.1977 4.96382C18.0662 5.45475 18.0793 5.94814 18.1894 6.41361C14.3483 6.55832 10.8605 9.184 9.81753 13.0765L8.44945 18.1822L5.94436 20.9954C4.48897 22.634 5.30307 25.3171 7.41725 25.8836L22.8703 30.0242C24.9845 30.5907 27.0311 28.6741 26.59 26.5274L25.8271 22.8386L27.1951 17.7328C28.2378 13.8415 26.5266 9.82516 23.2739 7.77801C23.6037 7.42995 23.8642 7.00913 23.9959 6.51745C24.4217 4.92828 23.4568 3.2708 21.8676 2.84499ZM21.352 4.76955C21.8969 4.91557 22.2079 5.45425 22.0619 5.99924C21.9159 6.54422 21.3792 6.84768 20.8343 6.70165C20.2893 6.55562 19.9838 6.02651 20.1298 5.48153C20.2759 4.93655 20.807 4.62352 21.352 4.76955ZM10.7878 28.8596C11.3589 30.2636 12.5388 31.4036 14.1069 31.8238C15.6749 32.2439 17.2667 31.8466 18.4634 30.9162L10.7878 28.8596Z" fill="url(#paint0_linear_10280_11298)"/>
<circle cx="27.75" cy="12" r="7.5" fill="#F9F9F9"/>
<circle cx="27.75" cy="12" r="4.5" fill="#F55155"/>
<defs>
<linearGradient id="paint0_linear_10280_11298" x1="5.89359" y1="6.62796" x2="33.1823" y2="17.0858" gradientUnits="userSpaceOnUse">
<stop stop-color="#634FA3"/>
<stop offset="1" stop-color="#79B7D9"/>
</linearGradient>
</defs>
</svg>
