<svg width="24" height="24" viewBox="0 0 24 24" fill="none" xmlns="http://www.w3.org/2000/svg">
<g clip-path="url(#clip0_8603_11981)">
<path d="M12 9.77632C9.89449 9.77632 8.25 8.16167 8.25 6.26316C8.25 4.36464 9.89449 2.75 12 2.75C14.1055 2.75 15.75 4.36464 15.75 6.26316C15.75 8.16167 14.1055 9.77632 12 9.77632ZM20.25 19.0526V19.25H20H3.75V19.0526C3.75 15.8486 6.51556 13.1711 10 13.1711H14C17.4835 13.1711 20.25 15.8486 20.25 19.0526Z" stroke="#6477BA" stroke-width="1.5"/>
<g clip-path="url(#clip1_8603_11981)">
<path d="M20.1178 4.8C20.2251 4.44856 20.3212 4.13244 20.4186 3.81659C20.4959 3.56552 20.5707 3.31335 20.6557 3.06478C20.6849 2.9797 20.6703 2.93494 20.5988 2.88128C20.1687 2.5582 19.7428 2.22956 19.3158 1.9026C19.2871 1.88091 19.2605 1.85672 19.2002 1.80639C19.2852 1.80639 19.3331 1.80639 19.3812 1.80639C19.8853 1.80639 20.3897 1.80195 20.8935 1.80973C21.0145 1.81168 21.0597 1.76608 21.0921 1.65737C21.2572 1.10547 21.4292 0.555792 21.6276 0C21.6873 0.188786 21.7481 0.377016 21.8067 0.56608C21.9212 0.935867 22.0381 1.30538 22.1462 1.67711C22.1765 1.78082 22.2271 1.81029 22.3311 1.80918C22.8352 1.80361 23.3393 1.80667 23.8436 1.80667C23.8926 1.80667 23.9416 1.80667 23.9906 1.80667L24.0007 1.8367C23.8392 1.96098 23.6777 2.08582 23.5157 2.20982C23.2201 2.43614 22.926 2.66497 22.6269 2.88656C22.5581 2.93744 22.5496 2.98026 22.5746 3.05894C22.7494 3.60806 22.9186 4.15913 23.0892 4.70936C23.0944 4.72632 23.0955 4.74439 23.1038 4.79166C22.9626 4.68545 22.8407 4.59453 22.7199 4.5025C22.387 4.24921 22.0527 3.99787 21.7236 3.7393C21.6452 3.67785 21.5959 3.6709 21.5128 3.73596C21.1073 4.0532 20.6956 4.36237 20.2859 4.67433C20.24 4.70936 20.1935 4.74356 20.1181 4.79972L20.1178 4.8Z" fill="#F55155"/>
</g>
</g>
<defs>
<clipPath id="clip0_8603_11981">
<rect width="24" height="24" fill="white"/>
</clipPath>
<clipPath id="clip1_8603_11981">
<rect width="4.8" height="4.8" fill="white" transform="translate(19.2002)"/>
</clipPath>
</defs>
</svg>
