<svg width="24" height="24" viewBox="0 0 24 24" fill="none" xmlns="http://www.w3.org/2000/svg">
<g clip-path="url(#clip0_10061_11978)">
<path d="M18.9412 7.87918C19.0244 7.96637 18.9911 8.07847 18.9911 8.17812C18.9911 11.8858 18.9911 15.5935 18.9911 19.3012C18.9911 20.5759 18.2844 21.5267 17.0953 21.8962C16.8459 21.9751 16.5881 22 16.3262 22C13.1125 22 9.89882 22 6.68929 22C5.16767 22 4.01606 20.8997 4.01191 19.3801C3.99943 14.4642 3.99943 9.54827 4.00775 4.63234C4.01191 3.11273 5.15936 2 6.67682 2C8.79295 2 10.9132 2 13.0294 2C13.1208 2 13.2164 2.0083 13.3079 2.01661C13.3079 3.84762 13.3204 5.67864 13.3079 7.50965C13.3079 7.8169 13.3994 7.88333 13.6946 7.88333C15.4448 7.87087 17.1951 7.88333 18.9454 7.88333L18.9412 7.87918ZM11.4911 11.5204C10.6472 11.5204 9.8032 11.5204 8.95924 11.5204C8.56845 11.5204 8.3481 11.7613 8.43125 12.0768C8.51024 12.3674 8.74722 12.4048 9.00082 12.409C10.6679 12.409 12.3351 12.409 14.0022 12.409C14.0937 12.409 14.1934 12.4007 14.2808 12.3716C14.5842 12.2761 14.6757 11.8983 14.4554 11.6658C14.3265 11.5329 14.1643 11.5204 13.9939 11.5204C13.1582 11.5204 12.3268 11.5204 11.4911 11.5204ZM11.4911 13.2933C10.6139 13.2933 9.74084 13.2933 8.86362 13.2933C8.59755 13.2933 8.43125 13.4304 8.41878 13.7085C8.40631 13.9909 8.58092 14.1196 8.83452 14.1611C8.92598 14.1777 9.02161 14.1694 9.11723 14.1694C10.4518 14.1694 11.7863 14.1694 13.1167 14.1694C13.3869 14.1694 13.6571 14.1694 13.9274 14.1694C14.0022 14.1694 14.0729 14.1736 14.1477 14.1611C14.4013 14.1196 14.5759 13.9867 14.5593 13.7044C14.5468 13.4262 14.3805 13.2933 14.1103 13.2933C13.2331 13.2933 12.36 13.2933 11.4828 13.2933H11.4911ZM11.4953 15.0579C10.6513 15.0579 9.80736 15.0579 8.9634 15.0579C8.59339 15.0579 8.42709 15.1866 8.41878 15.4648C8.41046 15.7513 8.60171 15.9257 8.95509 15.9257C10.643 15.9257 12.3309 15.9257 14.0188 15.9257C14.3764 15.9257 14.5718 15.7555 14.5635 15.4731C14.5551 15.1866 14.393 15.0579 14.023 15.0579C13.179 15.0579 12.3351 15.0579 11.4911 15.0579H11.4953ZM10.6222 17.682C11.1752 17.682 11.7239 17.682 12.2769 17.682C12.6136 17.682 12.8049 17.52 12.809 17.2502C12.809 16.9637 12.6386 16.8142 12.2893 16.8142C11.1752 16.8142 10.0651 16.8142 8.95093 16.8142C8.59755 16.8142 8.42294 16.9554 8.41878 17.2377C8.41878 17.52 8.61002 17.682 8.96756 17.682C9.5205 17.682 10.0693 17.682 10.6222 17.682Z" fill="#6478BA"/>
<path d="M18.9422 7.87942C17.1919 7.87942 15.4416 7.87111 13.6913 7.87942C13.3962 7.87942 13.3047 7.81299 13.3047 7.50574C13.3172 5.67473 13.3047 3.84371 13.3047 2.0127C14.0946 2.82648 14.8845 3.63196 15.6661 4.4499C16.7595 5.58753 17.8488 6.73348 18.938 7.87527L18.9422 7.87942Z" fill="#5791CC"/>
<path d="M11.4914 11.5204C12.327 11.5204 13.1585 11.5204 13.9941 11.5204C14.1646 11.5204 14.3267 11.5329 14.4556 11.6657C14.676 11.8982 14.5887 12.2761 14.281 12.3716C14.1937 12.4006 14.0981 12.4089 14.0025 12.4089C12.3353 12.4089 10.6682 12.4089 9.00107 12.4089C8.75163 12.4089 8.5105 12.3674 8.43151 12.0768C8.34836 11.7612 8.5687 11.5246 8.9595 11.5204C9.80346 11.5162 10.6474 11.5204 11.4914 11.5204Z" fill="#F7FAFC"/>
<path d="M11.4963 13.2929C12.3735 13.2929 13.2466 13.2929 14.1238 13.2929C14.394 13.2929 14.5603 13.4257 14.5728 13.7039C14.5853 13.9862 14.4148 14.1149 14.1612 14.1606C14.0905 14.1731 14.0157 14.1689 13.9409 14.1689C13.6706 14.1689 13.4004 14.1689 13.1302 14.1689C11.7956 14.1689 10.4611 14.1689 9.13072 14.1689C9.0351 14.1689 8.94363 14.1772 8.84801 14.1606C8.59441 14.1191 8.4198 13.9945 8.43227 13.7081C8.44474 13.4299 8.61104 13.2929 8.87711 13.2929C9.75433 13.2887 10.6274 13.2929 11.5046 13.2929H11.4963Z" fill="#F7FAFC"/>
<path d="M11.5006 15.0576C12.3446 15.0576 13.1886 15.0576 14.0325 15.0576C14.3984 15.0576 14.5647 15.1863 14.573 15.4728C14.5813 15.7551 14.3859 15.9254 14.0284 15.9254C12.3404 15.9254 10.6525 15.9254 8.96462 15.9254C8.60708 15.9254 8.41584 15.7551 8.42831 15.4645C8.43662 15.1863 8.60292 15.0576 8.97293 15.0576C9.81689 15.0576 10.6608 15.0576 11.5048 15.0576H11.5006Z" fill="#F7FAFC"/>
<path d="M10.6273 17.6861C10.0744 17.6861 9.52561 17.6861 8.97267 17.6861C8.61513 17.6861 8.41974 17.5242 8.42389 17.2419C8.42389 16.9595 8.59851 16.8184 8.95604 16.8184C10.0702 16.8184 11.1803 16.8184 12.2945 16.8184C12.6437 16.8184 12.8183 16.9678 12.8141 17.2543C12.8141 17.5283 12.6187 17.6861 12.282 17.6861C11.729 17.6861 11.1803 17.6861 10.6273 17.6861Z" fill="#F7FAFC"/>
</g>
<defs>
<clipPath id="clip0_10061_11978">
<rect width="15" height="20" fill="white" transform="translate(4 2)"/>
</clipPath>
</defs>
</svg>
