<svg width="15" height="15" viewBox="0 0 15 15" fill="none" xmlns="http://www.w3.org/2000/svg">
<g clip-path="url(#clip0_8700_16184)">
<rect width="15" height="15" rx="7.5" fill="white"/>
<path d="M7.5 0C9.48912 0 11.3968 0.790176 12.8033 2.1967C14.2098 3.60322 15 5.51088 15 7.5C15 9.48912 14.2098 11.3968 12.8033 12.8033C11.3968 14.2098 9.48912 15 7.5 15C5.51088 15 3.60322 14.2098 2.1967 12.8033C0.790176 11.3968 0 9.48912 0 7.5C0 5.51088 0.790176 3.60322 2.1967 2.1967C3.60322 0.790176 5.51088 0 7.5 0ZM7.5 6.59036L5.75786 4.84821C5.63723 4.72759 5.47363 4.65982 5.30304 4.65982C5.13244 4.65982 4.96884 4.72759 4.84821 4.84821C4.72759 4.96884 4.65982 5.13244 4.65982 5.30304C4.65982 5.47363 4.72759 5.63723 4.84821 5.75786L6.59036 7.5L4.84821 9.24214C4.78849 9.30187 4.74111 9.37278 4.70878 9.45082C4.67646 9.52886 4.65982 9.6125 4.65982 9.69696C4.65982 9.78143 4.67646 9.86507 4.70878 9.94311C4.74111 10.0212 4.78849 10.0921 4.84821 10.1518C4.90794 10.2115 4.97885 10.2589 5.05689 10.2912C5.13493 10.3235 5.21857 10.3402 5.30304 10.3402C5.3875 10.3402 5.47114 10.3235 5.54918 10.2912C5.62722 10.2589 5.69813 10.2115 5.75786 10.1518L7.5 8.40964L9.24214 10.1518C9.30187 10.2115 9.37278 10.2589 9.45082 10.2912C9.52886 10.3235 9.6125 10.3402 9.69696 10.3402C9.78143 10.3402 9.86507 10.3235 9.94311 10.2912C10.0212 10.2589 10.0921 10.2115 10.1518 10.1518C10.2115 10.0921 10.2589 10.0212 10.2912 9.94311C10.3235 9.86507 10.3402 9.78143 10.3402 9.69696C10.3402 9.6125 10.3235 9.52886 10.2912 9.45082C10.2589 9.37278 10.2115 9.30187 10.1518 9.24214L8.40964 7.5L10.1518 5.75786C10.2115 5.69813 10.2589 5.62722 10.2912 5.54918C10.3235 5.47114 10.3402 5.3875 10.3402 5.30304C10.3402 5.21857 10.3235 5.13493 10.2912 5.05689C10.2589 4.97885 10.2115 4.90794 10.1518 4.84821C10.0921 4.78849 10.0212 4.74111 9.94311 4.70878C9.86507 4.67646 9.78143 4.65982 9.69696 4.65982C9.6125 4.65982 9.52886 4.67646 9.45082 4.70878C9.37278 4.74111 9.30187 4.78849 9.24214 4.84821L7.5 6.59036Z" fill="#79B7D9"/>
</g>
<defs>
<clipPath id="clip0_8700_16184">
<rect width="15" height="15" rx="7.5" fill="white"/>
</clipPath>
</defs>
</svg>
