<svg width="20" height="20" viewBox="0 0 20 20" fill="none" xmlns="http://www.w3.org/2000/svg">
<path d="M15.1274 4.8273L15.3435 4.65H15.064H4.936H4.65654L4.87256 4.8273L9.93656 8.98355L10 9.03562L10.0634 8.98355L15.1274 4.8273ZM3.66342 5.76644L3.5 5.63238V5.84375V14.375C3.5 14.6308 3.59284 14.8778 3.76051 15.0612C3.92846 15.2449 4.15827 15.35 4.4 15.35H15.6C15.8417 15.35 16.0715 15.2449 16.2395 15.0612C16.4072 14.8778 16.5 14.6308 16.5 14.375V5.84375V5.63238L16.3366 5.76644L10.4166 10.6227C10.2953 10.7222 10.1491 10.775 10 10.775C9.85089 10.775 9.70469 10.7222 9.58342 10.6227L3.66342 5.76644ZM4.4 3.1H15.6C16.207 3.1 16.7911 3.36364 17.2233 3.83632C17.6557 4.30931 17.9 4.95258 17.9 5.625V14.375C17.9 15.0474 17.6557 15.6907 17.2233 16.1637C16.7911 16.6364 16.207 16.9 15.6 16.9H4.4C3.79304 16.9 3.20891 16.6364 2.77675 16.1637C2.3443 15.6907 2.1 15.0474 2.1 14.375V5.625C2.1 4.95258 2.3443 4.30931 2.77675 3.83632C3.20892 3.36364 3.79304 3.1 4.4 3.1Z" fill="#6477BA" stroke="#F6F6F6" stroke-width="0.2"/>
</svg>
