<svg width="24" height="24" viewBox="0 0 24 24" fill="none" xmlns="http://www.w3.org/2000/svg">
<g clip-path="url(#clip0_10061_11979)">
<path d="M18.9447 7.88394C19.0302 7.9743 18.995 8.07972 18.995 8.18012C18.995 11.8799 18.995 15.5747 18.995 19.2745C18.995 20.5697 18.3008 21.5235 17.0986 21.9C16.827 21.9853 16.5503 22.0054 16.2686 22.0054C13.0946 22.0054 9.92555 22.0054 6.75151 22.0054C5.12173 22.0054 4.00503 20.896 4.00503 19.2594C4 14.4251 4 9.59076 4 4.76145C4 4.44016 4.03018 4.11888 4.12575 3.80763C4.45272 2.78855 5.41851 2.02048 6.48491 2.01044C8.73843 1.99036 10.992 2.00542 13.2455 2.00542C13.2656 2.00542 13.2857 2.01546 13.3058 2.02048C13.3058 3.85281 13.3159 5.68012 13.3058 7.51245C13.3058 7.82369 13.4014 7.88394 13.6932 7.88394C15.4437 7.8739 17.1942 7.88394 18.9447 7.88394ZM13.2153 14.2444H13.8089C14.6036 14.2444 14.5986 14.2444 14.5785 13.4412C14.5785 13.2604 14.5181 13.2153 14.3471 13.2153C13.7837 13.2253 13.2254 13.2153 12.662 13.2153C11.8571 13.2153 11.8672 13.2153 11.9024 14.0386C11.9125 14.2042 11.9628 14.2494 12.1237 14.2444C12.4859 14.2343 12.8531 14.2444 13.2153 14.2444ZM13.2254 12.5375H13.8189C14.6087 12.5375 14.5986 12.5375 14.5785 11.7494C14.5785 11.5586 14.503 11.5285 14.337 11.5285C13.7736 11.5335 13.2103 11.5285 12.6469 11.5285C11.8773 11.5285 11.8873 11.5285 11.8974 12.3016C11.8974 12.5074 11.9779 12.5426 12.1539 12.5375C12.506 12.5275 12.8632 12.5375 13.2153 12.5375H13.2254ZM9.73944 12.5375C9.93561 12.5375 10.1368 12.5375 10.333 12.5375C11.0825 12.5375 11.0724 12.5375 11.0724 11.7896C11.0724 11.5888 11.0221 11.5185 10.8109 11.5235C10.2575 11.5386 9.70423 11.5235 9.15091 11.5235C8.39135 11.5235 8.39638 11.5235 8.41147 12.3016C8.41147 12.4773 8.46177 12.5375 8.63783 12.5325C9 12.5225 9.3672 12.5325 9.73441 12.5325L9.73944 12.5375ZM9.73441 14.2444H10.2978C11.0976 14.2444 11.0926 14.2444 11.0775 13.4462C11.0775 13.2404 10.997 13.2102 10.8209 13.2153C10.2827 13.2253 9.73944 13.2153 9.20121 13.2153C8.40141 13.2153 8.40644 13.2153 8.42153 14.0135C8.42153 14.2193 8.50201 14.2494 8.67807 14.2444C9.03018 14.2343 9.38732 14.2444 9.73944 14.2444H9.73441ZM9.7495 16.0014H10.3129C11.0926 16.0014 11.0825 16.0014 11.0825 15.2283C11.0825 15.0074 10.997 14.9773 10.8109 14.9823C10.2726 14.9924 9.72938 14.9823 9.19115 14.9823C8.41147 14.9823 8.4165 14.9823 8.42656 15.7554C8.42656 15.9412 8.4668 16.0114 8.66298 16.0014C9.02515 15.9863 9.39235 16.0014 9.75453 16.0014H9.7495ZM13.2254 16.0014H13.8189C14.5986 16.0014 14.5885 16.0014 14.5835 15.2183C14.5835 15.0175 14.5181 14.9773 14.332 14.9823C13.7787 14.9924 13.2254 14.9823 12.672 14.9823C12.1355 14.9823 11.8823 15.2534 11.9125 15.7956C11.9125 15.7956 11.9125 15.8157 11.9125 15.8257C11.8974 15.9663 11.9678 16.0014 12.0986 15.9964C12.4759 15.9914 12.8481 15.9964 13.2254 15.9964V16.0014ZM9.76459 16.6791H9.17103C8.39135 16.6791 8.40141 16.6791 8.4165 17.4673C8.4165 17.653 8.48189 17.6932 8.65292 17.6882C9.20624 17.6781 9.75453 17.6882 10.3078 17.6882C10.8444 17.6882 11.0993 17.4187 11.0724 16.8799C11.0724 16.8799 11.0724 16.8598 11.0724 16.8498C11.0926 16.7042 11.0171 16.6791 10.8913 16.6791C10.5141 16.6841 10.1419 16.6791 9.76459 16.6791ZM13.2807 16.6791H12.6569C11.8924 16.6791 11.9024 16.6791 11.9074 17.4422C11.9074 17.6631 11.993 17.6932 12.1841 17.6932C12.7274 17.6831 13.2656 17.6932 13.8089 17.6932C14.6137 17.6932 14.6036 17.6932 14.5885 16.895C14.5885 16.7042 14.508 16.6791 14.3471 16.6841C13.995 16.6942 13.6378 16.6841 13.2857 16.6841L13.2807 16.6791Z" fill="#07743D"/>
<path d="M18.9455 7.88299C17.195 7.88299 15.4445 7.87294 13.694 7.88299C13.4022 7.88299 13.3066 7.82274 13.3066 7.5115C13.3217 5.67917 13.3066 3.85186 13.3066 2.01953C14.1165 2.85286 14.9314 3.6862 15.7362 4.52455C16.8076 5.63901 17.874 6.76351 18.9455 7.88299Z" fill="#4D9D77"/>
<path d="M13.2154 14.2381C12.8532 14.2381 12.486 14.2331 12.1238 14.2381C11.9628 14.2381 11.9125 14.1979 11.9025 14.0323C11.8622 13.209 11.8572 13.209 12.662 13.209C13.2254 13.209 13.7838 13.214 14.3472 13.209C14.5182 13.209 14.5785 13.2542 14.5785 13.4349C14.5987 14.2381 14.6037 14.2381 13.8089 14.2381H13.2154Z" fill="#F7FAFC"/>
<path d="M13.2245 12.5325C12.8724 12.5325 12.5152 12.5224 12.1631 12.5325C11.982 12.5375 11.9066 12.5024 11.9066 12.2965C11.8965 11.5234 11.8865 11.5234 12.6561 11.5234C13.2195 11.5234 13.7828 11.5234 14.3462 11.5234C14.5122 11.5234 14.5826 11.5536 14.5877 11.7443C14.6078 12.5325 14.6128 12.5325 13.8281 12.5325H13.2346H13.2245Z" fill="#F7FAFC"/>
<path d="M9.73877 12.5327C9.37156 12.5327 9.00939 12.5227 8.64219 12.5327C8.4611 12.5378 8.41583 12.4775 8.41583 12.3018C8.40074 11.5237 8.39571 11.5237 9.15526 11.5237C9.70858 11.5237 10.2619 11.5337 10.8152 11.5237C11.0215 11.5187 11.0768 11.5839 11.0768 11.7898C11.0768 12.5378 11.0869 12.5378 10.3374 12.5378C10.1412 12.5378 9.93997 12.5378 9.7438 12.5378L9.73877 12.5327Z" fill="#F7FAFC"/>
<path d="M9.73421 14.2381C9.3821 14.2381 9.02496 14.2281 8.67284 14.2381C8.49679 14.2431 8.41631 14.213 8.41631 14.0072C8.40624 13.209 8.39618 13.209 9.19598 13.209C9.73421 13.209 10.2775 13.214 10.8157 13.209C10.9918 13.209 11.0722 13.2341 11.0722 13.4399C11.0823 14.2381 11.0924 14.2381 10.2926 14.2381H9.72918H9.73421Z" fill="#F7FAFC"/>
<path d="M9.74479 16.0015C9.38262 16.0015 9.01542 15.9915 8.65324 16.0015C8.45204 16.0115 8.41682 15.9413 8.41682 15.7555C8.41179 14.9824 8.40676 14.9824 9.18141 14.9824C9.71964 14.9824 10.2629 14.9874 10.8011 14.9824C10.9872 14.9824 11.0728 15.0075 11.0728 15.2284C11.0728 16.0015 11.0828 16.0015 10.3031 16.0015C10.117 16.0015 9.93091 16.0015 9.73976 16.0015H9.74479Z" fill="#F7FAFC"/>
<path d="M13.2196 16.0004C12.8423 16.0004 12.4701 16.0004 12.0928 16.0004C11.962 16.0004 11.8916 15.9703 11.9067 15.8297C11.9067 15.8197 11.9067 15.8096 11.9067 15.7996C11.8765 15.2574 12.1297 14.9863 12.6663 14.9863C13.2196 14.9863 13.7729 14.9913 14.3262 14.9863C14.5073 14.9863 14.5727 15.0215 14.5777 15.2223C14.5828 16.0054 14.5928 16.0054 13.8131 16.0054C13.617 16.0054 13.4158 16.0054 13.2196 16.0054V16.0004Z" fill="#F7FAFC"/>
<path d="M9.75979 16.6797C10.1371 16.6797 10.5093 16.6797 10.8866 16.6797C11.0123 16.6797 11.0878 16.7048 11.0676 16.8504C11.0676 16.8604 11.0676 16.8705 11.0676 16.8805C11.0945 17.4193 10.8396 17.6887 10.3031 17.6887C9.74973 17.6887 9.20144 17.6837 8.64812 17.6887C8.4771 17.6887 8.41674 17.6536 8.41171 17.4678C8.39158 16.6797 8.38655 16.6797 9.16623 16.6797C9.36241 16.6797 9.56362 16.6797 9.75979 16.6797Z" fill="#F7FAFC"/>
<path d="M13.2806 16.6788C13.6327 16.6788 13.9899 16.6839 14.342 16.6788C14.503 16.6788 14.5784 16.6989 14.5835 16.8897C14.5985 17.6879 14.6086 17.6879 13.8038 17.6879C13.2605 17.6879 12.7223 17.6829 12.179 17.6879C11.9929 17.6879 11.9074 17.6628 11.9024 17.4369C11.9024 16.6738 11.8873 16.6738 12.6519 16.6738C12.8581 16.6738 13.0694 16.6738 13.2756 16.6738L13.2806 16.6788Z" fill="#F7FAFC"/>
</g>
<defs>
<clipPath id="clip0_10061_11979">
<rect width="15" height="20" fill="white" transform="translate(4 2)"/>
</clipPath>
</defs>
</svg>
