<svg width="24" height="24" viewBox="0 0 24 24" fill="none" xmlns="http://www.w3.org/2000/svg">
<path d="M22.8002 12.3C22.8002 12.3 18.7502 4.80005 12.0002 4.80005C5.2502 4.80005 1.2002 12.3 1.2002 12.3C1.2002 12.3 5.2502 19.8 12.0002 19.8C18.7502 19.8 22.8002 12.3 22.8002 12.3ZM2.78375 12.3C3.43649 11.2979 4.18726 10.3646 5.02474 9.51414C6.76219 7.75641 9.13819 6.16368 12.0002 6.16368C14.8622 6.16368 17.2368 7.75641 18.977 9.51414C19.8145 10.3646 20.5652 11.2979 21.218 12.3C21.1397 12.4187 21.0533 12.5496 20.9547 12.6928C20.5025 13.3473 19.8342 14.22 18.977 15.086C17.2368 16.8437 14.8608 18.4364 12.0002 18.4364C9.13819 18.4364 6.76354 16.8437 5.0234 15.086C4.18592 14.2355 3.43515 13.3021 2.7824 12.3H2.78375Z" fill="#B2B2B2"/>
<path d="M12.0004 8.89098C11.1053 8.89098 10.2468 9.25015 9.61391 9.88948C8.98097 10.5288 8.62539 11.3959 8.62539 12.3001C8.62539 13.2042 8.98097 14.0713 9.61391 14.7107C10.2468 15.35 11.1053 15.7092 12.0004 15.7092C12.8955 15.7092 13.7539 15.35 14.3869 14.7107C15.0198 14.0713 15.3754 13.2042 15.3754 12.3001C15.3754 11.3959 15.0198 10.5288 14.3869 9.88948C13.7539 9.25015 12.8955 8.89098 12.0004 8.89098ZM7.27539 12.3001C7.27539 11.0343 7.7732 9.8203 8.65931 8.92524C9.54542 8.03018 10.7472 7.52734 12.0004 7.52734C13.2535 7.52734 14.4554 8.03018 15.3415 8.92524C16.2276 9.8203 16.7254 11.0343 16.7254 12.3001C16.7254 13.5659 16.2276 14.7798 15.3415 15.6749C14.4554 16.57 13.2535 17.0728 12.0004 17.0728C10.7472 17.0728 9.54542 16.57 8.65931 15.6749C7.7732 14.7798 7.27539 13.5659 7.27539 12.3001Z" fill="#B2B2B2"/>
</svg>
