<svg width="24" height="24" viewBox="0 0 24 24" fill="none" xmlns="http://www.w3.org/2000/svg">
<path fill-rule="evenodd" clip-rule="evenodd" d="M22.4618 6.11909C22.542 6.17311 22.6115 6.24363 22.6664 6.32661C22.7213 6.4096 22.7605 6.50343 22.7818 6.60274C22.803 6.70206 22.8059 6.80491 22.7903 6.90544C22.7747 7.00596 22.7409 7.10219 22.6907 7.18862C22.0658 8.27063 21.3136 9.26093 20.4528 10.1349L22.1824 11.9992C22.3136 12.1456 22.3861 12.3416 22.3845 12.5451C22.3828 12.7486 22.3071 12.9433 22.1736 13.0872C22.0401 13.2311 21.8595 13.3127 21.6707 13.3145C21.4819 13.3163 21.3 13.238 21.1642 13.0967L19.3454 11.1361C18.1897 12.0706 16.8893 12.7765 15.5047 13.2208L16.1513 15.824C16.1969 16.0216 16.1688 16.2306 16.0728 16.406C15.9769 16.5813 15.8209 16.7091 15.6384 16.7616C15.4559 16.8141 15.2616 16.7873 15.0973 16.6868C14.933 16.5863 14.8119 16.4203 14.7601 16.2245L14.1006 13.5717C12.7099 13.8277 11.289 13.8277 9.89838 13.5717L9.23881 16.2261C9.21423 16.3245 9.17189 16.4168 9.11422 16.4976C9.05655 16.5785 8.98468 16.6462 8.90271 16.6971C8.82073 16.748 8.73026 16.781 8.63647 16.7942C8.54267 16.8074 8.44738 16.8005 8.35603 16.774C8.26469 16.7475 8.17908 16.7019 8.1041 16.6397C8.02912 16.5776 7.96623 16.5001 7.91903 16.4117C7.87182 16.3234 7.84122 16.2259 7.82898 16.1248C7.81674 16.0237 7.82309 15.9209 7.84768 15.8225L8.49572 13.2208C7.11057 12.7767 5.80964 12.0708 4.65355 11.1361L2.83471 13.0967C2.76828 13.1708 2.68883 13.2299 2.60098 13.2706C2.51313 13.3113 2.41865 13.3327 2.32304 13.3336C2.22743 13.3345 2.13262 13.3148 2.04413 13.2758C1.95563 13.2368 1.87524 13.1791 1.80763 13.1063C1.74003 13.0334 1.68656 12.9467 1.65036 12.8514C1.61415 12.756 1.59593 12.6538 1.59676 12.5507C1.59759 12.4477 1.61746 12.3458 1.65519 12.2511C1.69293 12.1564 1.74779 12.0708 1.81656 11.9992L3.54467 10.1349C2.68497 9.26074 1.93373 8.27044 1.30964 7.18862C1.25953 7.10219 1.2257 7.00596 1.21008 6.90544C1.19447 6.80491 1.19737 6.70206 1.21863 6.60274C1.26158 6.40217 1.37668 6.22819 1.53862 6.11909C1.70056 6.01 1.89608 5.97471 2.08215 6.02099C2.26823 6.06728 2.42963 6.19135 2.53085 6.36591C3.21776 7.55903 4.07843 8.62513 5.07981 9.52327C7.02155 11.2678 9.47169 12.2187 11.9995 12.2087C16.0433 12.2087 19.4246 9.89117 21.4695 6.36591C21.5195 6.27935 21.5849 6.20426 21.6618 6.14493C21.7387 6.08559 21.8258 6.04318 21.9179 6.02012C22.0101 5.99705 22.1055 5.99378 22.1988 6.0105C22.2922 6.02722 22.3815 6.06359 22.4618 6.11754V6.11909Z" fill="#B2B2B2"/>
</svg>
