<svg width="32" height="32" viewBox="0 0 32 32" fill="none" xmlns="http://www.w3.org/2000/svg">
<g clip-path="url(#clip0_10228_11322)">
<path d="M16 0.5C7.16129 0.5 0 7.66129 0 16.5C0 25.3387 7.16129 32.5 16 32.5C24.8387 32.5 32 25.3387 32 16.5C32 7.66129 24.8387 0.5 16 0.5ZM16 6.69355C19.1355 6.69355 21.6774 9.23548 21.6774 12.371C21.6774 15.5065 19.1355 18.0484 16 18.0484C12.8645 18.0484 10.3226 15.5065 10.3226 12.371C10.3226 9.23548 12.8645 6.69355 16 6.69355ZM16 28.8871C12.2129 28.8871 8.81936 27.171 6.54839 24.4871C7.76129 22.2032 10.1355 20.629 12.9032 20.629C13.0581 20.629 13.2129 20.6548 13.3613 20.7C14.2 20.971 15.0774 21.1452 16 21.1452C16.9226 21.1452 17.8064 20.971 18.6387 20.7C18.7871 20.6548 18.9419 20.629 19.0968 20.629C21.8645 20.629 24.2387 22.2032 25.4516 24.4871C23.1806 27.171 19.7871 28.8871 16 28.8871Z" fill="#6477BA"/>
</g>
<defs>
<clipPath id="clip0_10228_11322">
<rect width="32" height="32" fill="white"/>
</clipPath>
</defs>
</svg>
