<svg width="20" height="20" viewBox="0 0 20 20" fill="none" xmlns="http://www.w3.org/2000/svg">
<path d="M6.33333 11.3333C6.59855 11.3333 6.8529 11.228 7.04044 11.0404C7.22798 10.8529 7.33333 10.5985 7.33333 10.3333C7.33333 10.0681 7.22798 9.81376 7.04044 9.62623C6.8529 9.43869 6.59855 9.33333 6.33333 9.33333C6.06812 9.33333 5.81376 9.43869 5.62623 9.62623C5.43869 9.81376 5.33333 10.0681 5.33333 10.3333C5.33333 10.5985 5.43869 10.8529 5.62623 11.0404C5.81376 11.228 6.06812 11.3333 6.33333 11.3333ZM7.33333 13.6667C7.33333 13.9319 7.22798 14.1862 7.04044 14.3738C6.8529 14.5613 6.59855 14.6667 6.33333 14.6667C6.06812 14.6667 5.81376 14.5613 5.62623 14.3738C5.43869 14.1862 5.33333 13.9319 5.33333 13.6667C5.33333 13.4015 5.43869 13.1471 5.62623 12.9596C5.81376 12.772 6.06812 12.6667 6.33333 12.6667C6.59855 12.6667 6.8529 12.772 7.04044 12.9596C7.22798 13.1471 7.33333 13.4015 7.33333 13.6667ZM10 14.6667C10.2652 14.6667 10.5196 14.5613 10.7071 14.3738C10.8946 14.1862 11 13.9319 11 13.6667C11 13.4015 10.8946 13.1471 10.7071 12.9596C10.5196 12.772 10.2652 12.6667 10 12.6667C9.73478 12.6667 9.48043 12.772 9.29289 12.9596C9.10536 13.1471 9 13.4015 9 13.6667C9 13.9319 9.10536 14.1862 9.29289 14.3738C9.48043 14.5613 9.73478 14.6667 10 14.6667ZM11 10.3333C11 10.5985 10.8946 10.8529 10.7071 11.0404C10.5196 11.228 10.2652 11.3333 10 11.3333C9.73478 11.3333 9.48043 11.228 9.29289 11.0404C9.10536 10.8529 9 10.5985 9 10.3333C9 10.0681 9.10536 9.81376 9.29289 9.62623C9.48043 9.43869 9.73478 9.33333 10 9.33333C10.2652 9.33333 10.5196 9.43869 10.7071 9.62623C10.8946 9.81376 11 10.0681 11 10.3333ZM13.6667 11.3333C13.9319 11.3333 14.1862 11.228 14.3738 11.0404C14.5613 10.8529 14.6667 10.5985 14.6667 10.3333C14.6667 10.0681 14.5613 9.81376 14.3738 9.62623C14.1862 9.43869 13.9319 9.33333 13.6667 9.33333C13.4015 9.33333 13.1471 9.43869 12.9596 9.62623C12.772 9.81376 12.6667 10.0681 12.6667 10.3333C12.6667 10.5985 12.772 10.8529 12.9596 11.0404C13.1471 11.228 13.4015 11.3333 13.6667 11.3333ZM2 5.33333C2 4.44928 2.35119 3.60143 2.97631 2.97631C3.60143 2.35119 4.44928 2 5.33333 2H14.6667C15.5507 2 16.3986 2.35119 17.0237 2.97631C17.6488 3.60143 18 4.44928 18 5.33333V14.6667C18 15.5507 17.6488 16.3986 17.0237 17.0237C16.3986 17.6488 15.5507 18 14.6667 18H5.33333C4.44928 18 3.60143 17.6488 2.97631 17.0237C2.35119 16.3986 2 15.5507 2 14.6667V5.33333ZM5.33333 3.33333C4.8029 3.33333 4.29419 3.54405 3.91912 3.91912C3.54405 4.29419 3.33333 4.8029 3.33333 5.33333V6H16.6667V5.33333C16.6667 4.8029 16.456 4.29419 16.0809 3.91912C15.7058 3.54405 15.1971 3.33333 14.6667 3.33333H5.33333ZM3.33333 14.6667C3.33333 15.1971 3.54405 15.7058 3.91912 16.0809C4.29419 16.456 4.8029 16.6667 5.33333 16.6667H14.6667C15.1971 16.6667 15.7058 16.456 16.0809 16.0809C16.456 15.7058 16.6667 15.1971 16.6667 14.6667V7.33333H3.33333V14.6667Z" fill="#6477BA"/>
</svg>
