<svg width="25" height="25" viewBox="0 0 25 25" fill="none" xmlns="http://www.w3.org/2000/svg">
<path fill-rule="evenodd" clip-rule="evenodd" d="M12.3064 1.33008C11.3681 1.32978 10.4502 1.60451 9.66634 2.12029C8.88246 2.63608 8.26695 3.37029 7.8959 4.23216C7.52485 5.09403 7.41454 6.04574 7.57861 6.96964C7.74268 7.89353 8.17393 8.74907 8.81904 9.43048C7.47759 10.1723 6.408 11.3231 5.76605 12.7151C5.12411 14.1071 4.94334 15.6677 5.25006 17.1697C5.30515 17.4409 5.45233 17.6848 5.66666 17.86C5.881 18.0352 6.1493 18.1309 6.42612 18.1309H18.1867C18.4635 18.1309 18.7318 18.0352 18.9462 17.86C19.1605 17.6848 19.3077 17.4409 19.3628 17.1697C19.6698 15.6676 19.4891 14.1067 18.8472 12.7144C18.2052 11.3221 17.1355 10.1712 15.7938 9.42928C16.4385 8.74782 16.8694 7.89238 17.0333 6.96869C17.1971 6.04501 17.0867 5.09355 16.7157 4.23192C16.3447 3.37029 15.7294 2.63626 14.9457 2.12053C14.1621 1.60481 13.2445 1.33 12.3064 1.33008Z" fill="url(#paint0_linear_8575_11323)"/>
<path d="M11.3521 13.6369L11.3863 13.5647C11.4687 13.3903 11.5973 13.2413 11.7594 13.1362C11.9216 13.031 12.1102 12.9743 12.3038 12.9743C12.4974 12.9743 12.6861 13.031 12.8483 13.1362C13.0103 13.2413 13.1389 13.3903 13.2214 13.5647L13.2214 13.5647L14.2637 15.7694L16.5876 16.1218C16.5877 16.1218 16.5877 16.1218 16.5878 16.1219C16.7792 16.1507 16.9573 16.2347 17.1025 16.3622C17.2476 16.4896 17.3538 16.6553 17.4113 16.8395L17.0717 16.9454L17.4113 16.8395C17.4687 17.0235 17.4756 17.2202 17.4313 17.4079C17.3871 17.5956 17.2929 17.7685 17.1577 17.9062L17.1576 17.9063L15.466 19.6277L15.8658 22.0606L15.8658 22.0609C15.8969 22.2511 15.8765 22.4467 15.8065 22.6262C15.7364 22.8058 15.6187 22.9635 15.4649 23.0801C15.3109 23.1968 15.127 23.2673 14.934 23.2818L14.9074 22.9271L14.934 23.2818C14.741 23.2963 14.5488 23.2541 14.3793 23.1611C14.3792 23.161 14.3792 23.161 14.3791 23.161L12.3039 22.023L10.2287 23.1625C10.0589 23.2557 9.86635 23.2981 9.67305 23.2835C9.47979 23.2689 9.29577 23.1981 9.14166 23.0811C8.98772 22.9642 8.87013 22.8062 8.80024 22.6262C8.73041 22.4465 8.71039 22.2506 8.74189 22.0604L8.74184 22.0607L9.09288 22.1183L8.74194 22.0601L11.3521 13.6369ZM11.3521 13.6369V13.6376M11.3521 13.6369V13.6376M11.3521 13.6376V13.7167V13.7175H11.7079L11.7062 13.7167L11.3863 13.5654L11.3521 13.6376ZM9.14095 19.6277L9.26742 19.7565L9.5212 19.5072L9.17016 19.4496L9.14095 19.6277ZM10.5305 15.7418L10.3433 15.7702L10.2623 15.9414L10.5839 16.0935L10.5305 15.7418ZM8.07302 16.4744L8.0197 16.1226C8.01969 16.1226 8.01969 16.1226 8.01968 16.1226L8.07302 16.4744ZM7.45074 17.907C7.45074 17.907 7.45074 17.907 7.45074 17.907L7.70424 17.658L7.45074 17.907Z" fill="url(#paint1_linear_8575_11323)" stroke="white" stroke-width="0.711458"/>
<defs>
<linearGradient id="paint0_linear_8575_11323" x1="2.83934" y1="5.69183" x2="21.8008" y2="8.01015" gradientUnits="userSpaceOnUse">
<stop stop-color="#634FA3"/>
<stop offset="1" stop-color="#79B7D9"/>
</linearGradient>
<linearGradient id="paint1_linear_8575_11323" x1="5.99415" y1="15.8225" x2="18.5655" y2="17.6153" gradientUnits="userSpaceOnUse">
<stop stop-color="#634FA3"/>
<stop offset="1" stop-color="#79B7D9"/>
</linearGradient>
</defs>
</svg>
