<svg width="48" height="38" viewBox="0 0 48 38" fill="none" xmlns="http://www.w3.org/2000/svg">
<g clip-path="url(#clip0_10429_13889)">
<path d="M31.6229 4.31367C31.872 3.79757 32.1105 3.27698 32.3716 2.76688C32.8037 1.92222 33.4548 1.44963 34.454 1.45413C38.2272 1.47064 42.0019 1.45563 45.7766 1.46314C47.1298 1.46614 47.994 2.30779 47.994 3.65505C48.0015 14.0265 48.003 24.3964 47.994 34.7679C47.994 36.4842 46.8448 37.6109 45.0625 37.7174C44.8884 37.7279 44.7129 37.7204 44.5373 37.7204C30.8413 37.7204 17.1452 37.7204 3.44915 37.7234C2.71401 37.7234 1.98938 37.6619 1.35626 37.2673C0.379576 36.6597 -0.00149587 35.7371 4.41099e-06 34.5998C0.0105064 27.7526 0.00300497 20.9053 0.00600554 14.058C0.00600554 12.1091 0.0210083 10.1603 0.0285098 8.2114C1.47778 8.2099 2.92555 8.2069 4.37482 8.2054C12.4088 8.2099 20.4428 8.2159 28.4768 8.2204C29.329 8.2204 29.9876 7.83183 30.3657 7.09519C30.8308 6.19052 31.2074 5.24234 31.6229 4.31217V4.31367Z" fill="#FCD463"/>
<path d="M31.6234 4.31597C31.2078 5.24615 30.8313 6.19432 30.3662 7.09899C29.9866 7.83563 29.328 8.22421 28.4773 8.22421C20.4433 8.2197 12.4093 8.2152 4.37529 8.2092C4.37229 7.138 4.4053 6.0653 4.35429 4.9971C4.32428 4.36548 4.53882 4.19595 5.15394 4.20195C8.26852 4.23046 11.3831 4.21995 14.4962 4.21245C15.8659 4.20945 17.2342 4.18395 18.604 4.16895C18.874 4.33548 19.1756 4.31897 19.4756 4.31897C23.5249 4.31747 27.5741 4.31747 31.6234 4.31597Z" fill="#ECF0F0"/>
<path d="M18.6042 4.16639C17.2345 4.18139 15.8662 4.2069 14.4964 4.2099C11.3819 4.2159 8.26728 4.2264 5.1542 4.1994C4.53908 4.19339 4.32454 4.36293 4.35455 4.99454C4.40556 6.06274 4.37405 7.13695 4.37555 8.20665C2.92628 8.20815 1.47851 8.21115 0.0292351 8.21265C-0.0472793 5.92472 0.332292 3.7043 1.04042 1.5364C1.36599 0.537209 2.08312 0.018112 3.18883 0.0136111C6.87802 -0.00439225 10.5687 0.00160887 14.2579 0.0106106C15.1281 0.0136111 15.8347 0.354175 16.3538 1.09381C17.0829 2.13351 17.8526 3.1432 18.6042 4.16639Z" fill="#F5C35B"/>
</g>
<defs>
<clipPath id="clip0_10429_13889">
<rect width="48" height="37.7246" fill="white"/>
</clipPath>
</defs>
</svg>
