<svg width="31" height="30" viewBox="0 0 31 30" fill="none" xmlns="http://www.w3.org/2000/svg">
<g clip-path="url(#clip0_4001_3123)">
<path d="M29.3674 12.3919L17.1307 12.3913C16.5903 12.3913 16.1523 12.8293 16.1523 13.3696V17.2787C16.1523 17.8189 16.5903 18.257 17.1306 18.257H24.0216C23.267 20.2152 21.8587 21.8552 20.0618 22.8972L23.0001 27.9837C27.7135 25.2578 30.5001 20.4748 30.5001 15.1206C30.5001 14.3583 30.4439 13.8133 30.3316 13.1996C30.2461 12.7334 29.8414 12.3919 29.3674 12.3919Z" fill="#167EE6"/>
<path d="M15.5003 24.1305C12.128 24.1305 9.18404 22.288 7.60289 19.5614L2.5166 22.4931C5.10498 26.9792 9.95385 30.0001 15.5003 30.0001C18.2212 30.0001 20.7887 29.2675 23.0003 27.9908V27.9838L20.062 22.8973C18.718 23.6768 17.1627 24.1305 15.5003 24.1305Z" fill="#12B347"/>
<path d="M23 27.9906V27.9836L20.0617 22.8971C18.7177 23.6766 17.1625 24.1303 15.5 24.1303V29.9999C18.2209 29.9999 20.7884 29.2673 23 27.9906Z" fill="#0F993E"/>
<path d="M6.36957 15.0001C6.36957 13.3379 6.8232 11.7827 7.60256 10.4388L2.51627 7.50711C1.23254 9.71181 0.5 12.2722 0.5 15.0001C0.5 17.728 1.23254 20.2884 2.51627 22.4931L7.60256 19.5615C6.8232 18.2175 6.36957 16.6624 6.36957 15.0001Z" fill="#FFD500"/>
<path d="M15.5003 5.86957C17.6994 5.86957 19.7194 6.65098 21.2971 7.95076C21.6864 8.27139 22.2521 8.24824 22.6086 7.8917L25.3784 5.12197C25.7829 4.71744 25.7541 4.05527 25.3219 3.68039C22.6785 1.38709 19.239 0 15.5003 0C9.95385 0 5.10498 3.02092 2.5166 7.50697L7.60289 10.4387C9.18404 7.71211 12.128 5.86957 15.5003 5.86957Z" fill="#FF4B26"/>
<path d="M21.2968 7.95076C21.686 8.27139 22.2518 8.24824 22.6083 7.8917L25.378 5.12197C25.7825 4.71744 25.7537 4.05527 25.3216 3.68039C22.6782 1.38703 19.2387 0 15.5 0V5.86957C17.699 5.86957 19.7191 6.65098 21.2968 7.95076Z" fill="#D93F21"/>
</g>
<defs>
<clipPath id="clip0_4001_3123">
<rect width="30" height="30" fill="white" transform="translate(0.5)"/>
</clipPath>
</defs>
</svg>
