<svg width="24" height="24" viewBox="0 0 24 24" fill="none" xmlns="http://www.w3.org/2000/svg">
<g clip-path="url(#clip0_10447_11362)">
<path d="M7.09766 18.0727C7.14951 17.38 7.14201 16.6766 7.26507 15.9963C7.51995 14.5851 8.78431 13.3158 10.2067 13.1889C11.4923 13.074 12.8067 13.0628 14.0904 13.1902C15.7352 13.3539 17.0814 14.9587 17.1245 16.6147C17.1508 17.6236 17.1314 18.6337 17.142 19.6432C17.1439 19.825 17.0839 19.9168 16.9159 19.993C16.0469 20.3878 15.1311 20.6196 14.1897 20.7046C13.3227 20.782 12.4462 20.807 11.576 20.7808C10.1268 20.7383 8.72059 20.4209 7.33816 19.9918C7.16512 19.9381 7.14138 19.8487 7.14263 19.7001C7.14701 19.1591 7.14451 18.6175 7.14451 18.0765L7.09766 18.0734V18.0727Z" fill="#6477BA"/>
<path d="M9.6132 12.5653C7.21253 13.4854 6.28362 15.2895 6.45166 17.817C5.58709 17.6784 4.76875 17.5684 3.95978 17.4104C3.37132 17.2954 2.79599 17.1136 2.21253 16.9718C2.05136 16.9325 2.00076 16.8569 2.00201 16.6926C2.01013 15.6831 1.98701 14.673 2.012 13.6641C2.06198 11.6776 3.65306 10.1471 5.75201 10.0684C6.57285 10.0378 7.39618 10.0609 8.21827 10.064C8.35758 10.064 8.51438 10.039 8.53437 10.2621C8.61245 11.1535 8.97977 11.9156 9.61258 12.5647L9.6132 12.5653Z" fill="#6477BA"/>
<path d="M14.6803 12.5693C15.3212 11.8928 15.6998 11.1276 15.7635 10.2168C15.7673 10.1612 15.8835 10.0681 15.9453 10.0693C16.9835 10.0931 18.0368 10.03 19.0563 10.1855C20.6979 10.4367 21.9511 11.9996 21.9873 13.6757C22.0085 14.6645 21.9979 15.6541 21.9848 16.6429C21.9835 16.746 21.8886 16.8978 21.7968 16.9415C20.9753 17.3332 20.0995 17.5431 19.2006 17.6612C18.7701 17.7174 18.3372 17.753 17.8775 17.8005C17.8568 17.3513 17.8556 16.9378 17.8162 16.528C17.6326 14.6246 16.6243 13.3452 14.8521 12.6537C14.804 12.6349 14.759 12.6081 14.6797 12.5687L14.6803 12.5693Z" fill="#6477BA"/>
<path d="M9.2227 9.97022C9.21395 8.3679 10.5021 7.04918 12.0831 7.04106C13.7592 7.03232 15.061 8.29606 15.0673 9.93711C15.0735 11.5744 13.791 12.8794 12.1619 12.8944C10.552 12.9094 9.23145 11.5963 9.2227 9.97022Z" fill="#6477BA"/>
<path d="M6.99173 9.85785C5.48561 9.86097 4.2606 8.77276 4.08506 7.19668C3.93951 5.89046 4.75285 4.51489 6.22961 4.11259C8.02309 3.62346 9.81282 4.9047 9.93714 6.75065C9.95213 6.97304 9.89778 7.13233 9.71912 7.28976C9.14128 7.79763 8.77459 8.43606 8.60655 9.19255C8.57969 9.31437 8.47099 9.47117 8.36292 9.51177C7.92252 9.67669 7.46775 9.80225 7.01797 9.94218L6.99173 9.85785Z" fill="#6477BA"/>
<path d="M16.9978 9.84425C16.8629 9.84425 16.7255 9.85924 16.593 9.84175C16.0902 9.77553 15.7172 9.63435 15.6135 9.00529C15.4736 8.15322 14.9239 7.51291 14.2342 6.99817C14.1524 6.93695 14.0681 6.80139 14.0768 6.70894C14.2224 5.14972 15.4542 4.07838 16.8879 4.00342C18.2122 3.9347 19.5359 4.90984 19.8502 6.24792C20.2843 8.097 18.8919 9.85924 16.9978 9.84362V9.84425Z" fill="#6477BA"/>
</g>
<defs>
<clipPath id="clip0_10447_11362">
<rect width="20" height="16.7904" fill="white" transform="translate(2 4)"/>
</clipPath>
</defs>
</svg>
