<svg width="33" height="34" viewBox="0 0 33 34" fill="none" xmlns="http://www.w3.org/2000/svg">
<path d="M32.3557 16.9557C32.3557 25.6461 25.3021 32.6921 16.5997 32.6921C7.89738 32.6921 0.84375 25.6461 0.84375 16.9557C0.84375 8.26525 7.89738 1.21924 16.5997 1.21924C25.3021 1.21924 32.3557 8.26525 32.3557 16.9557Z" fill="#E4E4E4" stroke="white"/>
<g clip-path="url(#clip0_8603_12071)">
<path d="M16.6003 20.0483C18.3104 20.0483 19.6967 18.6637 19.6967 16.9557C19.6967 15.2477 18.3104 13.863 16.6003 13.863C14.8902 13.863 13.5039 15.2477 13.5039 16.9557C13.5039 18.6637 14.8902 20.0483 16.6003 20.0483Z" fill="#6477BA"/>
<path d="M13.6972 7.29102L11.9264 9.22393H8.85907C7.79469 9.22393 6.92383 10.0937 6.92383 11.1568V22.7543C6.92383 23.8174 7.79469 24.6872 8.85907 24.6872H24.341C25.4053 24.6872 26.2762 23.8174 26.2762 22.7543V11.1568C26.2762 10.0937 25.4053 9.22393 24.341 9.22393H21.2736L19.5029 7.29102H13.6972ZM16.6 21.7878C13.9294 21.7878 11.7619 19.623 11.7619 16.9556C11.7619 14.2882 13.9294 12.1233 16.6 12.1233C19.2706 12.1233 21.4381 14.2882 21.4381 16.9556C21.4381 19.623 19.2706 21.7878 16.6 21.7878Z" fill="#6477BA"/>
</g>
<defs>
<clipPath id="clip0_8603_12071">
<rect width="23.2229" height="23.1949" fill="white" transform="translate(4.98828 5.35815)"/>
</clipPath>
</defs>
</svg>
