<svg width="24" height="24" viewBox="0 0 24 24" fill="none" xmlns="http://www.w3.org/2000/svg">
<path d="M6.48656 3.84889C6.75322 3.96942 7.04048 4.05935 7.28279 4.21797C7.62938 4.44529 7.951 4.71382 8.26886 4.9811C8.41624 5.10538 8.53615 5.13098 8.70976 5.03481C8.8996 4.92989 9.10131 4.82373 9.31052 4.78251C9.60153 4.72568 9.65337 4.54396 9.68084 4.29978C9.73018 3.85639 9.77702 3.41175 9.86382 2.9746C9.97623 2.40007 10.4533 2.016 11.0391 2.00726C11.6742 1.99727 12.3093 1.99789 12.9444 2.00726C13.5452 2.01538 14.0205 2.40069 14.1366 2.99584C14.2215 3.43298 14.269 3.87825 14.3158 4.32164C14.3408 4.56019 14.4033 4.73692 14.6768 4.77377C14.7767 4.78751 14.886 4.82623 14.9647 4.88743C15.3787 5.21029 15.7091 5.05667 16.0407 4.74067C16.2505 4.54083 16.4928 4.37409 16.7251 4.19861C17.2747 3.78145 17.9248 3.81205 18.4231 4.29228C18.8578 4.7107 19.2849 5.13847 19.704 5.57312C20.1842 6.07022 20.2173 6.71969 19.8008 7.2705C19.5372 7.61896 19.2712 7.96556 18.9927 8.30216C18.8834 8.43393 18.8715 8.54134 18.9502 8.69122C19.0514 8.88356 19.1588 9.08215 19.2044 9.29136C19.2718 9.59798 19.4648 9.66168 19.7352 9.68791C20.1686 9.72975 20.6026 9.78221 21.0291 9.86714C21.5887 9.97893 21.9765 10.4492 21.989 11.0181C22.0034 11.6738 22.004 12.3301 21.989 12.9852C21.9759 13.5535 21.5856 14.0219 21.0235 14.1312C20.5558 14.2217 20.0793 14.2723 19.6053 14.3267C19.4073 14.3491 19.2787 14.4166 19.2381 14.6258C19.2187 14.7257 19.1838 14.8331 19.1244 14.9143C18.7872 15.3727 18.9421 15.7368 19.3043 16.0946C19.4948 16.2832 19.6434 16.5155 19.8051 16.7316C20.2117 17.2743 20.1867 17.9181 19.7208 18.4058C19.2893 18.8574 18.8478 19.3001 18.3957 19.7304C17.921 20.1813 17.2741 20.2081 16.7457 19.8122C16.3879 19.5443 16.0457 19.2545 15.6816 18.996C15.5954 18.9348 15.4462 18.9398 15.3288 18.9498C15.2413 18.9573 15.1614 19.0447 15.0727 19.0572C14.3708 19.1559 14.2671 19.6605 14.2428 20.2375C14.2322 20.4954 14.1916 20.7546 14.1372 21.0075C14.0098 21.5995 13.5415 21.9823 12.9382 21.9898C12.3137 21.9979 11.6886 21.9973 11.0641 21.9898C10.449 21.9823 9.97061 21.5958 9.8532 20.9838C9.7689 20.5466 9.72456 20.1007 9.67647 19.6573C9.65212 19.4319 9.58842 19.2776 9.33363 19.2221C9.13379 19.1783 8.93645 19.0897 8.76034 18.9841C8.55863 18.863 8.41437 18.8855 8.23889 19.0372C7.94038 19.2958 7.62001 19.5287 7.30714 19.7697C6.71138 20.2281 6.07189 20.1944 5.53733 19.6704C5.12079 19.2627 4.70737 18.8511 4.30083 18.4333C3.80498 17.9237 3.77126 17.2811 4.20528 16.7128C4.46382 16.3737 4.72236 16.0346 4.99464 15.7062C5.1108 15.5663 5.12141 15.4501 5.03711 15.2909C4.93094 15.0898 4.82728 14.88 4.7717 14.6614C4.71299 14.4322 4.58997 14.3435 4.36703 14.3223C3.98483 14.2861 3.60452 14.2267 3.22295 14.1843C2.44983 14.0981 2.00394 13.6097 2.00144 12.8372C2.00019 12.2646 1.99894 11.6919 2.00144 11.1199C2.00519 10.4036 2.45108 9.90711 3.16737 9.81656C3.57954 9.76472 3.99108 9.71039 4.40387 9.6673C4.5881 9.64794 4.7105 9.58487 4.75296 9.38691C4.78106 9.25639 4.81853 9.11525 4.89535 9.01034C5.18449 8.61753 5.07145 8.30466 4.75983 7.98679C4.55 7.77259 4.38076 7.51842 4.19904 7.27799C3.77063 6.71345 3.8081 6.06522 4.30458 5.55751C4.71924 5.13285 5.14265 4.71694 5.56293 4.29853C5.80898 4.05373 6.10248 3.82891 6.46094 3.84889L6.48531 3.85014L6.48656 3.84889ZM12.0021 7.82505C9.6771 7.87001 7.83734 9.64857 7.83359 11.9929C7.82984 14.3229 9.65149 16.157 11.9915 16.1602C14.3246 16.1639 16.1556 14.3435 16.16 12.0029C16.1637 9.67917 14.3508 7.8775 12.0021 7.82505Z" fill="#6477BA"/>
</svg>
