<svg width="24" height="24" viewBox="0 0 24 24" fill="none" xmlns="http://www.w3.org/2000/svg">
<path d="M14.8888 9.24609C14.6298 9.24609 14.4199 9.45577 14.4199 9.71448V18.5669C14.4199 18.8255 14.6298 19.0353 14.8888 19.0353C15.1478 19.0353 15.3577 18.8255 15.3577 18.5669V9.71448C15.3577 9.45577 15.1478 9.24609 14.8888 9.24609Z" fill="#6477BA" stroke="#6477BA" stroke-width="0.5"/>
<path d="M9.35758 9.24609C9.09858 9.24609 8.88867 9.45577 8.88867 9.71448V18.5669C8.88867 18.8255 9.09858 19.0353 9.35758 19.0353C9.61658 19.0353 9.82649 18.8255 9.82649 18.5669V9.71448C9.82649 9.45577 9.61658 9.24609 9.35758 9.24609Z" fill="#6477BA" stroke="#6477BA" stroke-width="0.5"/>
<path d="M5.3308 7.95419V19.4942C5.3308 20.1762 5.58101 20.8168 6.01809 21.2764C6.45316 21.7373 7.05864 21.9989 7.6923 22H16.5577C17.1915 21.9989 17.797 21.7373 18.2319 21.2764C18.669 20.8168 18.9192 20.1762 18.9192 19.4942V7.95419C19.7881 7.72366 20.3511 6.8846 20.2348 5.99339C20.1184 5.10236 19.359 4.43583 18.46 4.43565H16.061V3.85017C16.0637 3.35782 15.8689 2.88505 15.5203 2.53724C15.1716 2.18961 14.6979 1.99604 14.2054 2.00006H10.0446C9.5521 1.99604 9.07841 2.18961 8.72973 2.53724C8.38105 2.88505 8.18631 3.35782 8.18905 3.85017V4.43565H5.79003C4.89097 4.43583 4.13157 5.10236 4.01516 5.99339C3.89893 6.8846 4.46194 7.72366 5.3308 7.95419ZM16.5577 21.0632H7.6923C6.89116 21.0632 6.26793 20.3753 6.26793 19.4942V7.99536H17.9821V19.4942C17.9821 20.3753 17.3588 21.0632 16.5577 21.0632ZM9.12618 3.85017C9.12307 3.60628 9.21898 3.37154 9.39213 3.19938C9.5651 3.02721 9.80048 2.93262 10.0446 2.93683H14.2054C14.4495 2.93262 14.6849 3.02721 14.8579 3.19938C15.031 3.37136 15.1269 3.60628 15.1238 3.85017V4.43565H9.12618V3.85017ZM5.79003 5.37242H18.46C18.9258 5.37242 19.3034 5.74987 19.3034 6.21551C19.3034 6.68114 18.9258 7.05859 18.46 7.05859H5.79003C5.32421 7.05859 4.94662 6.68114 4.94662 6.21551C4.94662 5.74987 5.32421 5.37242 5.79003 5.37242Z" fill="#6477BA" stroke="#6477BA" stroke-width="0.5"/>
<path d="M12.1271 9.24609C11.8681 9.24609 11.6582 9.45577 11.6582 9.71448V18.5669C11.6582 18.8255 11.8681 19.0353 12.1271 19.0353C12.3861 19.0353 12.596 18.8255 12.596 18.5669V9.71448C12.596 9.45577 12.3861 9.24609 12.1271 9.24609Z" fill="#6477BA" stroke="#6477BA" stroke-width="0.5"/>
</svg>
