<svg width="24" height="24" viewBox="0 0 24 24" fill="none" xmlns="http://www.w3.org/2000/svg">
<path d="M5.74057 20.3218C6.17128 18.8045 6.58447 17.3492 6.99703 15.8933C7.16606 15.2958 7.32257 14.6954 7.50725 14.1018C7.56046 13.9312 7.53354 13.8337 7.38329 13.7205C6.08301 12.7366 4.78962 11.7454 3.49435 10.7564C3.01919 10.3931 2.54465 10.0293 2 9.61197C2.49707 9.57931 2.91589 9.55002 3.33408 9.52468C5.24663 9.40922 7.1598 9.29771 9.07171 9.17042C9.17501 9.16367 9.31462 9.04427 9.35781 8.94852C10.1923 7.08489 11.0156 5.21732 11.8413 3.35031C11.8851 3.25062 11.9365 3.15319 12.0103 3C12.3177 3.69105 12.6026 4.32859 12.8855 4.9667C13.4734 6.29529 14.0637 7.62275 14.6434 8.95416C14.7148 9.11748 14.8043 9.17437 15.0022 9.18563C17.2171 9.30897 19.4314 9.44358 21.6457 9.57649C21.744 9.58269 21.8416 9.60296 22 9.62549C21.2056 10.2315 20.46 10.8009 19.7143 11.3692C18.6964 12.1452 17.681 12.9236 16.6587 13.6952C16.4971 13.8168 16.4496 13.9216 16.5078 14.1215C17.0806 16.091 17.6365 18.0645 18.1949 20.0374C18.215 20.1078 18.2194 20.1821 18.2388 20.2981C18.0528 20.1996 17.8951 20.1213 17.7423 20.034C15.9124 18.9926 14.0819 17.9524 12.2557 16.9049C12.0779 16.8029 11.9484 16.7922 11.7618 16.8992C9.86615 17.9868 7.96363 19.0653 6.06235 20.1461C5.97471 20.1956 5.88519 20.2418 5.74057 20.3201V20.3218Z" fill="#6477BA"/>
</svg>
