<svg width="24" height="24" viewBox="0 0 24 24" fill="none" xmlns="http://www.w3.org/2000/svg">
<path d="M18.8905 8.34997C18.5439 7.9294 17.8779 7.99151 17.6293 8.47609C17.5603 8.61122 17.4833 8.73355 17.4015 8.84402C17.0051 9.38217 16.1479 9.18019 16.0433 8.52018C15.7938 6.95314 15.1943 5.97404 14.6423 5.3458C13.9017 4.50278 13.1311 4.26997 12.5834 3.27617C12.2958 2.75556 12.1651 2.21362 12.1266 1.69538C12.0771 1.03538 11.2509 0.758005 10.8083 1.25159C9.09592 3.16428 7.97684 5.58287 7.81854 8.20345C7.77528 8.93648 6.76982 9.23092 6.37619 8.47988C6.12708 7.99246 5.46058 7.92419 5.11212 8.34665C0.127132 14.3891 4.58966 23 12.0001 23C19.4101 23 23.8707 14.3896 18.8905 8.34997Z" fill="#D51B48"/>
<path d="M14.844 11.0086C16.3819 11.1291 17.5309 12.4699 17.4106 14.0043C17.1159 17.7505 13.9284 20.0562 12.0068 20.0562H11.9935C10.072 20.0562 6.88444 17.7505 6.5897 14.0043C6.46942 12.4699 7.61845 11.1291 9.15636 11.0086C10.4314 10.909 11.5718 11.6819 11.9935 12.8232H12.0068C12.4285 11.6819 13.569 10.909 14.844 11.0086Z" fill="#FFDAA1"/>
<path d="M8.84738 13.6694C8.50367 13.6694 8.33562 13.2466 8.58834 13.0123C8.58834 13.0123 8.63393 12.97 8.65389 12.9519C8.80916 12.8109 9.0497 12.8221 9.19113 12.9769C9.33256 13.1317 9.32139 13.3716 9.16613 13.5127C9.09045 13.5813 9.01229 13.6694 8.84738 13.6694Z" fill="white"/>
<path d="M8.74905 16.0263C8.60082 16.0263 8.45996 15.9393 8.39859 15.7945C8.20234 15.3316 8.09766 14.9285 8.07865 14.5622C8.06776 14.353 8.22901 14.1746 8.43876 14.1638C8.64903 14.1537 8.8274 14.3138 8.83828 14.5229C8.85269 14.7996 8.93802 15.1188 9.09923 15.4992C9.20562 15.7502 9.01917 16.0263 8.74905 16.0263Z" fill="white"/>
</svg>
