<svg width="36" height="36" viewBox="0 0 36 36" fill="none" xmlns="http://www.w3.org/2000/svg">
<path d="M26.3998 30C28.388 30 29.9998 28.3883 29.9998 26.4C29.9998 24.4118 28.388 22.8 26.3998 22.8C24.4116 22.8 22.7998 24.4118 22.7998 26.4C22.7998 28.3883 24.4116 30 26.3998 30Z" fill="#92D8FF"/>
<path fill-rule="evenodd" clip-rule="evenodd" d="M21.6001 11.22V7.98C21.6001 6.8883 20.7118 6 19.6201 6H16.3801C15.2884 6 14.4001 6.8883 14.4001 7.98V11.22C14.4001 12.3117 15.2884 13.2 16.3801 13.2H19.6201C20.7118 13.2 21.6001 12.3117 21.6001 11.22ZM21.6001 19.6201V16.3801C21.6001 15.2884 20.7118 14.4001 19.6201 14.4001H16.3801C15.2884 14.4001 14.4001 15.2884 14.4001 16.3801V19.6201C14.4001 20.7118 15.2884 21.6001 16.3801 21.6001H19.6201C20.7118 21.6001 21.6001 20.7118 21.6001 19.6201ZM21.6001 24.7803V28.0203C21.6001 29.112 20.7118 30.0003 19.6201 30.0003H16.3801C15.2884 30.0003 14.4001 29.112 14.4001 28.0203V24.7803C14.4001 23.6886 15.2884 22.8003 16.3801 22.8003H19.6201C20.7118 22.8003 21.6001 23.6886 21.6001 24.7803ZM29.9999 19.6201V16.3801C29.9999 15.2884 29.1116 14.4001 28.0199 14.4001H24.7799C23.6882 14.4001 22.7999 15.2884 22.7999 16.3801V19.6201C22.7999 20.7118 23.6882 21.6001 24.7799 21.6001H28.0199C29.1116 21.6001 29.9999 20.7118 29.9999 19.6201ZM13.2 16.3801V19.6201C13.2 20.7118 12.3117 21.6001 11.22 21.6001H7.98C6.8883 21.6001 6 20.7118 6 19.6201V16.3801C6 15.2884 6.8883 14.4001 7.98 14.4001H11.22C12.3117 14.4001 13.2 15.2884 13.2 16.3801ZM13.2 28.0203V24.7803C13.2 23.6886 12.3117 22.8003 11.22 22.8003H7.98C6.8883 22.8003 6 23.6886 6 24.7803V28.0203C6 29.112 6.8883 30.0003 7.98 30.0003H11.22C12.3117 30.0003 13.2 29.112 13.2 28.0203Z" fill="url(#paint0_linear_10280_11368)"/>
<defs>
<linearGradient id="paint0_linear_10280_11368" x1="2.22582" y1="12.2308" x2="33.6524" y2="16.7125" gradientUnits="userSpaceOnUse">
<stop stop-color="#634FA3"/>
<stop offset="1" stop-color="#79B7D9"/>
</linearGradient>
</defs>
</svg>
