<svg width="40" height="40" viewBox="0 0 40 40" fill="none" xmlns="http://www.w3.org/2000/svg">
<g filter="url(#filter0_d_8684_14199)">
<g filter="url(#filter1_d_8684_14199)">
<rect x="9" y="5" width="24" height="24" rx="12" fill="url(#paint0_linear_8684_14199)"/>
<g clip-path="url(#clip0_8684_14199)">
<path d="M24.5891 12.6079L25.4731 11.7596C25.396 11.6783 25.3188 11.6028 25.2477 11.5272C25.1943 11.475 25.1349 11.4227 25.0875 11.3646C24.8798 11.1322 24.9747 10.9288 25.1824 10.7836C25.4494 10.5976 25.6214 10.0283 26.0486 10.3885C26.713 10.9404 27.3419 11.5563 27.9115 12.207C28.2912 12.6428 27.692 12.8171 27.4962 13.0785C27.3419 13.2935 27.1165 13.3516 26.9029 13.1424C26.7783 13.0204 26.6775 12.8752 26.5588 12.7357L25.6689 13.6711C26.9029 15.2689 27.3241 17.1106 26.7605 19.1325C26.3452 20.6141 25.4909 21.8051 24.1857 22.6592C21.6465 24.3266 18.2173 23.949 16.0934 21.7819C13.9932 19.638 13.7381 16.2391 15.512 13.8803C16.5799 12.451 18.0334 11.6144 19.8132 11.3588C21.5931 11.1031 23.189 11.5679 24.5891 12.6137V12.6079ZM16.0281 17.8427C16.1112 18.8478 16.4672 19.7193 17.1435 20.4862C17.3511 20.3177 17.541 20.0621 17.808 20.3003C18.1046 20.5676 17.7902 20.7535 17.6419 20.9801C18.425 21.625 19.303 21.9852 20.3175 22.0607C20.3591 21.7877 20.2641 21.4391 20.6498 21.4275C21.0947 21.4158 20.9523 21.8167 21.0295 22.0665C22.0499 21.9678 22.9457 21.6192 23.7111 20.9568C23.5746 20.7244 23.1949 20.5618 23.4975 20.2596C23.7882 19.975 23.984 20.3003 24.2094 20.463C24.8798 19.6961 25.2358 18.8304 25.3188 17.8253C25.0341 17.8078 24.69 17.8834 24.6722 17.5115C24.6544 17.0758 25.0637 17.2094 25.3248 17.1397C25.2239 16.1404 24.8739 15.2689 24.1916 14.5194C23.9662 14.6704 23.8001 14.9958 23.5034 14.7227C23.1949 14.4322 23.5568 14.2521 23.6873 14.0255C22.9101 13.3864 22.0321 13.0204 21.0176 12.9507C20.9701 13.2121 21.0651 13.5782 20.6498 13.5665C20.2641 13.5549 20.3591 13.2005 20.3116 12.9507C19.2852 13.0262 18.4012 13.3981 17.6359 14.043C17.7902 14.2696 18.1224 14.4439 17.8317 14.7227C17.5351 15.0132 17.3511 14.6646 17.1198 14.5252C16.4731 15.2979 16.0934 16.1462 16.0281 17.1513C16.2892 17.1862 16.6451 17.1048 16.6511 17.4825C16.6629 17.8892 16.2773 17.7904 16.0222 17.8485L16.0281 17.8427Z" fill="white"/>
<path d="M28.6886 17.8141C28.5285 17.8141 28.4276 17.8257 28.3327 17.8141C28.0538 17.7792 27.9233 17.5585 28.0657 17.3203C28.2733 16.9775 28.4988 16.6405 28.748 16.3209C28.9081 16.1176 29.1336 16.1408 29.2997 16.3732C29.5014 16.6463 29.6913 16.9252 29.8752 17.2099C30.1184 17.5933 30.0057 17.7967 29.543 17.8199H29.4124C29.2582 18.5462 29.1751 19.2782 28.9497 19.958C27.864 23.1941 25.5977 25.1812 22.1804 25.8435C17.2799 26.7905 12.9134 23.2755 12.1303 18.9645C11.2997 14.4036 14.5153 9.87186 19.2199 9.134C19.6471 9.06428 20.0802 9.04104 20.5074 9.00618C20.7506 8.98294 20.982 9.02942 20.9938 9.31411C20.9998 9.62784 20.7565 9.63946 20.5014 9.65689C17.096 9.87186 14.5509 11.4289 13.2635 14.5373C11.2344 19.4177 14.3907 23.8972 18.5792 25.0708C22.9101 26.2851 27.7216 23.473 28.5403 18.889C28.5996 18.552 28.6412 18.2034 28.6946 17.8141H28.6886Z" fill="white"/>
<path d="M23.0588 15.5189C22.9579 15.6583 22.8927 15.7745 22.8037 15.8617C22.3943 16.2626 21.9731 16.646 21.5756 17.0585C21.451 17.1863 21.3739 17.3781 21.3383 17.5582C21.2671 17.8719 21.0476 18.0927 20.7153 18.145C20.573 18.1682 20.4246 18.2263 20.3119 18.3135C20.128 18.4587 19.95 18.5575 19.7602 18.36C19.5881 18.1799 19.6771 18.0114 19.8254 17.8429C19.9144 17.7383 19.9797 17.5872 19.9975 17.4536C20.0568 17.1108 20.2823 16.8958 20.6264 16.8319C20.7865 16.8029 20.9645 16.7274 21.0772 16.6228C21.5222 16.2103 21.9316 15.7687 22.3765 15.362C22.4714 15.2749 22.6554 15.2284 22.7859 15.2458C22.8808 15.2574 22.9579 15.4085 23.0588 15.5189Z" fill="white"/>
</g>
</g>
</g>
<defs>
<filter id="filter0_d_8684_14199" x="5" y="5" width="32" height="32" filterUnits="userSpaceOnUse" color-interpolation-filters="sRGB">
<feFlood flood-opacity="0" result="BackgroundImageFix"/>
<feColorMatrix in="SourceAlpha" type="matrix" values="0 0 0 0 0 0 0 0 0 0 0 0 0 0 0 0 0 0 127 0" result="hardAlpha"/>
<feOffset dy="4"/>
<feGaussianBlur stdDeviation="2"/>
<feComposite in2="hardAlpha" operator="out"/>
<feColorMatrix type="matrix" values="0 0 0 0 0 0 0 0 0 0 0 0 0 0 0 0 0 0 0.25 0"/>
<feBlend mode="normal" in2="BackgroundImageFix" result="effect1_dropShadow_8684_14199"/>
<feBlend mode="normal" in="SourceGraphic" in2="effect1_dropShadow_8684_14199" result="shape"/>
</filter>
<filter id="filter1_d_8684_14199" x="0" y="0" width="40" height="40" filterUnits="userSpaceOnUse" color-interpolation-filters="sRGB">
<feFlood flood-opacity="0" result="BackgroundImageFix"/>
<feColorMatrix in="SourceAlpha" type="matrix" values="0 0 0 0 0 0 0 0 0 0 0 0 0 0 0 0 0 0 127 0" result="hardAlpha"/>
<feOffset dx="-1" dy="3"/>
<feGaussianBlur stdDeviation="4"/>
<feComposite in2="hardAlpha" operator="out"/>
<feColorMatrix type="matrix" values="0 0 0 0 0 0 0 0 0 0 0 0 0 0 0 0 0 0 0.15 0"/>
<feBlend mode="normal" in2="BackgroundImageFix" result="effect1_dropShadow_8684_14199"/>
<feBlend mode="normal" in="SourceGraphic" in2="effect1_dropShadow_8684_14199" result="shape"/>
</filter>
<linearGradient id="paint0_linear_8684_14199" x1="5.22581" y1="11.2308" x2="36.6525" y2="15.7125" gradientUnits="userSpaceOnUse">
<stop stop-color="#634FA3"/>
<stop offset="1" stop-color="#79B7D9"/>
</linearGradient>
<clipPath id="clip0_8684_14199">
<rect width="18" height="17" fill="white" transform="translate(12 9)"/>
</clipPath>
</defs>
</svg>
