<svg width="37" height="36" viewBox="0 0 37 36" fill="none" xmlns="http://www.w3.org/2000/svg">
<path d="M26.6498 30C28.638 30 30.2498 28.3883 30.2498 26.4C30.2498 24.4118 28.638 22.8 26.6498 22.8C24.6616 22.8 23.0498 24.4118 23.0498 26.4C23.0498 28.3883 24.6616 30 26.6498 30Z" fill="#92D8FF"/>
<path d="M21.8499 7.98V11.22C21.8499 12.3117 20.9616 13.2 19.8699 13.2H16.6299C15.5382 13.2 14.6499 12.3117 14.6499 11.22V7.98C14.6499 6.8883 15.5382 6 16.6299 6H19.8699C20.9616 6 21.8499 6.8883 21.8499 7.98Z" fill="white"/>
<path d="M21.8499 16.38V19.62C21.8499 20.7117 20.9616 21.6 19.8699 21.6H16.6299C15.5382 21.6 14.6499 20.7117 14.6499 19.62V16.38C14.6499 15.2883 15.5382 14.4 16.6299 14.4H19.8699C20.9616 14.4 21.8499 15.2883 21.8499 16.38Z" fill="white"/>
<path d="M21.8499 24.78V28.02C21.8499 29.1117 20.9616 30 19.8699 30H16.6299C15.5382 30 14.6499 29.1117 14.6499 28.02V24.78C14.6499 23.6883 15.5382 22.8 16.6299 22.8H19.8699C20.9616 22.8 21.8499 23.6883 21.8499 24.78Z" fill="white"/>
<path d="M30.2498 16.38V19.62C30.2498 20.7117 29.3615 21.6 28.2698 21.6H25.0298C23.9381 21.6 23.0498 20.7117 23.0498 19.62V16.38C23.0498 15.2883 23.9381 14.4 25.0298 14.4H28.2698C29.3615 14.4 30.2498 15.2883 30.2498 16.38Z" fill="white"/>
<path d="M13.45 16.38V19.62C13.45 20.7117 12.5617 21.6 11.47 21.6H8.23C7.1383 21.6 6.25 20.7117 6.25 19.62V16.38C6.25 15.2883 7.1383 14.4 8.23 14.4H11.47C12.5617 14.4 13.45 15.2883 13.45 16.38Z" fill="white"/>
<path d="M13.45 24.78V28.02C13.45 29.1117 12.5617 30 11.47 30H8.23C7.1383 30 6.25 29.1117 6.25 28.02V24.78C6.25 23.6883 7.1383 22.8 8.23 22.8H11.47C12.5617 22.8 13.45 23.6883 13.45 24.78Z" fill="white"/>
</svg>
