<svg width="37" height="36" viewBox="0 0 37 36" fill="none" xmlns="http://www.w3.org/2000/svg">
<path fill-rule="evenodd" clip-rule="evenodd" d="M21.3676 2.84499C19.7785 2.41918 18.1236 3.37467 17.6977 4.96382C17.5662 5.45475 17.5793 5.94814 17.6894 6.41361C13.8483 6.55832 10.3605 9.184 9.31753 13.0765L7.94945 18.1822L5.44436 20.9954C3.98897 22.634 4.80307 25.3171 6.91725 25.8836L22.3703 30.0242C24.4845 30.5907 26.5311 28.6741 26.09 26.5274L25.3271 22.8386L26.6951 17.7328C27.7378 13.8415 26.0266 9.82516 22.7739 7.77801C23.1037 7.42995 23.3642 7.00913 23.4959 6.51745C23.9217 4.92828 22.9568 3.2708 21.3676 2.84499ZM20.852 4.76955C21.3969 4.91557 21.7079 5.45425 21.5619 5.99924C21.4159 6.54422 20.8792 6.84768 20.3343 6.70165C19.7893 6.55562 19.4838 6.02651 19.6298 5.48153C19.7759 4.93655 20.307 4.62352 20.852 4.76955ZM10.2878 28.8596C10.8589 30.2636 12.0388 31.4036 13.6069 31.8238C15.1749 32.2439 16.7667 31.8466 17.9634 30.9162L10.2878 28.8596Z" fill="#B2B2B2"/>
</svg>
