<svg width="20" height="20" viewBox="0 0 20 20" fill="none" xmlns="http://www.w3.org/2000/svg">
<g clip-path="url(#clip0_138_85)">
<path d="M10 2C14.4184 2 18 5.5816 18 10C18 14.4184 14.4184 18 10 18C5.5816 18 2 14.4184 2 10C2 5.5816 5.5816 2 10 2ZM11.7656 7.4696L10.008 9.224L8.252 7.4696C8.16054 7.37808 8.03953 7.32205 7.91058 7.3115C7.78163 7.30095 7.65312 7.33657 7.548 7.412L7.4808 7.4696C7.3786 7.5719 7.32119 7.71059 7.32119 7.8552C7.32119 7.99981 7.3786 8.1385 7.4808 8.2408L9.2368 9.9952L7.4808 11.7496C7.37843 11.8519 7.32087 11.9906 7.3208 12.1353C7.32076 12.207 7.33483 12.2779 7.36222 12.3441C7.3896 12.4103 7.42976 12.4705 7.4804 12.5212C7.53104 12.5719 7.59116 12.6121 7.65735 12.6396C7.72353 12.667 7.79447 12.6812 7.86612 12.6812C8.01082 12.6813 8.14963 12.6239 8.252 12.5216L10.008 10.7656L11.7656 12.5216C11.9576 12.7136 12.256 12.732 12.4696 12.5784L12.5368 12.5208C12.639 12.4185 12.6964 12.2798 12.6964 12.1352C12.6964 11.9906 12.639 11.8519 12.5368 11.7496L10.78 9.9952L12.536 8.2408C12.6307 8.13716 12.6819 8.00098 12.6788 7.8606C12.6756 7.72022 12.6185 7.58644 12.5193 7.4871C12.42 7.38776 12.2863 7.3305 12.1459 7.32724C12.0056 7.32399 11.8693 7.37497 11.7656 7.4696V7.4696Z" fill="#6477BA"/>
</g>
<defs>
<clipPath id="clip0_138_85">
<rect width="16" height="16" fill="white" transform="translate(2 2)"/>
</clipPath>
</defs>
</svg>
