<svg width="24" height="24" viewBox="0 0 24 24" fill="none" xmlns="http://www.w3.org/2000/svg">
<path d="M2 7.67788C2 6.19969 3.17327 5 4.61891 5H20.3324C21.778 5 22.9513 6.19969 22.9513 7.67788V11.0245C22.6813 10.8286 22.3835 10.6764 22.0683 10.5731L21.4548 10.3741V7.67788C21.4548 7.3735 21.3365 7.08159 21.126 6.86636C20.9155 6.65113 20.6301 6.53022 20.3324 6.53022H4.61891C4.32123 6.53022 4.03575 6.65113 3.82526 6.86636C3.61477 7.08159 3.49652 7.3735 3.49652 7.67788V17.6243C3.49652 18.2578 3.99935 18.772 4.61891 18.772H7.98608V17.2418C7.98608 16.8359 8.14375 16.4467 8.4244 16.1597C8.70505 15.8728 9.0857 15.7115 9.4826 15.7115H15.4687C15.8656 15.7115 16.2462 15.8728 16.5269 16.1597C16.8075 16.4467 16.9652 16.8359 16.9652 17.2418V17.5554C16.5202 17.5474 16.0803 17.6534 15.6856 17.8637C15.2908 18.0741 14.9539 18.3821 14.7055 18.7597L13.9856 19.8401L13.8779 20.0237L13.8584 20.0574C13.8167 20.1371 13.7788 20.2188 13.7447 20.3022H4.61891C3.92433 20.3022 3.2582 20.0201 2.76706 19.5179C2.27592 19.0157 2 18.3345 2 17.6243V7.67788Z" fill="url(#paint0_linear_8700_16168)"/>
<path d="M22.8795 13.372C22.9578 13.7129 22.9985 14.0717 23 14.4467V14.4882C22.9955 15.7839 22.5257 17.2766 21.5907 18.9651C21.395 19.3209 21.1962 19.6529 20.9929 19.9613C19.9435 21.5638 18.8127 22.551 17.5992 22.9246C17.3228 23.0087 17.0294 23.0226 16.7461 22.9651C16.4629 22.9076 16.199 22.7804 15.979 22.5955L15.8586 22.4873L15.3933 22.0278C15.1971 21.829 15.0703 21.5738 15.0313 21.2992C14.9923 21.0247 15.0432 20.745 15.1765 20.5009L15.2458 20.3912L15.9489 19.3743C16.0649 19.2038 16.2246 19.0666 16.4118 18.9766C16.599 18.8865 16.8071 18.8467 17.0149 18.8613C17.0601 18.8643 17.1068 18.8717 17.1535 18.8806L17.2769 18.9147L18.5733 19.3402C19.0913 18.9547 19.5219 18.4685 19.8682 17.8844C20.1648 17.3834 20.3575 16.8749 20.4494 16.359L20.487 16.1011L19.4075 15.0931C19.2327 14.9261 19.1084 14.7146 19.0483 14.4822C18.9882 14.2499 18.9948 14.0056 19.0672 13.7767L19.1124 13.6507L19.6032 12.5137C19.7042 12.2617 19.8915 12.0525 20.1326 11.922C20.3737 11.7916 20.6535 11.7481 20.9237 11.7992L21.0396 11.8288L21.6524 12.0215C22.2622 12.2142 22.7275 12.7271 22.878 13.3705L22.8795 13.372Z" fill="url(#paint1_linear_8700_16168)"/>
<path d="M15.4685 11.121C15.4685 11.9327 15.1532 12.7111 14.5919 13.285C14.0306 13.859 13.2693 14.1814 12.4755 14.1814C11.6817 14.1814 10.9204 13.859 10.3591 13.285C9.79776 12.7111 9.48242 11.9327 9.48242 11.121C9.48242 10.3093 9.79776 9.53087 10.3591 8.95693C10.9204 8.38298 11.6817 8.06055 12.4755 8.06055C13.2693 8.06055 14.0306 8.38298 14.5919 8.95693C15.1532 9.53087 15.4685 10.3093 15.4685 11.121Z" fill="url(#paint2_linear_8700_16168)"/>
<defs>
<linearGradient id="paint0_linear_8700_16168" x1="-1.29476" y1="8.97268" x2="25.6697" y2="14.2377" gradientUnits="userSpaceOnUse">
<stop stop-color="#634FA3"/>
<stop offset="1" stop-color="#79B7D9"/>
</linearGradient>
<linearGradient id="paint1_linear_8700_16168" x1="13.7634" y1="14.6916" x2="24.3186" y2="15.7623" gradientUnits="userSpaceOnUse">
<stop stop-color="#634FA3"/>
<stop offset="1" stop-color="#79B7D9"/>
</linearGradient>
<linearGradient id="paint2_linear_8700_16168" x1="8.54106" y1="9.64962" x2="16.3863" y2="10.7438" gradientUnits="userSpaceOnUse">
<stop stop-color="#634FA3"/>
<stop offset="1" stop-color="#79B7D9"/>
</linearGradient>
</defs>
</svg>
