<svg width="24" height="24" viewBox="0 0 24 24" fill="none" xmlns="http://www.w3.org/2000/svg">
<rect width="24" height="24" rx="12" fill="url(#paint0_linear_5991_6532)"/>
<path d="M18.0002 7.71434C18.0002 8.62365 17.639 9.49572 16.996 10.1387C16.353 10.7817 15.481 11.1429 14.5716 11.1429C13.6623 11.1429 12.7903 10.7817 12.1473 10.1387C11.5043 9.49572 11.1431 8.62365 11.1431 7.71434C11.1431 6.80502 11.5043 5.93295 12.1473 5.28997C12.7903 4.64699 13.6623 4.28577 14.5716 4.28577C15.481 4.28577 16.353 4.64699 16.996 5.28997C17.639 5.93295 18.0002 6.80502 18.0002 7.71434V7.71434ZM16.0479 6.0696C15.9927 6.03653 15.9315 6.01465 15.8679 6.00522C15.8043 5.99579 15.7394 5.99899 15.677 6.01464C15.6146 6.03028 15.5559 6.05807 15.5042 6.09641C15.4525 6.13475 15.4089 6.1829 15.3759 6.23809L14.2298 8.1483L13.6939 7.61246C13.602 7.52049 13.4772 7.46882 13.3471 7.46882C13.2171 7.46882 13.0923 7.52049 13.0004 7.61246C12.9084 7.70443 12.8567 7.82917 12.8567 7.95924C12.8567 8.0893 12.9084 8.21404 13.0004 8.30601L13.7586 9.06324C13.8375 9.14231 13.9334 9.20234 14.039 9.23877C14.1446 9.2752 14.2571 9.28706 14.368 9.27346C14.4789 9.25986 14.5852 9.22115 14.6789 9.16028C14.7726 9.09941 14.8511 9.01798 14.9086 8.92217L16.2164 6.7416C16.2494 6.68642 16.2713 6.62526 16.2808 6.56162C16.2902 6.49798 16.287 6.4331 16.2713 6.3707C16.2557 6.30829 16.2279 6.24958 16.1896 6.19792C16.1512 6.14626 16.1031 6.10266 16.0479 6.0696V6.0696Z" fill="white"/>
<path fill-rule="evenodd" clip-rule="evenodd" d="M17.1426 11.1432C16.4264 11.6812 15.536 12 14.5712 12C12.2043 12 10.2855 10.0813 10.2855 7.71433C10.2855 6.74955 10.6043 5.85922 11.1423 5.14294H8.99979C8.43147 5.14294 7.88643 5.36871 7.48456 5.77059C7.0827 6.17246 6.85693 6.71752 6.85693 7.28585V18.429C6.857 18.508 6.87891 18.5855 6.92025 18.6528C6.96158 18.7201 7.02073 18.7748 7.09115 18.8106C7.16158 18.8464 7.24054 18.8621 7.31931 18.8559C7.39808 18.8496 7.47359 18.8217 7.53751 18.7753L11.9998 15.5301L16.4621 18.7753C16.526 18.8217 16.6015 18.8496 16.6803 18.8559C16.759 18.8621 16.838 18.8464 16.9084 18.8106C16.9789 18.7748 17.038 18.7201 17.0793 18.6528C17.1207 18.5855 17.1426 18.508 17.1426 18.429V12.68V11.1432Z" fill="white"/>
<defs>
<linearGradient id="paint0_linear_5991_6532" x1="-11.5" y1="8" x2="27.5" y2="26.5" gradientUnits="userSpaceOnUse">
<stop stop-color="#AA2261"/>
<stop offset="1" stop-color="#F55155"/>
</linearGradient>
</defs>
</svg>
