<svg width="24" height="24" viewBox="0 0 24 24" fill="none" xmlns="http://www.w3.org/2000/svg">
<path d="M11.7143 2C6.20024 2 1.71423 6.48601 1.71423 12C1.71423 14.279 2.49972 16.4945 3.93136 18.2699L3.71586 21.2858C3.70024 21.5052 3.79399 21.7181 3.96586 21.8552C4.08533 21.9502 4.23214 22 4.3809 22C4.44666 22 4.51274 21.9903 4.57687 21.9704L7.51437 21.0668C8.84478 21.6862 10.2566 22 11.7143 22C17.2283 22 21.7143 17.514 21.7143 12C21.7143 6.48601 17.2283 2 11.7143 2Z" fill="#B2B2B2"/>
<path d="M7.33944 13.4567C8.14485 13.4567 8.79777 12.8038 8.79777 11.9984C8.79777 11.193 8.14485 10.54 7.33944 10.54C6.53402 10.54 5.8811 11.193 5.8811 11.9984C5.8811 12.8038 6.53402 13.4567 7.33944 13.4567Z" fill="white"/>
<path d="M11.7144 13.4567C12.5199 13.4567 13.1728 12.8038 13.1728 11.9984C13.1728 11.193 12.5199 10.54 11.7144 10.54C10.909 10.54 10.2561 11.193 10.2561 11.9984C10.2561 12.8038 10.909 13.4567 11.7144 13.4567Z" fill="white"/>
<path d="M16.0894 13.4567C16.8949 13.4567 17.5478 12.8038 17.5478 11.9984C17.5478 11.193 16.8949 10.54 16.0894 10.54C15.284 10.54 14.6311 11.193 14.6311 11.9984C14.6311 12.8038 15.284 13.4567 16.0894 13.4567Z" fill="white"/>
</svg>
