<svg width="24" height="24" viewBox="0 0 24 24" fill="none" xmlns="http://www.w3.org/2000/svg">
<path d="M19.4245 4.58162C18.4512 3.59873 17.2933 2.81782 16.0174 2.28377C14.7414 1.74972 13.3725 1.47304 11.9892 1.46964C10.606 1.46623 9.23574 1.73617 7.95715 2.26393C6.67856 2.7917 5.51685 3.56689 4.53876 4.54499C3.56067 5.52308 2.78547 6.68478 2.25771 7.96337C1.72994 9.24196 1.46001 10.6122 1.46341 11.9955C1.46682 13.3787 1.74349 14.7476 2.27755 16.0236C2.8116 17.2995 3.5925 18.4574 4.5754 19.4307C5.54866 20.4136 6.70654 21.1945 7.98252 21.7285C9.25849 22.2626 10.6274 22.5393 12.0106 22.5427C13.3939 22.5461 14.7641 22.2761 16.0427 21.7484C17.3213 21.2206 18.483 20.4454 19.4611 19.4673C20.4392 18.4892 21.2144 17.3275 21.7422 16.0489C22.2699 14.7704 22.5399 13.4001 22.5365 12.0169C22.5331 10.6336 22.2564 9.26472 21.7223 7.98874C21.1883 6.71277 20.4074 5.55489 19.4245 4.58162ZM2.99993 12.0062C2.99959 11.2096 3.1052 10.4166 3.31399 9.64788C3.65805 10.3885 4.15774 11.0283 4.49759 11.7882C4.9368 12.7651 6.11618 12.4941 6.63696 13.3501C7.09915 14.1099 6.60556 15.0708 6.95149 15.8658C7.20274 16.4429 7.79525 16.569 8.204 16.9908C8.62165 17.4165 8.61275 17.9996 8.6765 18.5546C8.74843 19.2067 8.86511 19.8531 9.02571 20.4891C9.02571 20.4938 9.02571 20.499 9.02947 20.5037C5.52181 19.2718 2.99993 15.9282 2.99993 12.0062ZM11.9999 21.0062C11.4973 21.006 10.9956 20.964 10.4999 20.8805C10.5051 20.7535 10.5074 20.6349 10.5201 20.5524C10.634 19.8071 11.0071 19.0782 11.5106 18.5204C12.0079 17.9701 12.6895 17.5979 13.1095 16.9735C13.521 16.3641 13.6443 15.5438 13.4746 14.8318C13.2248 13.7799 11.7956 13.4288 11.0249 12.8583C10.582 12.5302 10.1877 12.023 9.60603 11.9818C9.3379 11.963 9.11337 12.0207 8.84759 11.9523C8.60384 11.889 8.41259 11.7577 8.1529 11.7919C7.66774 11.8557 7.36165 12.3741 6.8404 12.3038C6.34587 12.2377 5.83634 11.6588 5.72384 11.1877C5.57946 10.5821 6.05852 10.3857 6.57181 10.3318C6.78603 10.3093 7.02649 10.2849 7.23228 10.3637C7.50321 10.464 7.63118 10.7293 7.87446 10.8633C8.33056 11.1137 8.4229 10.7138 8.35306 10.3088C8.24853 9.70225 8.12665 9.45522 8.66759 9.03756C9.04259 8.74975 9.36321 8.54162 9.30322 8.02459C9.26759 7.72084 9.10118 7.5835 9.25634 7.28116C9.374 7.051 9.69697 6.84334 9.90743 6.706C10.4507 6.35162 12.2348 6.37787 11.5059 5.386C11.2917 5.0949 10.8965 4.57459 10.5215 4.50334C10.0527 4.41475 9.84462 4.93787 9.5179 5.1685C9.1804 5.40709 8.52321 5.67803 8.18525 5.30912C7.73056 4.81272 8.48665 4.65006 8.654 4.30318C8.73134 4.14147 8.654 3.91693 8.52368 3.70553C8.69275 3.63428 8.86462 3.56818 9.03931 3.50725C9.14879 3.58811 9.27866 3.63681 9.41431 3.64787C9.7279 3.6685 10.0237 3.49881 10.2974 3.71256C10.6012 3.94693 10.8201 4.24318 11.2232 4.31631C11.6132 4.38709 12.0262 4.15975 12.1227 3.76037C12.1813 3.51756 12.1227 3.26115 12.0665 3.01037C13.8196 3.02046 15.5312 3.54549 16.9884 4.52022C16.8946 4.48459 16.7826 4.48881 16.6443 4.55303C16.3598 4.68522 15.9567 5.02178 15.9234 5.35553C15.8854 5.73428 16.4442 5.78772 16.7095 5.78772C17.1079 5.78772 17.5115 5.60959 17.3831 5.14928C17.3273 4.94959 17.2513 4.74194 17.129 4.61631C17.4231 4.82038 17.7048 5.04171 17.9728 5.27912C17.9685 5.28334 17.9643 5.28709 17.9601 5.29178C17.6901 5.57303 17.3765 5.79569 17.1918 6.13787C17.0615 6.37881 16.9148 6.49319 16.6509 6.55553C16.5056 6.58975 16.3396 6.6024 16.2178 6.6999C15.8784 6.96709 16.0715 7.60928 16.3931 7.80194C16.7995 8.04522 17.4023 7.93084 17.7088 7.5835C17.9484 7.31162 18.0895 6.83959 18.5203 6.84006C18.7099 6.83967 18.8921 6.91392 19.0274 7.04678C19.2056 7.23147 19.1704 7.40397 19.2084 7.63459C19.2754 8.04428 19.6368 7.82209 19.8567 7.61537C20.0169 7.90057 20.1615 8.19429 20.2898 8.49522C20.0479 8.8435 19.8557 9.22319 19.274 8.81725C18.9257 8.57397 18.7115 8.221 18.2742 8.11131C17.8921 8.01756 17.5007 8.11506 17.1234 8.18022C16.6945 8.25475 16.1859 8.28756 15.8606 8.61241C15.546 8.92553 15.3796 9.34459 15.0449 9.65913C14.3976 10.2685 14.1243 10.9337 14.5434 11.7952C14.9465 12.6235 15.7898 13.073 16.6996 13.014C17.5935 12.9544 18.5221 12.436 18.4963 13.7349C18.487 14.1948 18.5831 14.513 18.7242 14.9401C18.8549 15.3338 18.846 15.7154 18.876 16.1218C18.9046 16.5977 18.979 17.0697 19.0982 17.5313C18.258 18.6131 17.1817 19.4885 15.9515 20.0908C14.7213 20.693 13.3697 21.0061 11.9999 21.0062Z" fill="#6477BA"/>
</svg>
