<svg width="24" height="24" viewBox="0 0 24 24" fill="none" xmlns="http://www.w3.org/2000/svg">
<path d="M19.2041 9.19046C17.6317 4.60892 12.4856 6.65204 11.9996 8.94281C11.342 6.49726 6.33883 4.67084 4.79499 9.19046C3.07962 14.2054 11.3992 18.694 11.9996 19.437C12.6 18.8488 20.9195 14.1125 19.2041 9.19046Z" fill="#D41B48"/>
<path d="M21.3336 7.50002C21.1336 6.86668 20.8003 6.30002 20.3336 5.83335C19.9003 5.36668 19.3336 5.00002 18.7669 4.76668C18.4669 4.63335 18.1669 4.56668 17.8669 4.50002C17.7003 4.46668 17.5669 4.46668 17.4003 4.43335H16.9336L17.3336 4.63335L17.7336 4.83335C18.0003 4.96668 18.2669 5.10002 18.5003 5.26668C19.0003 5.56668 19.4336 5.93335 19.8336 6.33335C20.2336 6.73335 20.5336 7.20002 20.8336 7.73335C20.9669 8.00002 21.1003 8.26669 21.2003 8.53335C21.2669 8.66669 21.3003 8.83335 21.3669 8.96669L21.5336 9.40002C21.5669 9.23335 21.5669 9.06669 21.5669 8.93335C21.5669 8.76669 21.5669 8.60002 21.5336 8.46669C21.5003 8.13335 21.4336 7.80002 21.3336 7.50002" fill="#FFAFAF"/>
<path d="M22.0005 6.60008C21.9671 6.36675 21.9338 6.13342 21.8671 5.90008C21.7338 5.43342 21.4671 5.00008 21.1338 4.63342C20.8005 4.26675 20.4005 4.00008 19.9671 3.86675C19.7338 3.80008 19.5338 3.73341 19.3005 3.70008C19.2005 3.70008 19.0671 3.66675 18.9671 3.66675C18.8671 3.66675 18.7338 3.66675 18.6338 3.70008C18.7338 3.76675 18.8338 3.80008 18.9338 3.86675C19.0005 3.90008 19.1005 3.96675 19.2005 4.00008C19.4005 4.10008 19.5671 4.20008 19.7338 4.33342C20.0671 4.56675 20.4005 4.83342 20.6671 5.10008C20.9338 5.40008 21.1671 5.73342 21.4005 6.10008C21.5005 6.26675 21.6005 6.46675 21.7005 6.66675C21.7338 6.76675 21.8005 6.86675 21.8338 6.96675C21.8671 7.06675 21.9338 7.16675 21.9671 7.30008C22.0005 7.16675 22.0005 7.06675 22.0005 6.93342V6.60008" fill="#FFAFAF"/>
<path d="M2.76693 8.53335C2.86693 8.26669 3.00026 7.96669 3.13359 7.73335C3.40026 7.20002 3.73359 6.73335 4.13359 6.33335C4.53359 5.93335 4.96693 5.56668 5.46693 5.26668C5.70026 5.10002 5.96693 4.96668 6.2336 4.83335L6.6336 4.63335L7.0336 4.43335H6.56693C6.40026 4.43335 6.26693 4.46668 6.10026 4.50002C5.80026 4.56668 5.50026 4.63335 5.20026 4.76668C4.6336 5.00002 4.10026 5.36668 3.66693 5.83335C3.23359 6.30002 2.86693 6.86668 2.66693 7.50002C2.56693 7.80002 2.50026 8.13335 2.46693 8.43335C2.43359 8.60002 2.43359 8.76669 2.43359 8.90002C2.43359 9.06669 2.43359 9.23335 2.46693 9.36669L2.63359 8.93335C2.66693 8.80002 2.70026 8.66669 2.76693 8.53335" fill="#FFAFAF"/>
<path d="M3.33333 5.1333C3.6 4.8333 3.93333 4.56663 4.26667 4.3333C4.43333 4.2333 4.63333 4.09997 4.8 3.99997C4.9 3.9333 5 3.89997 5.1 3.8333C5.2 3.76663 5.3 3.7333 5.4 3.66663C5.3 3.66663 5.16667 3.6333 5.06667 3.6333C4.96667 3.6333 4.83333 3.6333 4.73333 3.66663C4.5 3.69997 4.3 3.76663 4.06667 3.8333C3.6 4.0333 3.2 4.29997 2.86667 4.6333C2.53333 4.99997 2.26667 5.4333 2.13333 5.89997C2.06667 6.1333 2.03333 6.36664 2 6.59997V6.96664C2 7.09997 2 7.19997 2.03333 7.3333C2.06667 7.2333 2.13333 7.1333 2.16667 6.99997C2.23333 6.86664 2.26667 6.76664 2.33333 6.66664C2.43333 6.46664 2.53333 6.26664 2.63333 6.09997C2.83333 5.7333 3.06667 5.39997 3.33333 5.1333" fill="#FFAFAF"/>
<path d="M3.93372 14.8333L3.90039 14.8999C4.06706 15.3999 4.33372 15.7999 4.60039 16.1999C4.86706 16.5999 5.20039 16.9333 5.53373 17.2333C5.86706 17.5333 6.23373 17.8333 6.63373 18.0999C7.03373 18.3666 7.46706 18.5666 7.96706 18.6999L8.00039 18.6333C7.33373 17.9666 6.66706 17.3333 6.00039 16.6999C5.30039 16.0999 4.63372 15.4333 3.93372 14.8333" fill="#FFAFAF"/>
<path d="M2.53333 15.8333L2.5 15.8999C2.73333 16.4666 3.03333 16.9333 3.36667 17.3666C3.7 17.7999 4.06667 18.1999 4.46667 18.5666C4.86667 18.9333 5.26667 19.2666 5.73334 19.5999C6.2 19.8999 6.66667 20.1999 7.23334 20.3666L7.26667 20.2999C6.5 19.5333 5.7 18.7999 4.93333 18.0333C4.13333 17.2999 3.33333 16.5333 2.53333 15.8333" fill="#FFAFAF"/>
<path d="M18.4999 17.2333C18.8332 16.8999 19.1665 16.5666 19.4332 16.1999C19.6999 15.8333 19.9665 15.3999 20.1332 14.8999L20.0999 14.8333C19.3999 15.4333 18.7332 16.0999 18.0332 16.6999C17.3665 17.3333 16.6999 17.9666 16.0332 18.6333L16.0665 18.6999C16.5665 18.5666 16.9999 18.3333 17.3999 18.0999C17.7999 17.8333 18.1332 17.5333 18.4999 17.2333" fill="#FFAFAF"/>
<path d="M19.0667 18.0333C18.3001 18.7999 17.5001 19.5333 16.7334 20.2999L16.7667 20.3666C17.3334 20.1666 17.8001 19.8999 18.2667 19.5999C18.7334 19.2999 19.1334 18.9666 19.5334 18.5666C19.9334 18.1999 20.3001 17.7999 20.6334 17.3666C20.9667 16.9333 21.2667 16.4666 21.5001 15.8999L21.4667 15.8333C20.6667 16.5333 19.8667 17.2999 19.0667 18.0333" fill="#FFAFAF"/>
</svg>
