<svg width="24" height="24" viewBox="0 0 24 24" fill="none" xmlns="http://www.w3.org/2000/svg">
<path d="M11.3766 22.0004C11.0238 21.9514 10.6665 21.9233 10.319 21.8515C6.22559 21.0087 3.51584 18.6002 2.3674 14.5813C1.087 10.1018 3.24735 5.28464 7.38383 3.14519C11.0343 1.2566 15.3687 1.75047 18.5011 4.41057C18.5442 4.44715 18.5906 4.48046 18.6579 4.53273C18.6638 4.45237 18.6703 4.3975 18.671 4.34263C18.6716 3.85464 18.669 3.36599 18.6723 2.878C18.6762 2.36976 19.0231 2.00328 19.4954 2.00001C19.969 1.9974 20.327 2.36192 20.3296 2.86624C20.3342 3.69981 20.3407 4.53273 20.3276 5.36629C20.3067 6.73815 19.2367 7.80624 17.8629 7.82715C17.03 7.83956 16.1964 7.83368 15.3635 7.82845C14.8611 7.82584 14.4966 7.46393 14.5018 6.98966C14.5064 6.52519 14.8703 6.17438 15.3641 6.17112C16.1324 6.16654 16.9 6.16981 17.6682 6.16916C17.7368 6.16916 17.8054 6.16262 17.9315 6.15609C17.7198 5.96207 17.5539 5.79941 17.3775 5.64981C12.4878 1.51006 4.92036 4.20805 3.75494 10.5062C2.97102 14.7433 5.52921 18.8798 9.66765 20.0674C14.3209 21.402 19.1478 18.508 20.1434 13.7693C20.2617 13.2068 20.2845 12.6221 20.325 12.0459C20.3642 11.4965 20.7196 11.1372 21.2376 11.1758C21.5577 11.1993 21.7805 11.3705 21.9229 11.654C21.9484 11.7043 21.9745 11.7546 22 11.8055V12.5868C21.9889 12.643 21.9719 12.6992 21.968 12.756C21.9125 13.5713 21.7687 14.3716 21.4911 15.1392C20.1539 18.8327 17.5591 21.0773 13.7035 21.8502C13.3488 21.9214 12.9856 21.9521 12.6263 22.0017H11.3766V22.0004Z" fill="#6477BA"/>
<path d="M11.1742 9.91741C11.1742 9.21514 11.1677 8.51223 11.1768 7.80997C11.1821 7.38796 11.4983 7.05153 11.9085 7.00449C12.3096 6.95811 12.6924 7.21092 12.7996 7.60484C12.8296 7.71525 12.8316 7.8361 12.8316 7.95238C12.8335 9.1165 12.8355 10.2813 12.8296 11.4454C12.829 11.5956 12.876 11.6982 12.9805 11.8014C13.6697 12.4828 14.3517 13.1713 15.0383 13.8553C15.2663 14.0826 15.376 14.3492 15.3035 14.6686C15.1611 15.2957 14.421 15.5348 13.9382 15.1083C13.7488 14.9404 13.5763 14.7529 13.3966 14.5739C12.7708 13.9487 12.1509 13.3177 11.5179 12.6997C11.2722 12.4606 11.1605 12.1927 11.1684 11.8491C11.1827 11.2056 11.1723 10.5615 11.1723 9.91741H11.1736H11.1742Z" fill="#6477BA"/>
</svg>
