<svg width="24" height="24" viewBox="0 0 24 24" fill="none" xmlns="http://www.w3.org/2000/svg">
<path d="M13.2543 15.0205L13.1727 15.0359V15.1188V17.8235V17.9235H13.2727H14.5455C15.1887 17.9235 15.7182 18.4595 15.7182 19.1176C15.7182 19.7758 15.1887 20.3118 14.5455 20.3118H13.2727H13.1727V20.4118V21.7059C13.1727 22.364 12.6432 22.9 12 22.9C11.3568 22.9 10.8273 22.364 10.8273 21.7059V20.4118V20.3118H10.7273H9.45455C8.81134 20.3118 8.28182 19.7758 8.28182 19.1176C8.28182 18.4595 8.81134 17.9235 9.45455 17.9235H10.7273H10.8273V17.8235V15.1188V15.0359L10.7458 15.0205C9.1603 14.7225 7.72728 13.8691 6.69578 12.6081C5.66425 11.3472 5.09951 9.75835 5.1 8.11768V8.11765C5.1 4.23718 8.1877 1.1 12 1.1C15.8123 1.1 18.9 4.23718 18.9 8.11765V8.11768C18.9005 9.75835 18.3358 11.3472 17.3042 12.6081C16.2727 13.8691 14.8397 14.7225 13.2543 15.0205ZM16.5545 8.11765C16.5545 5.56635 14.5132 3.48824 12 3.48824C9.48684 3.48824 7.44546 5.56635 7.44546 8.11765C7.44546 10.6689 9.48684 12.7471 12 12.7471C14.5132 12.7471 16.5545 10.6689 16.5545 8.11765Z" fill="white" stroke="#F6F6F6" stroke-width="0.2"/>
</svg>
