<svg width="24" height="24" viewBox="0 0 24 24" fill="none" xmlns="http://www.w3.org/2000/svg">
<path d="M12 3.58824C14.4564 3.58824 16.4545 5.62 16.4545 8.11765C16.4545 10.6153 14.4564 12.6471 12 12.6471C9.54364 12.6471 7.54546 10.6153 7.54546 8.11765C7.54546 5.62 9.54364 3.58824 12 3.58824ZM13.2727 15.1188C14.8816 14.8164 16.3354 13.9504 17.3816 12.6714C18.4279 11.3925 19.0005 9.78124 19 8.11765C19 4.18353 15.8691 1 12 1C8.13091 1 5 4.18353 5 8.11765C4.9995 9.78124 5.57212 11.3925 6.61838 12.6714C7.66464 13.9504 9.11844 14.8164 10.7273 15.1188V17.8235H9.45455C8.75455 17.8235 8.18182 18.4059 8.18182 19.1176C8.18182 19.8294 8.75455 20.4118 9.45455 20.4118H10.7273V21.7059C10.7273 22.4176 11.3 23 12 23C12.7 23 13.2727 22.4176 13.2727 21.7059V20.4118H14.5455C15.2455 20.4118 15.8182 19.8294 15.8182 19.1176C15.8182 18.4059 15.2455 17.8235 14.5455 17.8235H13.2727V15.1188Z" fill="#B6B6B6"/>
</svg>
