<svg width="21" height="20" viewBox="0 0 21 20" fill="none" xmlns="http://www.w3.org/2000/svg">
<g clip-path="url(#clip0_8684_14145)">
<path d="M5.04301 9.01785C4.15512 9.01785 3.26723 9.02113 2.37934 9.01703C1.25157 9.0113 0.50611 8.2799 0.503612 7.16929C0.499447 5.39526 0.499447 3.62205 0.503612 1.84802C0.506943 0.737414 1.25157 0.00601676 2.38184 0.00355966C4.1851 -0.000535512 5.98837 -0.000535512 7.79163 0.00355966C8.92024 0.00601676 9.66486 0.739053 9.66736 1.85048C9.67153 3.62451 9.67153 5.39772 9.66736 7.17175C9.66486 8.28236 8.9194 9.01212 7.78914 9.01703C6.87376 9.02113 5.95838 9.01785 5.04218 9.01785H5.04301Z" fill="url(#paint0_linear_8684_14145)"/>
<path d="M20.4991 4.5168C20.4991 5.40382 20.5033 6.29083 20.4983 7.17702C20.4924 8.28436 19.747 9.0133 18.6134 9.01576C16.8101 9.01985 15.0069 9.01985 13.2036 9.01576C12.0783 9.01248 11.3362 8.27617 11.3337 7.16228C11.3295 5.38825 11.3295 3.61504 11.3337 1.84102C11.3362 0.733682 12.085 0.00474154 13.2177 0.00228444C15.021 -0.000991698 16.8243 -0.00181073 18.6275 0.00228444C19.7528 0.00474154 20.4924 0.741053 20.4974 1.85576C20.5016 2.74277 20.4974 3.62979 20.4974 4.51598L20.4991 4.5168Z" fill="url(#paint1_linear_8684_14145)"/>
<path d="M5.06515 19.9986C4.1631 19.9986 3.26188 20.0027 2.35983 19.9978C1.25622 19.9912 0.506592 19.2566 0.50326 18.173C0.498262 16.3858 0.498262 14.5979 0.50326 12.8108C0.506592 11.7255 1.25538 10.9876 2.35817 10.9851C4.17559 10.9802 5.99218 10.9802 7.80961 10.9851C8.91322 10.9884 9.66285 11.7239 9.66618 12.8091C9.67201 14.5963 9.67201 16.3842 9.66618 18.1713C9.66285 19.2574 8.91405 19.9912 7.81127 19.9978C6.8959 20.0035 5.98052 19.9986 5.06431 19.9986H5.06515Z" fill="url(#paint2_linear_8684_14145)"/>
<path d="M15.8941 19.9986C13.3845 19.9912 11.3297 17.9559 11.333 15.48C11.3363 12.9917 13.417 10.9695 15.9582 10.9835C18.4636 10.9974 20.5101 13.0433 20.4984 15.5226C20.4868 17.9895 18.4128 20.006 15.8941 19.9986Z" fill="url(#paint3_linear_8684_14145)"/>
</g>
<defs>
<linearGradient id="paint0_linear_8684_14145" x1="-0.941568" y1="2.34186" x2="11.0579" y2="4.08182" gradientUnits="userSpaceOnUse">
<stop stop-color="#634FA3"/>
<stop offset="1" stop-color="#79B7D9"/>
</linearGradient>
<linearGradient id="paint1_linear_8684_14145" x1="9.88848" y1="2.34107" x2="21.8882" y2="4.08096" gradientUnits="userSpaceOnUse">
<stop stop-color="#634FA3"/>
<stop offset="1" stop-color="#79B7D9"/>
</linearGradient>
<linearGradient id="paint2_linear_8684_14145" x1="-0.942708" y1="13.3229" x2="11.0581" y2="15.0632" gradientUnits="userSpaceOnUse">
<stop stop-color="#634FA3"/>
<stop offset="1" stop-color="#79B7D9"/>
</linearGradient>
<linearGradient id="paint3_linear_8684_14145" x1="9.89166" y1="13.3239" x2="21.8853" y2="15.0628" gradientUnits="userSpaceOnUse">
<stop stop-color="#634FA3"/>
<stop offset="1" stop-color="#79B7D9"/>
</linearGradient>
<clipPath id="clip0_8684_14145">
<rect width="20" height="20" fill="white" transform="translate(0.5)"/>
</clipPath>
</defs>
</svg>
