<svg width="25" height="24" viewBox="0 0 25 24" fill="none" xmlns="http://www.w3.org/2000/svg">
<path fill-rule="evenodd" clip-rule="evenodd" d="M12.5001 1.71411C6.81955 1.71411 2.21436 6.3193 2.21436 11.9998C2.21436 17.6803 6.81955 22.2855 12.5001 22.2855C18.1806 22.2855 22.7858 17.6803 22.7858 11.9998C22.7858 6.3193 18.1806 1.71411 12.5001 1.71411ZM16.9584 10.2606C17.0405 10.1668 17.103 10.0574 17.1423 9.93909C17.1815 9.82074 17.1967 9.69574 17.1869 9.57144C17.1771 9.44714 17.1425 9.32606 17.0852 9.21532C17.0279 9.10457 16.9491 9.0064 16.8533 8.92658C16.7575 8.84676 16.6467 8.7869 16.5275 8.75053C16.4082 8.71415 16.2829 8.702 16.1589 8.71478C16.0348 8.72755 15.9146 8.76501 15.8053 8.82493C15.6959 8.88486 15.5997 8.96604 15.5222 9.06372L11.5014 13.8877L9.4209 11.8063C9.24454 11.6359 9.00834 11.5417 8.76317 11.5438C8.518 11.5459 8.28347 11.6443 8.11011 11.8176C7.93674 11.991 7.8384 12.2255 7.83627 12.4707C7.83414 12.7159 7.92839 12.9521 8.09872 13.1284L10.9039 15.9336C10.9958 16.0255 11.1058 16.0971 11.2269 16.1441C11.348 16.191 11.4776 16.2122 11.6073 16.2063C11.7371 16.2004 11.8642 16.1676 11.9806 16.1098C12.0969 16.0521 12.2 15.9708 12.2831 15.871L16.9584 10.2606Z" fill="white"/>
</svg>
