<svg width="24" height="24" viewBox="0 0 24 24" fill="none" xmlns="http://www.w3.org/2000/svg">
<path d="M12 2C10.0222 2 8.0888 2.58649 6.4443 3.6853C4.79981 4.78412 3.51809 6.3459 2.76121 8.17316C2.00433 10.0004 1.8063 12.0111 2.19215 13.9509C2.578 15.8907 3.53041 17.6725 4.92894 19.0711C6.32746 20.4696 8.10929 21.422 10.0491 21.8078C11.9889 22.1937 13.9996 21.9957 15.8268 21.2388C17.6541 20.4819 19.2159 19.2002 20.3147 17.5557C21.4135 15.9112 22 13.9778 22 12C21.997 9.34875 20.9425 6.80696 19.0678 4.93224C17.1931 3.05753 14.6513 2.003 12 2ZM12 20.6667C10.6233 20.6667 9.18201 18.892 8.46667 16H15.5333C14.818 18.892 13.3767 20.6667 12 20.6667ZM8.19601 14.6667C7.93467 12.8985 7.93467 11.1015 8.19601 9.33333H15.804C15.9362 10.216 16.0018 11.1074 16 12C16.0018 12.8925 15.9362 13.784 15.804 14.6667H8.19601ZM3.33334 12C3.33382 11.0944 3.47691 10.1945 3.75734 9.33333H6.85734C6.60312 11.102 6.60312 12.898 6.85734 14.6667H3.75734C3.47691 13.8055 3.33382 12.9056 3.33334 12ZM12 3.33333C13.3767 3.33333 14.818 5.108 15.5333 8H8.46667C9.18201 5.108 10.6233 3.33333 12 3.33333ZM17.1427 9.33333H20.2427C20.8079 11.0662 20.8079 12.9338 20.2427 14.6667H17.1427C17.2691 13.7834 17.3328 12.8923 17.3333 12C17.3328 11.1077 17.2691 10.2166 17.1427 9.33333ZM19.6807 8H16.9027C16.606 6.55001 16.0243 5.17338 15.1913 3.95C17.1234 4.72054 18.7159 6.15718 19.6807 8ZM8.80867 3.95C7.97572 5.17338 7.39402 6.55001 7.09734 8H4.31934C5.28409 6.15718 6.87658 4.72054 8.80867 3.95ZM4.31934 16H7.09734C7.39402 17.45 7.97572 18.8266 8.80867 20.05C6.87658 19.2795 5.28409 17.8428 4.31934 16ZM15.1913 20.05C16.0243 18.8266 16.606 17.45 16.9027 16H19.6807C18.7159 17.8428 17.1234 19.2795 15.1913 20.05Z" fill="url(#paint0_linear_8700_16165)" stroke="url(#paint1_linear_8700_16165)" stroke-width="0.3"/>
<defs>
<linearGradient id="paint0_linear_8700_16165" x1="-1.14516" y1="7.19231" x2="25.0438" y2="10.9271" gradientUnits="userSpaceOnUse">
<stop stop-color="#634FA3"/>
<stop offset="1" stop-color="#79B7D9"/>
</linearGradient>
<linearGradient id="paint1_linear_8700_16165" x1="-1.14516" y1="7.19231" x2="25.0438" y2="10.9271" gradientUnits="userSpaceOnUse">
<stop stop-color="#634FA3"/>
<stop offset="1" stop-color="#79B7D9"/>
</linearGradient>
</defs>
</svg>
