<svg width="24" height="24" viewBox="0 0 24 24" fill="none" xmlns="http://www.w3.org/2000/svg">
<path d="M7.21813 3.87586C7.22299 3.8789 7.2302 3.88339 7.23959 3.89004C7.23357 3.89881 7.22548 3.90195 7.2233 3.90276C7.2207 3.90372 7.21853 3.90415 7.21739 3.90433V3.87541C7.21763 3.87555 7.21788 3.87571 7.21813 3.87586ZM3.30435 3.90457H7.198C7.19872 3.90501 7.19941 3.90544 7.20003 3.90583C7.20049 3.90612 7.20092 3.90638 7.2013 3.90662C7.20482 3.90882 7.20918 3.91159 7.21448 3.91521C7.23545 3.92954 7.27343 3.95882 7.32533 4.01757C7.43065 4.13678 7.56005 4.33641 7.6964 4.55392C7.70681 4.57052 7.71725 4.58723 7.72776 4.60403C7.85394 4.80583 7.98794 5.02013 8.15308 5.21044C8.33142 5.41594 8.58364 5.6437 8.95652 5.6437H20.6957C20.9211 5.6437 21.0954 5.81805 21.0954 6.04348V6.94552C20.9694 6.90428 20.8361 6.87804 20.6957 6.87804H3.30435C3.16394 6.87804 3.03062 6.90428 2.90457 6.94552V4.30435C2.90457 4.07864 3.0783 3.90457 3.30435 3.90457ZM3.30435 2.965C2.56954 2.965 1.965 3.57004 1.965 4.30435V8.21739V12.5652V19.9565C1.965 20.6908 2.56954 21.2959 3.30435 21.2959H20.6957C21.4302 21.2959 22.035 20.6911 22.035 19.9565V12.5652V8.21739V6.04348C22.035 5.3089 21.4302 4.70413 20.6957 4.70413H8.98338L8.97097 4.69543C8.9516 4.68159 8.91435 4.65283 8.86322 4.59391C8.75911 4.47393 8.62981 4.27335 8.4928 4.05478C8.48653 4.04478 8.48025 4.03475 8.47395 4.02468C8.3432 3.81592 8.20347 3.59283 8.02912 3.39548C7.84681 3.18912 7.58892 2.965 7.21739 2.965H3.30435ZM8.95652 4.70554V4.72807C8.95235 4.72516 8.94715 4.72149 8.94098 4.71684C8.94295 4.7143 8.94512 4.71221 8.94722 4.71059C8.95082 4.70782 8.95428 4.70633 8.95652 4.70554ZM3.30435 7.81761H20.6957C20.922 7.81761 21.0954 7.99106 21.0954 8.21739V12.5652V19.9565C21.0954 20.1819 20.9211 20.3563 20.6957 20.3563H3.30435C3.0783 20.3563 2.90457 20.1822 2.90457 19.9565V12.5652V8.21739C2.90457 7.99106 3.07801 7.81761 3.30435 7.81761Z" fill="#6477BA" stroke="#6477BA" stroke-width="0.07"/>
</svg>
