<svg width="24" height="24" viewBox="0 0 24 24" fill="none" xmlns="http://www.w3.org/2000/svg">
<path fill-rule="evenodd" clip-rule="evenodd" d="M4.03262 6.87708C3.89578 7.14152 3.81818 7.44373 3.81818 7.76471V16.2353C3.81818 17.2749 4.63221 18.1176 5.63636 18.1176H12C12.5021 18.1176 12.9091 18.539 12.9091 19.0588C12.9091 19.5786 12.5021 20 12 20H5.63636C3.62806 20 2 18.3145 2 16.2353V7.76471C2 5.68552 3.62806 4 5.63636 4H18.3636C20.3719 4 22 5.68552 22 7.76471V11.0588C22 11.5786 21.593 12 21.0909 12C20.5888 12 20.1818 11.5786 20.1818 11.0588V7.76471C20.1818 7.44381 20.1043 7.14167 19.9675 6.87728L13.6569 11.8734C12.679 12.6476 11.3214 12.6476 10.3435 11.8734L4.03262 6.87708ZM18.2311 5.88235H5.7693L11.448 10.3781C11.7739 10.6362 12.2264 10.6362 12.5524 10.3781L18.2311 5.88235ZM19.461 13.6874C19.106 13.3199 18.5304 13.3199 18.1754 13.6874C17.8203 14.055 17.8203 14.6509 18.1754 15.0185L18.8962 15.7647H14.7273C14.2252 15.7647 13.8182 16.1861 13.8182 16.7059C13.8182 17.2257 14.2252 17.6471 14.7273 17.6471H18.8962L18.1754 18.3933C17.8203 18.7609 17.8203 19.3568 18.1754 19.7243C18.5304 20.0919 19.106 20.0919 19.461 19.7243L21.7337 17.3714C22.0888 17.0038 22.0888 16.4079 21.7337 16.0404L19.461 13.6874Z" fill="url(#paint0_linear_8700_16161)"/>
<defs>
<linearGradient id="paint0_linear_8700_16161" x1="-1.14516" y1="8.15385" x2="24.7534" y2="12.7705" gradientUnits="userSpaceOnUse">
<stop stop-color="#634FA3"/>
<stop offset="1" stop-color="#79B7D9"/>
</linearGradient>
</defs>
</svg>
