<svg width="24" height="24" viewBox="0 0 24 24" fill="none" xmlns="http://www.w3.org/2000/svg">
<path d="M8.79605 19.7H15.2045L16.2814 15.7229C17.7453 14.7977 18.8684 13.4233 19.4819 11.8064C20.0954 10.1896 20.166 8.41771 19.6832 6.75735C19.2004 5.09699 18.1902 3.63793 16.8046 2.59965C15.419 1.56136 13.7329 1 12 1C10.2671 1 8.581 1.56136 7.19541 2.59965C5.80981 3.63793 4.79962 5.09699 4.31679 6.75735C3.83396 8.41771 3.9046 10.1896 4.51808 11.8064C5.13156 13.4233 6.25472 14.7977 7.71859 15.7229L8.79605 19.7Z" fill="#FFDAA2"/>
<path d="M16.1726 6.08628C16.1726 6.32861 16.2688 6.56102 16.4402 6.73238C16.6115 6.90373 16.8439 7 17.0863 7C17.3286 7 17.561 6.90373 17.7324 6.73238C17.9037 6.56102 18 6.32861 18 6.08628C17.999 5.26805 17.6736 4.4836 17.095 3.90502C16.5164 3.32644 15.732 3.00097 14.9137 3C14.6714 3 14.439 3.09627 14.2676 3.26762C14.0963 3.43898 14 3.67139 14 3.91372C14 4.15605 14.0963 4.38846 14.2676 4.55982C14.439 4.73117 14.6714 4.82744 14.9137 4.82744C15.2475 4.82785 15.5674 4.96061 15.8034 5.1966C16.0394 5.43259 16.1721 5.75254 16.1726 6.08628Z" fill="white"/>
<path d="M15.3967 19.7C15.551 19.7 15.7038 19.6715 15.8463 19.6163C15.9889 19.561 16.1184 19.48 16.2275 19.3778C16.3366 19.2757 16.4231 19.1544 16.4821 19.021C16.5412 18.8875 16.5716 18.7445 16.5716 18.6C16.5716 18.4555 16.5412 18.3125 16.4821 18.179C16.4231 18.0456 16.3366 17.9243 16.2275 17.8222C16.1184 17.72 15.9889 17.639 15.8463 17.5837C15.7038 17.5285 15.551 17.5 15.3967 17.5H8.60357C8.29198 17.5 7.99315 17.6159 7.77282 17.8222C7.55249 18.0285 7.42871 18.3083 7.42871 18.6C7.42871 18.8917 7.55249 19.1715 7.77282 19.3778C7.99315 19.5841 8.29198 19.7 8.60357 19.7H15.3967Z" fill="#B52648"/>
<rect x="8.57129" y="18.6001" width="6.85714" height="4.4" rx="1" fill="#B52648"/>
</svg>
