<svg width="37" height="36" viewBox="0 0 37 36" fill="none" xmlns="http://www.w3.org/2000/svg">
<path d="M18.7498 3.85718C10.9514 3.85718 4.60693 10.2017 4.60693 18C4.60693 21.2232 5.71783 24.3565 7.74258 26.8674L7.43781 31.1328C7.41571 31.4431 7.5483 31.7442 7.79138 31.938C7.96034 32.0725 8.16797 32.1429 8.37836 32.1429C8.47136 32.1429 8.56482 32.1291 8.65551 32.101L12.81 30.823C14.6915 31.6991 16.6882 32.1429 18.7498 32.1429C26.5482 32.1429 32.8926 25.7984 32.8926 18C32.8926 10.2017 26.5482 3.85718 18.7498 3.85718Z" fill="url(#paint0_linear_10280_11335)"/>
<path d="M12.5625 20.0624C13.7016 20.0624 14.625 19.139 14.625 17.9999C14.625 16.8608 13.7016 15.9374 12.5625 15.9374C11.4234 15.9374 10.5 16.8608 10.5 17.9999C10.5 19.139 11.4234 20.0624 12.5625 20.0624Z" fill="white"/>
<path d="M18.75 20.0624C19.8891 20.0624 20.8125 19.139 20.8125 17.9999C20.8125 16.8608 19.8891 15.9374 18.75 15.9374C17.6109 15.9374 16.6875 16.8608 16.6875 17.9999C16.6875 19.139 17.6109 20.0624 18.75 20.0624Z" fill="white"/>
<path d="M24.9375 20.0624C26.0766 20.0624 27 19.139 27 17.9999C27 16.8608 26.0766 15.9374 24.9375 15.9374C23.7984 15.9374 22.875 16.8608 22.875 17.9999C22.875 19.139 23.7984 20.0624 24.9375 20.0624Z" fill="white"/>
<defs>
<linearGradient id="paint0_linear_10280_11335" x1="0.158777" y1="11.2006" x2="37.1974" y2="16.4826" gradientUnits="userSpaceOnUse">
<stop stop-color="#634FA3"/>
<stop offset="1" stop-color="#79B7D9"/>
</linearGradient>
</defs>
</svg>
