<svg width="21" height="19" viewBox="0 0 21 19" fill="none" xmlns="http://www.w3.org/2000/svg">
<path d="M12.7411 10.1823C12.2713 10.1823 11.8917 10.5332 11.8917 10.9655V14.0985C11.8917 14.5301 11.5111 14.8818 11.0422 14.8818H8.49404V3.13301C8.49404 2.46411 8.03196 1.86649 7.33715 1.64405L7.08572 1.5665H11.0422C11.5111 1.5665 11.8917 1.91818 11.8917 2.34976V4.69951C11.8917 5.13187 12.2713 5.48277 12.7411 5.48277C13.2108 5.48277 13.5905 5.13187 13.5905 4.69951V2.34976C13.5905 1.05426 12.4472 0 11.0422 0H1.91116C1.87888 0 1.8517 0.0133153 1.82027 0.0172316C1.7795 0.0140985 1.74043 0 1.69881 0C0.761915 0 0 0.702577 0 1.5665V15.665C0 16.3339 0.462076 16.9316 1.15689 17.154L6.2686 18.7252C6.44188 18.7746 6.61431 18.7981 6.79523 18.7981C7.73212 18.7981 8.49404 18.0955 8.49404 17.2316V16.4483H11.0422C12.4472 16.4483 13.5905 15.394 13.5905 14.0985V10.9655C13.5905 10.5332 13.2108 10.1823 12.7411 10.1823Z" fill="white"/>
<path d="M20.1366 7.28062L16.7389 4.14761C16.496 3.9236 16.1308 3.85624 15.8131 3.97764C15.4963 4.09905 15.289 4.38494 15.289 4.70137V7.05113H11.8914C11.4225 7.05113 11.042 7.40203 11.042 7.83438C11.042 8.26674 11.4225 8.61763 11.8914 8.61763H15.289V10.9674C15.289 11.2838 15.4963 11.5697 15.8131 11.6911C16.1308 11.8125 16.496 11.7452 16.7389 11.5212L20.1366 8.38814C20.4687 8.08189 20.4687 7.58687 20.1366 7.28062Z" fill="white"/>
</svg>
