<svg width="37" height="36" viewBox="0 0 37 36" fill="none" xmlns="http://www.w3.org/2000/svg">
<path d="M21.4016 3.85718H7.84801C6.05658 3.85718 4.60693 5.30682 4.60693 7.09826V25.3662C4.60693 27.1576 6.05658 28.6072 7.84801 28.6072H16.5459L16.8052 27.1576C16.923 26.4976 17.2295 25.9083 17.7009 25.4251L24.6427 18.4951V7.09826C24.6427 5.30682 23.193 3.85718 21.4016 3.85718V3.85718Z" fill="url(#paint0_linear_10280_11350)"/>
<path d="M19.9283 15.6433H9.32115C8.67058 15.6433 8.14258 15.1153 8.14258 14.4647C8.14258 13.8141 8.67058 13.2861 9.32115 13.2861H19.9283C20.5789 13.2861 21.1069 13.8141 21.1069 14.4647C21.1069 15.1153 20.5789 15.6433 19.9283 15.6433Z" fill="white"/>
<path d="M15.214 20.3575H9.32115C8.67058 20.3575 8.14258 19.8295 8.14258 19.1789C8.14258 18.5284 8.67058 18.0004 9.32115 18.0004H15.214C15.8646 18.0004 16.3926 18.5284 16.3926 19.1789C16.3926 19.8295 15.8646 20.3575 15.214 20.3575Z" fill="white"/>
<path d="M14.0354 10.9289H9.32115C8.67058 10.9289 8.14258 10.4009 8.14258 9.75035C8.14258 9.09978 8.67058 8.57178 9.32115 8.57178H14.0354C14.686 8.57178 15.214 9.09978 15.214 9.75035C15.214 10.4009 14.686 10.9289 14.0354 10.9289Z" fill="white"/>
<path d="M19.3718 32.1427C19.1396 32.1427 18.9133 32.0507 18.7471 31.8834C18.5432 31.6795 18.4513 31.3895 18.502 31.1043L19.1266 27.5627C19.1573 27.3847 19.2445 27.2197 19.3718 27.0913L28.1227 18.3415C29.1975 17.2643 30.2535 17.5554 30.831 18.1329L32.2889 19.5908C33.0939 20.3946 33.0939 21.7028 32.2889 22.5078L23.538 31.2587C23.4107 31.3872 23.2457 31.4732 23.0666 31.5039L19.525 32.1285C19.4743 32.1379 19.4224 32.1427 19.3718 32.1427V32.1427Z" fill="#79B7D9"/>
<defs>
<linearGradient id="paint0_linear_10280_11350" x1="1.45615" y1="10.2827" x2="27.8734" y2="13.3324" gradientUnits="userSpaceOnUse">
<stop stop-color="#634FA3"/>
<stop offset="1" stop-color="#79B7D9"/>
</linearGradient>
</defs>
</svg>
