<svg width="24" height="24" viewBox="0 0 24 24" fill="none" xmlns="http://www.w3.org/2000/svg">
<g clip-path="url(#clip0_10580_12766)">
<rect width="24" height="24" rx="12" fill="#F6F6F6"/>
<path d="M15.5 24L12 20C16.8 12.8 16 7 15 5C17.5 7.16667 22 10.5 24.5 12.5C25.3 22.1 18.8333 24.1667 15.5 24Z" fill="url(#paint0_linear_10580_12766)"/>
<path d="M12 4C8.69158 4 6 6.74766 6 10.125C6 11.2061 6.2798 12.2689 6.80911 13.1986C6.93251 13.4153 7.07045 13.6266 7.21916 13.8264L11.7393 20H12.2607L16.7808 13.8264C16.9295 13.6266 17.0675 13.4154 17.1909 13.1986C17.7202 12.2689 18 11.2061 18 10.125C18 6.74766 15.3084 4 12 4ZM12 12.1562C10.9028 12.1562 10.0102 11.245 10.0102 10.125C10.0102 9.00497 10.9028 8.09375 12 8.09375C13.0972 8.09375 13.9898 9.00497 13.9898 10.125C13.9898 11.245 13.0972 12.1562 12 12.1562Z" fill="#FFB01C"/>
<path d="M12 4V8.09375C13.0972 8.09375 13.9898 9.00497 13.9898 10.125C13.9898 11.245 13.0972 12.1562 12 12.1562V20H12.2607L16.7809 13.8264C16.9296 13.6266 17.0675 13.4154 17.1909 13.1986C17.7202 12.2689 18 11.2061 18 10.125C18 6.74766 15.3084 4 12 4Z" fill="#FF9400"/>
</g>
<defs>
<linearGradient id="paint0_linear_10580_12766" x1="12" y1="13.5" x2="22.5" y2="20" gradientUnits="userSpaceOnUse">
<stop stop-color="#D4D4D4"/>
<stop offset="1" stop-color="#FCFCFC" stop-opacity="0"/>
</linearGradient>
<clipPath id="clip0_10580_12766">
<rect width="24" height="24" rx="12" fill="white"/>
</clipPath>
</defs>
</svg>
