<svg width="24" height="24" viewBox="0 0 24 24" fill="none" xmlns="http://www.w3.org/2000/svg">
<path d="M13.7578 18.4453C13.7578 18.7543 13.6766 19.0582 13.523 19.3238L13.0145 20.2031L18.4844 20.2031L18.4844 16.6285C18.6766 16.6676 18.8727 16.6875 19.0703 16.6875C20.6855 16.6875 22 15.373 22 13.7578C22 12.1426 20.6855 10.8281 19.0703 10.8281C18.8727 10.8281 18.6766 10.848 18.4844 10.8871L18.4844 7.3125L14.8707 7.3125C14.9098 7.12031 14.9297 6.92422 14.9297 6.72656C14.9297 5.11133 13.6152 3.79687 12 3.79687C10.3848 3.79687 9.07031 5.11133 9.07031 6.72656C9.07031 6.92422 9.09023 7.12031 9.1293 7.3125L5.51562 7.3125L5.51562 10.8871C5.32344 10.848 5.12734 10.8281 4.92969 10.8281C3.31445 10.8281 2 12.1426 2 13.7578C2 15.373 3.31445 16.6875 4.92969 16.6875C5.12734 16.6875 5.32344 16.6676 5.51562 16.6285L5.51562 20.2031L10.9855 20.2031L10.4769 19.3238C10.3234 19.0582 10.2421 18.7543 10.2421 18.4453C10.2421 17.4762 11.0308 16.6875 12 16.6875C12.9691 16.6875 13.7578 17.4762 13.7578 18.4453Z" fill="#E22B57"/>
<path d="M13.7578 18.4453C13.7578 18.7543 13.6766 19.0582 13.523 19.3238L13.0145 20.2031L18.4844 20.2031L18.4844 16.6285C18.6766 16.6676 18.8727 16.6875 19.0703 16.6875C20.6855 16.6875 22 15.373 22 13.7578L2 13.7578C2 15.373 3.31445 16.6875 4.92969 16.6875C5.12734 16.6875 5.32344 16.6676 5.51562 16.6285L5.51562 20.2031L10.9855 20.2031L10.4769 19.3238C10.3234 19.0582 10.2421 18.7543 10.2421 18.4453C10.2421 17.4762 11.0308 16.6875 12 16.6875C12.9691 16.6875 13.7578 17.4762 13.7578 18.4453Z" fill="#D41B48"/>
</svg>
