<svg width="24" height="24" viewBox="0 0 24 24" fill="none" xmlns="http://www.w3.org/2000/svg">
<path d="M16.6385 13.5029H16.3102C16.2837 13.4958 16.2595 13.4839 16.233 13.4791C15.5426 13.3746 14.997 12.8088 14.9511 12.1456C14.898 11.4039 15.3277 10.7763 16.0278 10.5719C16.1195 10.5457 16.2161 10.5267 16.3102 10.5029H16.6385C16.6602 10.5101 16.6795 10.522 16.7037 10.5243C17.341 10.6266 17.8262 11.0782 17.9638 11.6963C17.9734 11.7438 17.9879 11.7914 18 11.8389V12.1622C17.9928 12.1836 17.9807 12.205 17.9783 12.2264C17.8769 12.8445 17.4303 13.3151 16.8099 13.4578C16.7495 13.472 16.694 13.4887 16.6385 13.5029ZM7.35908 10.5029L7.68741 10.5029C7.71396 10.5101 7.7381 10.522 7.76465 10.5243C8.45989 10.6313 9.00304 11.1995 9.04649 11.8698C9.09477 12.6091 8.66025 13.2343 7.95778 13.4364C7.86844 13.4625 7.77672 13.4815 7.68739 13.5029H7.35909C7.33736 13.4958 7.31805 13.4839 7.29632 13.4792C6.66868 13.3651 6.2583 13.0061 6.06276 12.4071C6.03621 12.3286 6.02173 12.2454 6 12.1646V11.8413C6.00724 11.8199 6.01931 11.7985 6.02173 11.7771C6.12553 11.1567 6.56971 10.6884 7.19011 10.5457C7.24804 10.5315 7.30357 10.5172 7.35908 10.5029ZM11.8347 10.5029H12.163C12.1895 10.5101 12.2137 10.522 12.2402 10.5267C12.933 10.6337 13.4907 11.2232 13.5196 11.8888C13.5534 12.6376 13.0948 13.2723 12.3875 13.4506C12.3126 13.4696 12.2378 13.4863 12.163 13.5029H11.8347C11.8081 13.4958 11.784 13.4839 11.7574 13.4792C11.0646 13.3746 10.5069 12.7826 10.4756 12.117C10.4394 11.3682 10.9004 10.7335 11.6077 10.5552C11.685 10.5362 11.7598 10.5196 11.8347 10.5029Z" fill="#B2B2B2"/>
</svg>
