<svg width="24" height="24" viewBox="0 0 24 24" fill="none" xmlns="http://www.w3.org/2000/svg">
<path d="M20.5 12C20.5 16.6944 16.6944 20.5 12 20.5C7.30558 20.5 3.5 16.6944 3.5 12C3.5 7.30558 7.30558 3.5 12 3.5C16.6944 3.5 20.5 7.30558 20.5 12Z" stroke="#FFA201"/>
<path d="M17.5166 10.2075C17.4545 10.0166 17.2896 9.87741 17.0909 9.84854L13.8998 9.38483L12.4726 6.49316C12.3838 6.31316 12.2004 6.19922 11.9997 6.19922C11.799 6.19922 11.6157 6.31316 11.5269 6.4932L10.0997 9.38487L6.90855 9.84858C6.70992 9.87744 6.54486 10.0166 6.48285 10.2075C6.42083 10.3984 6.47258 10.608 6.6163 10.7481L8.92547 12.9989L8.38033 16.1772C8.34641 16.375 8.42772 16.575 8.59011 16.6929C8.75253 16.8109 8.96779 16.8265 9.14547 16.7331L11.9997 15.2325L14.854 16.7331C15.033 16.8272 15.2482 16.81 15.4094 16.6929C15.5718 16.575 15.6531 16.375 15.6192 16.1772L15.074 12.9989L17.3832 10.7481C17.5269 10.6079 17.5786 10.3984 17.5166 10.2075Z" fill="url(#paint0_linear_6401_14244)"/>
<defs>
<linearGradient id="paint0_linear_6401_14244" x1="11.9997" y1="16.7937" x2="11.9997" y2="6.19922" gradientUnits="userSpaceOnUse">
<stop stop-color="#FE9201"/>
<stop offset="1" stop-color="#FFD601"/>
</linearGradient>
</defs>
</svg>
