<svg width="24" height="24" viewBox="0 0 24 24" fill="none" xmlns="http://www.w3.org/2000/svg">
<g clip-path="url(#clip0_10061_11977)">
<path d="M13.2436 2C13.2436 2.42221 13.2436 2.80642 13.2436 3.19063C13.2436 4.44881 13.2436 5.71121 13.2436 6.96939C13.2436 7.48448 13.4487 7.68292 13.9744 7.68292C15.5256 7.68292 17.0726 7.68292 18.6239 7.68292C18.7393 7.68292 18.8504 7.68292 19.0043 7.68292V8.0418C19.0043 12.4243 19.0043 16.8111 19.0043 21.1936C19.0043 21.8269 18.8376 21.9916 18.2051 21.9916C13.7436 21.9916 9.28632 21.9916 4.82479 21.9916C4.21795 21.9916 4.00427 21.7847 4.00427 21.1936C4 15.0673 4 8.93266 4 2.79797C4 2.20688 4.21368 2 4.82051 2C7.49573 2 10.1752 2 12.8547 2H13.2436ZM10.8291 12.5552L10.9188 12.5974V12.931C10.9188 14.1385 10.9188 15.346 10.9188 16.5535C10.9188 16.6591 10.9188 16.7646 10.9316 16.8659C10.9786 17.2079 11.235 17.4233 11.5556 17.3979C11.8846 17.3726 12.1026 17.1404 12.1026 16.79C12.1026 15.4896 12.1026 14.1849 12.1026 12.8845C12.1026 12.779 12.1026 12.6734 12.1026 12.5679L12.188 12.5468C12.5641 12.9225 12.9359 13.3067 13.3162 13.6783C13.6111 13.9654 13.9658 13.978 14.2094 13.7205C14.4487 13.4714 14.4316 13.1421 14.1538 12.8634C13.4359 12.1457 12.7137 11.4321 11.9872 10.7186C11.6667 10.4062 11.3675 10.4019 11.0513 10.7102C10.3162 11.4279 9.5812 12.1457 8.86325 12.8803C8.75214 12.9943 8.67949 13.1885 8.67094 13.349C8.65385 13.5812 8.79487 13.7627 9.02137 13.8556C9.2735 13.9569 9.5 13.8978 9.68803 13.7121C10.0726 13.3321 10.453 12.9394 10.8333 12.5552H10.8291Z" fill="#6478BA"/>
<path d="M18.7779 6.49603H14.4531V2.21484L18.7779 6.50026V6.49603Z" fill="#6478BA"/>
</g>
<defs>
<clipPath id="clip0_10061_11977">
<rect width="15" height="20" fill="white" transform="translate(4 2)"/>
</clipPath>
</defs>
</svg>
