<svg width="24" height="24" viewBox="0 0 24 24" fill="none" xmlns="http://www.w3.org/2000/svg">
<g clip-path="url(#clip0_10061_11976)">
<path d="M11.9971 21C9.18958 21 6.38205 21 3.56874 21C3.29667 21 3.01881 21.0125 2.75253 20.9375C2.31838 20.8186 2.09262 20.5497 2.04052 20.0681C2.01737 19.8492 2 19.624 2 19.3989C2 14.458 2 9.51702 2 4.58235C2 4.35719 2.01737 4.13204 2.04052 3.91313C2.1042 3.4378 2.34732 3.16261 2.78148 3.06254C2.96671 3.01876 3.15195 3 3.34298 3C5.50796 3 7.67873 3 9.8437 3C10.3589 3 10.7699 3.21265 11.0941 3.6442C11.3893 4.03822 11.6556 4.46352 11.9913 4.82627C12.2865 5.13899 12.6339 5.31411 13.0507 5.33287C13.6179 5.36414 14.1795 5.27658 14.7467 5.27658C16.686 5.27658 18.631 5.27658 20.5702 5.27658C21.6932 5.27658 22 5.60806 22 6.81515C22 11.0181 22 15.2272 22 19.4302C22 20.6685 21.7106 20.9875 20.5644 20.9937C17.7106 20.9937 14.8509 20.9937 11.9971 20.9937V21Z" fill="#6478BA"/>
<path d="M12.4887 11.8808C12.4887 12.2248 12.4887 12.5688 12.4887 12.919C12.4887 14.0636 12.4887 15.2019 12.4887 16.3464C12.4887 16.8092 12.0893 17.0844 11.7478 16.8593C11.5509 16.7279 11.4988 16.5278 11.4988 16.2901C11.4988 14.9142 11.4988 13.5382 11.4988 12.1685V11.8808L11.441 11.8433C11.1052 12.2186 10.7695 12.5876 10.4337 12.9628C10.289 13.1254 10.1211 13.2318 9.90694 13.1755C9.50752 13.0691 9.39753 12.5751 9.71013 12.2311C10.2195 11.6682 10.7347 11.1178 11.2499 10.5612C11.3773 10.4236 11.5046 10.2797 11.6378 10.1484C11.8693 9.92321 12.124 9.90445 12.344 10.1359C13.0097 10.8426 13.6696 11.5556 14.3237 12.2748C14.5379 12.5125 14.5263 12.8315 14.3237 13.0379C14.1211 13.2505 13.8433 13.2443 13.6117 13.0129C13.4265 12.8252 13.247 12.6251 13.0676 12.4312C12.8939 12.2373 12.726 12.0434 12.5582 11.8496L12.4945 11.8871L12.4887 11.8808Z" fill="white"/>
</g>
<defs>
<clipPath id="clip0_10061_11976">
<rect width="20" height="18" fill="white" transform="translate(2 3)"/>
</clipPath>
</defs>
</svg>
