<svg xmlns="http://www.w3.org/2000/svg" width="16.5" height="16.5" viewBox="0 0 16.5 16.5">
  <g id="ic_website" transform="translate(2781.25 5429.25)">
    <g id="world" transform="translate(-2781.016 -5429)">
      <g id="Group_53041" data-name="Group 53041" transform="translate(0.016)">
        <path id="Path_78373" data-name="Path 78373" d="M8.016,0a8,8,0,1,0,8,8A8.009,8.009,0,0,0,8.016,0ZM.981,8.471H3.745a11.072,11.072,0,0,0,.483,2.824H1.778a6.989,6.989,0,0,1-.8-2.824Zm2.764-.941H.981a6.989,6.989,0,0,1,.8-2.824H4.225a11.068,11.068,0,0,0-.48,2.824ZM5.222,4.706h5.549a10.145,10.145,0,0,1,.536,2.824H4.686A10.111,10.111,0,0,1,5.222,4.706ZM4.686,8.471h6.621a10.184,10.184,0,0,1-.538,2.824H5.224a10.149,10.149,0,0,1-.538-2.824Zm7.562,0h2.8a6.989,6.989,0,0,1-.8,2.824H11.766a11.072,11.072,0,0,0,.483-2.824Zm0-.941a11.068,11.068,0,0,0-.48-2.824h2.486a7.019,7.019,0,0,1,.8,2.824Zm1.4-3.765H11.434A11.473,11.473,0,0,0,9.976,1.224,7.078,7.078,0,0,1,13.65,3.765ZM8.541.968a10.66,10.66,0,0,1,1.856,2.8H5.6A10.635,10.635,0,0,1,7.449.969c.187-.014.375-.028.567-.028.177,0,.351.014.525.026Zm-2.533.268A11.448,11.448,0,0,0,4.559,3.765H2.381A7.076,7.076,0,0,1,6.008,1.236Zm-3.627,11H4.562a11.429,11.429,0,0,0,1.456,2.531,7.068,7.068,0,0,1-3.637-2.531Zm5.08,2.8a10.687,10.687,0,0,1-1.862-2.8h4.794a10.662,10.662,0,0,1-1.863,2.8c-.17.012-.342.026-.515.026C7.828,15.059,7.644,15.045,7.461,15.031Zm2.5-.251a11.46,11.46,0,0,0,1.465-2.544H13.65a7.076,7.076,0,0,1-3.685,2.544Z" transform="translate(-0.016)" fill="#2979ff" stroke="#2979ff" stroke-width="0.5"/>
      </g>
    </g>
    <g id="Rectangle_24061" data-name="Rectangle 24061" transform="translate(-2781 -5429)" fill="#fff" stroke="#707070" stroke-width="1" opacity="0">
      <rect width="16" height="16" stroke="none"/>
      <rect x="0.5" y="0.5" width="15" height="15" fill="none"/>
    </g>
  </g>
</svg>
