<svg xmlns="http://www.w3.org/2000/svg" xmlns:xlink="http://www.w3.org/1999/xlink" width="450" height="273" viewBox="0 0 450 273">
  <defs>
    <filter id="Rectangle_19296" x="73" y="19" width="295.999" height="254" filterUnits="userSpaceOnUse">
      <feOffset dy="3" input="SourceAlpha"/>
      <feGaussianBlur stdDeviation="11" result="blur"/>
      <feFlood flood-color="#d3d9e3"/>
      <feComposite operator="in" in2="blur"/>
      <feComposite in="SourceGraphic"/>
    </filter>
    <linearGradient id="linear-gradient" y1="0.5" x2="1" y2="0.5" gradientUnits="objectBoundingBox">
      <stop offset="0" stop-color="#f84e49"/>
      <stop offset="1" stop-color="#ef3598"/>
    </linearGradient>
  </defs>
  <g id="bg_No_Access" transform="translate(-486 -210)">
    <rect id="Rectangle_18491" data-name="Rectangle 18491" width="450" height="250" transform="translate(486 210)" fill="#fff"/>
    <ellipse id="Ellipse_2428" data-name="Ellipse 2428" cx="158" cy="11" rx="158" ry="11" transform="translate(553 438)" fill="#f3f7ff"/>
    <g id="Group_44518" data-name="Group 44518" transform="translate(156.94 48.522)">
      <g id="Group_44523" data-name="Group 44523" transform="translate(435.06 210.478)">
        <g transform="matrix(1, 0, 0, 1, -106, -49)" filter="url(#Rectangle_19296)">
          <path id="Rectangle_19296-2" data-name="Rectangle 19296" d="M9.04,0H220.959A9.04,9.04,0,0,1,230,9.04V188a0,0,0,0,1,0,0H0a0,0,0,0,1,0,0V9.04A9.04,9.04,0,0,1,9.04,0Z" transform="translate(106 49)" fill="#fff"/>
        </g>
        <path id="Rectangle_19304" data-name="Rectangle 19304" d="M9.04,0H220.959A9.04,9.04,0,0,1,230,9.04V20a0,0,0,0,1,0,0H0a0,0,0,0,1,0,0V9.04A9.04,9.04,0,0,1,9.04,0Z" fill="#93b1df"/>
        <rect id="Rectangle_19297" data-name="Rectangle 19297" width="76.676" height="38.008" rx="2.075" transform="translate(16.698 135.794)" fill="#e1eafd" opacity="0.55"/>
        <path id="Union_8" data-name="Union 8" d="M1512.174,7838.118a1.175,1.175,0,0,1-1.174-1.174v-4.456a1.175,1.175,0,0,1,1.174-1.174h134.759a1.173,1.173,0,0,1,1.172,1.174v4.456a1.173,1.173,0,0,1-1.172,1.174Zm0-14.063a1.175,1.175,0,0,1-1.174-1.174v-4.456a1.175,1.175,0,0,1,1.174-1.174h134.759a1.173,1.173,0,0,1,1.172,1.174v4.456a1.173,1.173,0,0,1-1.172,1.174Zm0-14.063a1.175,1.175,0,0,1-1.174-1.174v-4.456a1.175,1.175,0,0,1,1.174-1.174h134.759a1.173,1.173,0,0,1,1.172,1.174v4.456a1.173,1.173,0,0,1-1.172,1.174Zm0-14.062a1.175,1.175,0,0,1-1.174-1.172V7790.3a1.175,1.175,0,0,1,1.174-1.174h134.759a1.173,1.173,0,0,1,1.172,1.174v4.458a1.173,1.173,0,0,1-1.172,1.172Zm0-14.061a1.176,1.176,0,0,1-1.174-1.174v-4.458a1.176,1.176,0,0,1,1.174-1.174h134.759a1.175,1.175,0,0,1,1.172,1.174v4.458a1.175,1.175,0,0,1-1.172,1.174Zm0-14.065a1.174,1.174,0,0,1-1.174-1.172v-4.458a1.176,1.176,0,0,1,1.174-1.174h134.759a1.175,1.175,0,0,1,1.172,1.174v4.458a1.173,1.173,0,0,1-1.172,1.172Z" transform="translate(-1494.302 -7732.166)" fill="#e1eafd" stroke="rgba(0,0,0,0)" stroke-miterlimit="10" stroke-width="1" opacity="0.55"/>
        <g id="Group_44518-2" data-name="Group 44518" transform="translate(150.242 165.416)">
          <path id="Path_35872" data-name="Path 35872" d="M524.7,323.419l1.365,2.761,3.053.443-2.209,2.149.521,3.034-2.73-1.433-2.73,1.433.521-3.034-2.209-2.149,3.053-.443Z" transform="translate(-520.282 -323.419)" fill="#dbe0fe"/>
          <path id="Path_35873" data-name="Path 35873" d="M533.926,323.419l1.365,2.761,3.053.443-2.209,2.149.521,3.034-2.73-1.433L531.2,331.8l.521-3.034-2.209-2.149,3.053-.443Z" transform="translate(-515.968 -323.419)" fill="#dbe0fe"/>
          <path id="Path_35874" data-name="Path 35874" d="M543.153,323.419l1.365,2.761,3.053.443-2.209,2.149.521,3.034-2.73-1.433-2.73,1.433.522-3.034-2.209-2.149,3.053-.443Z" transform="translate(-511.654 -323.419)" fill="#dbe0fe"/>
          <path id="Path_35875" data-name="Path 35875" d="M552.379,323.419l1.365,2.761,3.053.443-2.209,2.149.521,3.034-2.73-1.433-2.73,1.433.521-3.034-2.209-2.149,3.053-.443Z" transform="translate(-507.34 -323.419)" fill="#dbe0fe"/>
          <path id="Path_35876" data-name="Path 35876" d="M561.605,323.419l1.365,2.761,3.053.443-2.209,2.149.521,3.034-2.731-1.433-2.73,1.433.521-3.034-2.209-2.149,3.053-.443Z" transform="translate(-503.026 -323.419)" fill="#dbe0fe"/>
        </g>
        <g id="Group_44521" data-name="Group 44521" transform="translate(61.663 42.407)">
          <path id="Path_35877" data-name="Path 35877" d="M540.12,254.77c-16.249-5.385-25.021-15.338-25.021-15.338s-8.772,9.952-25.02,15.338c-14.55,4.821-30.153,4.241-30.153,4.241s0,52.8,18.142,74.075c17.037,19.977,37.03,23.5,37.03,23.5s19.993-3.52,37.03-23.5c18.144-21.274,18.144-74.075,18.144-74.075S554.668,259.591,540.12,254.77Z" transform="translate(-459.926 -239.432)" fill="url(#linear-gradient)"/>
          <path id="Path_35878" data-name="Path 35878" d="M511.16,344.673c-4.509-1.236-18.549-6.04-30.787-20.39-11.218-13.155-15.037-43.416-15.95-60.792a99.5,99.5,0,0,0,24.3-4.452,73.8,73.8,0,0,0,22.438-12.076,73.75,73.75,0,0,0,22.434,12.076,99.527,99.527,0,0,0,24.3,4.452c-.911,17.375-4.729,47.635-15.951,60.792C529.706,338.633,515.667,343.437,511.16,344.673Z" transform="translate(-457.823 -235.933)" fill="#d62984" opacity="0.75"/>
          <path id="Path_35879" data-name="Path 35879" d="M510.283,340.9c-4.792-1.377-17.42-6.056-28.784-19.381-10.282-12.055-14.095-39.392-15.19-56.669a99.577,99.577,0,0,0,22.365-4.385,76.381,76.381,0,0,0,21.609-11.218,76.36,76.36,0,0,0,21.606,11.218,99.665,99.665,0,0,0,22.357,4.385c-1.107,17.29-4.93,44.649-15.181,56.669C527.7,334.845,515.073,339.524,510.283,340.9Z" transform="translate(-456.941 -234.871)" fill="url(#linear-gradient)"/>
          <g id="Group_44520" data-name="Group 44520" transform="translate(46.071 39.867)">
            <g id="Group_44519" data-name="Group 44519">
              <path id="Path_35880" data-name="Path 35880" d="M508.486,275.9a9.266,9.266,0,1,1-9.265-9.246A9.257,9.257,0,0,1,508.486,275.9Z" transform="translate(-489.955 -266.652)" fill="#fff"/>
              <path id="Path_35881" data-name="Path 35881" d="M497.513,301.832h0a3.9,3.9,0,0,1-3.9-3.894V276.621a3.9,3.9,0,0,1,3.9-3.894h0a3.9,3.9,0,0,1,3.9,3.894v21.316A3.9,3.9,0,0,1,497.513,301.832Z" transform="translate(-488.246 -263.829)" fill="#fff"/>
            </g>
          </g>
          <path id="Path_35882" data-name="Path 35882" d="M521.289,254.77c-16.248-5.385-25.02-15.338-25.02-15.338V356.583s19.993-3.52,37.03-23.5c18.143-21.274,18.143-74.075,18.143-74.075S535.839,259.591,521.289,254.77Z" transform="translate(-440.932 -239.432)" fill="#5890f4" opacity="0.25" style="mix-blend-mode: multiply;isolation: isolate"/>
        </g>
        <g id="Group_44522" data-name="Group 44522" transform="translate(191.619 7.652)">
          <path id="Path_35884" data-name="Path 35884" d="M552.726,217.823A2.125,2.125,0,1,1,550.6,215.7,2.124,2.124,0,0,1,552.726,217.823Z" transform="translate(-548.476 -215.702)" fill="#fff"/>
          <path id="Path_35885" data-name="Path 35885" d="M559.923,217.823A2.126,2.126,0,1,1,557.8,215.7,2.125,2.125,0,0,1,559.923,217.823Z" transform="translate(-545.112 -215.702)" fill="#fff"/>
          <path id="Path_35886" data-name="Path 35886" d="M567.117,217.823a2.125,2.125,0,1,1-2.125-2.121A2.124,2.124,0,0,1,567.117,217.823Z" transform="translate(-541.747 -215.702)" fill="#fff"/>
        </g>
      </g>
      <path id="Path_35887" data-name="Path 35887" d="M582.355,259.009l4.575-1.64a24.172,24.172,0,0,0-4.946-9.283l-3.913,2.88a19.087,19.087,0,0,0-4.534-3.733l2.078-4.4a23.626,23.626,0,0,0-10.064-3.068l-.73,4.81a19.125,19.125,0,0,0-5.845.569l-1.64-4.573a24.168,24.168,0,0,0-9.284,4.946l2.881,3.912a19.106,19.106,0,0,0-3.733,4.533l-4.4-2.077a23.566,23.566,0,0,0-3.068,10.064l4.81.73a19.131,19.131,0,0,0,.569,5.845l-4.573,1.639a24.157,24.157,0,0,0,4.946,9.284l3.911-2.881a19.077,19.077,0,0,0,4.534,3.733l-2.077,4.4a23.563,23.563,0,0,0,10.064,3.068l.729-4.809a19.094,19.094,0,0,0,5.846-.571l1.639,4.575a24.174,24.174,0,0,0,9.284-4.946l-2.881-3.912a19.061,19.061,0,0,0,3.733-4.534l4.4,2.078a23.6,23.6,0,0,0,3.067-10.064l-4.81-.73A19.052,19.052,0,0,0,582.355,259.009Zm-21.728,14.949a10.655,10.655,0,1,1,13.3-7.085A10.655,10.655,0,0,1,560.627,273.958Z" transform="translate(71.326 -0.288)" fill="#e1eafd"/>
    </g>
  </g>
</svg>
