<svg width="40" height="40" viewBox="0 0 40 40" fill="none" xmlns="http://www.w3.org/2000/svg">
<path d="M29.2309 24.7855H26.6386V22.2649C26.6386 22.0389 26.5463 21.8227 26.383 21.6638C26.2198 21.5049 25.999 21.4161 25.7693 21.4161C25.5397 21.4161 25.3189 21.5049 25.1557 21.6638C24.9924 21.8227 24.9001 22.0389 24.9001 22.2649V24.7855H22.3078C22.0781 24.7855 21.8573 24.8743 21.6941 25.0331C21.5308 25.1921 21.4386 25.4083 21.4386 25.6343C21.4386 25.8602 21.5308 26.0764 21.6941 26.2354C21.8573 26.3942 22.0781 26.483 22.3078 26.483H24.9001V29.0036C24.9001 29.2296 24.9924 29.4458 25.1557 29.6047C25.3189 29.7636 25.5397 29.8524 25.7693 29.8524C25.999 29.8524 26.2198 29.7636 26.383 29.6047C26.5463 29.4458 26.6386 29.2296 26.6386 29.0036V26.483H29.2309C29.4606 26.483 29.6814 26.3942 29.8446 26.2354C30.0079 26.0764 30.1001 25.8602 30.1001 25.6343C30.1001 25.4083 30.0079 25.1921 29.8446 25.0331C29.6814 24.8743 29.4606 24.7855 29.2309 24.7855Z" fill="#6477BA" stroke="#6477BA" stroke-width="0.2"/>
<path d="M16.4748 19.7991C14.582 20.4868 12.9423 21.7118 11.7696 23.318C10.557 24.9789 9.90364 26.9654 9.9 29.0036V29.0037C9.9 29.6269 10.1543 30.224 10.6062 30.6637C11.0579 31.1034 11.67 31.35 12.3077 31.35H20C20.2297 31.35 20.4505 31.2612 20.6137 31.1024C20.777 30.9434 20.8692 30.7272 20.8692 30.5012C20.8692 30.2753 20.777 30.0591 20.6137 29.9001C20.4505 29.7413 20.2297 29.6525 20 29.6525H12.3077C12.1293 29.6525 11.9588 29.5835 11.8335 29.4615C11.7083 29.3396 11.6385 29.1749 11.6385 29.0037C11.6411 26.8475 12.5222 24.7798 14.0895 23.2543C15.6568 21.7287 17.7824 20.87 20 20.8675C20.0001 20.8675 20.0001 20.8675 20.0001 20.8675L20 20.7675L16.4748 19.7991ZM15.4846 14.7773C15.4846 13.9092 15.7491 13.0604 16.2449 12.3381C16.7407 11.6158 17.4458 11.0524 18.2712 10.7196C19.0966 10.3868 20.005 10.2997 20.8814 10.4694C21.7578 10.6391 22.5625 11.0579 23.1938 11.6724C23.8251 12.2869 24.2547 13.0695 24.4287 13.921C24.6027 14.7725 24.5135 15.6552 24.172 16.4575C23.8306 17.2598 23.2523 17.946 22.5097 18.429C21.767 18.912 20.8937 19.1699 20.0001 19.17C18.802 19.1688 17.6539 18.705 16.8075 17.8812C15.9613 17.0574 15.4858 15.9411 15.4846 14.7773Z" fill="#6477BA" stroke="#6477BA" stroke-width="0.2"/>
</svg>
