<svg width="57" height="56" viewBox="0 0 57 56" fill="none" xmlns="http://www.w3.org/2000/svg">
<rect x="0.111328" width="56" height="56" rx="28" fill="url(#paint0_linear_4969_4162)"/>
<path d="M36.2778 33.0799C34.3566 33.0799 32.6636 34.0545 31.6003 35.5366L22.4068 30.6819C22.5594 30.1454 22.6667 29.5894 22.6667 29.0026C22.6667 28.2068 22.5085 27.4503 22.2351 26.7544L31.8566 20.7837C32.9273 22.0796 34.5011 22.9202 36.2778 22.9202C39.4945 22.9202 42.1111 20.2218 42.1111 16.9045C42.1111 13.5873 39.4945 10.8889 36.2778 10.8889C33.0611 10.8889 30.4444 13.5873 30.4444 16.9045C30.4444 17.669 30.5971 18.3941 30.8503 19.0674L21.2002 25.0556C20.1304 23.7982 18.5792 22.987 16.8333 22.987C13.6166 22.987 11 25.6854 11 29.0026C11 32.3198 13.6166 35.0183 16.8333 35.0183C18.7862 35.0183 20.5078 34.0151 21.5671 32.4913L30.7303 37.3302C30.5616 37.8921 30.4444 38.4772 30.4444 39.0955C30.4444 42.4127 33.0611 45.1111 36.2778 45.1111C39.4945 45.1111 42.1111 42.4127 42.1111 39.0955C42.1111 35.7783 39.4945 33.0799 36.2778 33.0799Z" fill="white"/>
<defs>
<linearGradient id="paint0_linear_4969_4162" x1="-8.69512" y1="14.5385" x2="64.6338" y2="24.9958" gradientUnits="userSpaceOnUse">
<stop stop-color="#634FA3"/>
<stop offset="1" stop-color="#79B7D9"/>
</linearGradient>
</defs>
</svg>
