<svg width="24" height="24" viewBox="0 0 24 24" fill="none" xmlns="http://www.w3.org/2000/svg">
<path d="M17.7526 14.5187L19.9559 16.7221L15.1715 21.5067L13.207 21.7236C12.9441 21.7527 12.7219 21.5303 12.7511 21.2673L12.9697 19.3014L17.7526 14.5187V14.5187ZM21.3186 14.1907L20.2841 13.1561C19.9614 12.8334 19.438 12.8334 19.1153 13.1561L18.142 14.1294L20.3454 16.3328L21.3186 15.3595C21.6413 15.0366 21.6413 14.5134 21.3186 14.1907V14.1907Z" fill="url(#paint0_linear_8575_11334)"/>
<path fill-rule="evenodd" clip-rule="evenodd" d="M4.69513 1.72656H6.26249V2.50967H12.5321V1.72656H14.0995V2.50967H15.0998C16.2786 2.50967 17.2342 3.46526 17.2342 4.64404V14.4815C17.2342 15.6603 16.2786 16.6159 15.0998 16.6159H3.69492C2.51614 16.6159 1.56055 15.6603 1.56055 14.4815V4.64404C1.56055 3.46526 2.51614 2.50967 3.69492 2.50967H4.69513V1.72656ZM4.19502 5.64415C3.60563 5.64415 3.12784 6.12195 3.12784 6.71134V13.9811C3.12784 14.5705 3.60563 15.0483 4.19502 15.0483H14.5995C15.1889 15.0483 15.6667 14.5705 15.6667 13.9811V6.71134C15.6667 6.12195 15.1889 5.64415 14.5995 5.64415H4.19502Z" fill="url(#paint1_linear_8575_11334)"/>
<defs>
<linearGradient id="paint0_linear_8575_11334" x1="11.3628" y1="15.2018" x2="22.9017" y2="16.8474" gradientUnits="userSpaceOnUse">
<stop stop-color="#634FA3"/>
<stop offset="1" stop-color="#79B7D9"/>
</linearGradient>
<linearGradient id="paint1_linear_8575_11334" x1="-0.904255" y1="5.59203" x2="19.5753" y2="8.66647" gradientUnits="userSpaceOnUse">
<stop stop-color="#634FA3"/>
<stop offset="1" stop-color="#79B7D9"/>
</linearGradient>
</defs>
</svg>
