<svg width="24" height="24" viewBox="0 0 24 24" fill="none" xmlns="http://www.w3.org/2000/svg">
<path fill-rule="evenodd" clip-rule="evenodd" d="M5.10133 2.64453H6.87181V3.52912H13.9539V2.64453H15.7244V3.52912H17.1309C18.3097 3.52912 19.2653 4.48471 19.2653 5.6635V17.329C19.2653 18.5078 18.3097 19.4634 17.1309 19.4634H3.69492C2.51614 19.4634 1.56055 18.5078 1.56055 17.329V5.6635C1.56055 4.48471 2.51614 3.52912 3.69492 3.52912H5.10133V2.64453ZM4.39813 7.06973C3.80874 7.06973 3.33094 7.54753 3.33094 8.13692V16.6254C3.33094 17.2148 3.80874 17.6926 4.39813 17.6926H16.4275C17.0169 17.6926 17.4947 17.2148 17.4947 16.6254V8.13692C17.4947 7.54753 17.0169 7.06973 16.4275 7.06973H4.39813Z" fill="url(#paint0_linear_8575_11345)"/>
<path d="M15.9652 11.3521C16.0221 11.2317 16.1102 11.1304 16.2194 11.0596C16.3286 10.9887 16.4546 10.9512 16.5831 10.9512C16.7117 10.9512 16.8377 10.9887 16.9469 11.0596C17.0561 11.1304 17.1441 11.2317 17.201 11.3521L18.3657 13.8156L20.9698 14.2105C21.0971 14.2296 21.2167 14.2856 21.3151 14.3721C21.4135 14.4585 21.4868 14.572 21.5266 14.6997C21.5665 14.8273 21.5713 14.9641 21.5405 15.0945C21.5098 15.2249 21.4447 15.3436 21.3526 15.4374L19.4675 17.3558L19.9123 20.0631C19.934 20.1953 19.9197 20.3313 19.8712 20.4556C19.8227 20.5798 19.7419 20.6874 19.6379 20.7663C19.5338 20.8451 19.4108 20.892 19.2826 20.9016C19.1544 20.9113 19.0261 20.8833 18.9124 20.8208L16.5831 19.5435L14.2539 20.8224C14.14 20.885 14.0116 20.913 13.8832 20.9034C13.7549 20.8937 13.6317 20.8466 13.5276 20.7676C13.4235 20.6886 13.3427 20.5807 13.2943 20.4562C13.246 20.3316 13.232 20.1955 13.2539 20.0631L13.698 17.3558L11.8144 15.4382C11.7224 15.3445 11.6573 15.2258 11.6265 15.0954C11.5957 14.9651 11.6005 14.8284 11.6402 14.7008C11.68 14.5731 11.7531 14.4596 11.8514 14.3731C11.9497 14.2866 12.0693 14.2305 12.1965 14.2113L14.7999 13.8164L15.9652 11.3529V11.3521Z" fill="url(#paint1_linear_8575_11345)"/>
<defs>
<linearGradient id="paint0_linear_8575_11345" x1="-1.22367" y1="7.01096" x2="21.9099" y2="10.4838" gradientUnits="userSpaceOnUse">
<stop stop-color="#634FA3"/>
<stop offset="1" stop-color="#79B7D9"/>
</linearGradient>
<linearGradient id="paint1_linear_8575_11345" x1="10.0411" y1="13.5354" x2="23.0754" y2="15.3942" gradientUnits="userSpaceOnUse">
<stop stop-color="#634FA3"/>
<stop offset="1" stop-color="#79B7D9"/>
</linearGradient>
</defs>
</svg>
