<svg width="25" height="25" viewBox="0 0 25 25" fill="none" xmlns="http://www.w3.org/2000/svg">
<path fill-rule="evenodd" clip-rule="evenodd" d="M12.3064 1.33008C11.3681 1.32978 10.4502 1.60451 9.66634 2.12029C8.88246 2.63608 8.26695 3.37029 7.8959 4.23216C7.52485 5.09403 7.41454 6.04574 7.57861 6.96963C7.74268 7.89353 8.17393 8.74907 8.81904 9.43048C7.47759 10.1723 6.408 11.3231 5.76605 12.7151C5.12411 14.1071 4.94334 15.6677 5.25006 17.1697C5.30515 17.4409 5.45233 17.6848 5.66666 17.86C5.881 18.0352 6.1493 18.1309 6.42612 18.1309H18.1867C18.4635 18.1309 18.7318 18.0352 18.9462 17.86C19.1605 17.6848 19.3077 17.4409 19.3628 17.1697C19.6698 15.6676 19.4891 14.1067 18.8472 12.7144C18.2052 11.3221 17.1355 10.1712 15.7938 9.42928C16.4385 8.74782 16.8694 7.89238 17.0333 6.96869C17.1971 6.04501 17.0867 5.09355 16.7157 4.23192C16.3447 3.37029 15.7294 2.63626 14.9457 2.12053C14.1621 1.60481 13.2445 1.33 12.3064 1.33008Z" fill="url(#paint0_linear_8575_11323)"/>
<path d="M11.3521 13.6369L11.3863 13.5647C11.4687 13.3903 11.5973 13.2413 11.7594 13.1362C11.9216 13.031 12.1102 12.9743 12.3038 12.9743C12.4974 12.9743 12.6861 13.031 12.8483 13.1362C13.0103 13.2413 13.1389 13.3903 13.2214 13.5647L13.2214 13.5647L14.2637 15.7694L16.5876 16.1218L16.588 16.1219L16.5346 16.4736C16.6574 16.4921 16.7728 16.5461 16.8677 16.6294C16.9626 16.7128 17.0333 16.8223 17.0717 16.9454C17.1101 17.0686 17.1148 17.2005 17.0851 17.3262C17.0554 17.452 16.9927 17.5665 16.9039 17.657L11.3521 13.6369ZM11.3521 13.6369V13.6376L10.3433 15.7702L11.3521 13.6369ZM9.14095 19.6277L8.74194 22.0601L9.26742 19.7565L9.14095 19.6277ZM9.14095 19.6277L7.45074 17.907L9.14095 19.6277ZM15.8658 22.0606L15.466 19.6277L8.74184 22.0607L8.74188 22.0605C8.7104 22.2507 8.73043 22.4465 8.80024 22.6262C8.87013 22.8062 8.98772 22.9642 9.14166 23.0811C9.29577 23.1981 9.47979 23.2689 9.67305 23.2835C9.86632 23.2981 10.0589 23.2557 10.2286 23.1625C10.2286 23.1625 10.2286 23.1625 10.2287 23.1625L12.3039 22.023L14.3791 23.161C14.5487 23.254 14.741 23.2963 14.934 23.2818C15.127 23.2673 15.3109 23.1968 15.4649 23.08C15.6187 22.9635 15.7364 22.8058 15.8065 22.6262C15.8765 22.4467 15.8969 22.2511 15.8658 22.0609L15.8658 22.0606Z" fill="url(#paint1_linear_8575_11323)" stroke="white" stroke-width="0.711458"/>
<defs>
<linearGradient id="paint0_linear_8575_11323" x1="2.83934" y1="5.69183" x2="21.8008" y2="8.01015" gradientUnits="userSpaceOnUse">
<stop stop-color="#634FA3"/>
<stop offset="1" stop-color="#79B7D9"/>
</linearGradient>
<linearGradient id="paint1_linear_8575_11323" x1="5.99415" y1="15.8225" x2="18.5655" y2="17.6153" gradientUnits="userSpaceOnUse">
<stop stop-color="#634FA3"/>
<stop offset="1" stop-color="#79B7D9"/>
</linearGradient>
</defs>
</svg>
