<svg width="36" height="36" viewBox="0 0 36 36" fill="none" xmlns="http://www.w3.org/2000/svg">
<rect width="36" height="36" rx="8" fill="#C7D3FF"/>
<path d="M29.0762 16.6153C29.0762 10.4953 24.1192 5.53835 17.9992 5.53835C11.8792 5.53835 6.92233 10.4953 6.92233 16.6153C6.92233 21.5999 10.2177 25.8091 14.7454 27.2076L17.9992 30.4614L21.2531 27.2076C25.7808 25.8091 29.0762 21.5999 29.0762 16.6153ZM26.3069 16.6153C26.3069 21.1983 22.5823 24.923 17.9992 24.923C13.4162 24.923 9.69156 21.1983 9.69156 16.6153C9.69156 12.0322 13.4162 8.30758 17.9992 8.30758C22.5823 8.30758 26.3069 12.0322 26.3069 16.6153Z" fill="#6477BA"/>
<path d="M16.6147 18.0001V11.077H18.6917V16.8924L22.8455 19.3847L21.7101 21.1293L16.6147 18.0001Z" fill="#6477BA"/>
</svg>
