<svg width="24" height="24" viewBox="0 0 24 24" fill="none" xmlns="http://www.w3.org/2000/svg">
<path d="M17.6002 20C18.9257 20 20.0002 18.9254 20.0002 17.6C20.0002 16.2745 18.9257 15.2 17.6002 15.2C16.2747 15.2 15.2002 16.2745 15.2002 17.6C15.2002 18.9254 16.2747 20 17.6002 20Z" fill="#92D8FF"/>
<path d="M14.3996 5.32V7.48C14.3996 8.2078 13.8074 8.8 13.0796 8.8H10.9196C10.1918 8.8 9.59961 8.2078 9.59961 7.48V5.32C9.59961 4.5922 10.1918 4 10.9196 4H13.0796C13.8074 4 14.3996 4.5922 14.3996 5.32Z" fill="white"/>
<path d="M14.3996 10.92V13.08C14.3996 13.8078 13.8074 14.4 13.0796 14.4H10.9196C10.1918 14.4 9.59961 13.8078 9.59961 13.08V10.92C9.59961 10.1922 10.1918 9.59998 10.9196 9.59998H13.0796C13.8074 9.59998 14.3996 10.1922 14.3996 10.92Z" fill="white"/>
<path d="M14.3996 16.52V18.68C14.3996 19.4078 13.8074 20 13.0796 20H10.9196C10.1918 20 9.59961 19.4078 9.59961 18.68V16.52C9.59961 15.7922 10.1918 15.2 10.9196 15.2H13.0796C13.8074 15.2 14.3996 15.7922 14.3996 16.52Z" fill="white"/>
<path d="M20.0002 10.92V13.08C20.0002 13.8078 19.408 14.4 18.6802 14.4H16.5202C15.7924 14.4 15.2002 13.8078 15.2002 13.08V10.92C15.2002 10.1922 15.7924 9.59998 16.5202 9.59998H18.6802C19.408 9.59998 20.0002 10.1922 20.0002 10.92Z" fill="white"/>
<path d="M8.8 10.92V13.08C8.8 13.8078 8.2078 14.4 7.48 14.4H5.32C4.5922 14.4 4 13.8078 4 13.08V10.92C4 10.1922 4.5922 9.59998 5.32 9.59998H7.48C8.2078 9.59998 8.8 10.1922 8.8 10.92Z" fill="white"/>
<path d="M8.8 16.52V18.68C8.8 19.4078 8.2078 20 7.48 20H5.32C4.5922 20 4 19.4078 4 18.68V16.52C4 15.7922 4.5922 15.2 5.32 15.2H7.48C8.2078 15.2 8.8 15.7922 8.8 16.52Z" fill="white"/>
</svg>
