<svg width="24" height="24" viewBox="0 0 24 24" fill="none" xmlns="http://www.w3.org/2000/svg">
<path fill-rule="evenodd" clip-rule="evenodd" d="M14.0784 1.89666C13.019 1.61279 11.9157 2.24978 11.6318 3.30922C11.5441 3.6365 11.5529 3.96543 11.6263 4.27574C9.06551 4.37221 6.74035 6.12267 6.04502 8.71768L5.13297 12.1215L3.46291 13.9969C2.49264 15.0893 3.03538 16.8781 4.44483 17.2557L14.7469 20.0162C16.1563 20.3938 17.5207 19.1161 17.2266 17.6849L16.718 15.2257L17.6301 11.8219C18.3252 9.22766 17.1844 6.5501 15.0159 5.18534C15.2358 4.9533 15.4094 4.67275 15.4973 4.34496C15.7811 3.28552 15.1379 2.18053 14.0784 1.89666ZM13.7346 3.1797C14.098 3.27705 14.3053 3.63617 14.208 3.99949C14.1106 4.36281 13.7528 4.56512 13.3895 4.46777C13.0262 4.37041 12.8225 4.01767 12.9199 3.65435C13.0172 3.29103 13.3713 3.08235 13.7346 3.1797ZM6.69185 19.2397C7.07263 20.1757 7.85921 20.9357 8.90457 21.2159C9.94992 21.496 11.0111 21.231 11.8089 20.6108L6.69185 19.2397Z" fill="#B2B2B2"/>
</svg>
