<svg width="90" height="90" viewBox="0 0 90 90" fill="none" xmlns="http://www.w3.org/2000/svg">
<g clip-path="url(#clip0_4969_4012)">
<rect width="90" height="90" rx="45" fill="#F6F6F6"/>
<path d="M54.375 101.25L26.25 71.2499L69.375 20.6249L97.1001 52.0467C97.6617 48.6259 97.8779 49.8546 97.5 52.4999L97.1001 52.0467C96.7329 54.2835 96.218 58.5083 95.625 65.6249C94.125 83.6249 68.125 100.625 54.375 101.25Z" fill="url(#paint0_linear_4969_4012)"/>
<path d="M18.75 20.7501C18.75 19.6456 19.6454 18.7501 20.75 18.7501H69.25C70.3546 18.7501 71.25 19.6456 71.25 20.7501V33.7501H18.75V20.7501Z" fill="#E43434"/>
<path d="M45 18.7501H69.25C70.3546 18.7501 71.25 19.6456 71.25 20.7501V33.7501H45V18.7501Z" fill="#CB1D1D"/>
<path d="M18.75 33.75H71.25V69.25C71.25 70.3546 70.3546 71.25 69.25 71.25H20.75C19.6454 71.25 18.75 70.3546 18.75 69.25V33.75Z" fill="#FFD9A0"/>
<path d="M45 33.75H71.25V69.25C71.25 70.3546 70.3546 71.25 69.25 71.25H45V33.75Z" fill="#F6CD8F"/>
<ellipse cx="30" cy="45.0001" rx="3.75" ry="3.75" fill="white"/>
<circle cx="45" cy="45.0001" r="3.75" fill="white"/>
<ellipse cx="45" cy="60" rx="3.75" ry="3.75" fill="white"/>
<ellipse cx="60" cy="45.0001" rx="3.75" ry="3.75" fill="#F6F6F6"/>
<circle cx="60" cy="60" r="3.75" fill="#F6F6F6"/>
</g>
<defs>
<linearGradient id="paint0_linear_4969_4012" x1="39.375" y1="43.1249" x2="63.75" y2="80.6249" gradientUnits="userSpaceOnUse">
<stop offset="0.125" stop-color="#D5D5D5"/>
<stop offset="1" stop-color="white" stop-opacity="0"/>
</linearGradient>
<clipPath id="clip0_4969_4012">
<rect width="90" height="90" rx="45" fill="white"/>
</clipPath>
</defs>
</svg>
