<svg xmlns="http://www.w3.org/2000/svg" width="16" height="16" viewBox="0 0 16 16">
  <g id="Group_53038" data-name="Group 53038" transform="translate(-333 -5719)">
    <path id="Path_38008" data-name="Path 38008" d="M1.778,0H14.222A1.778,1.778,0,0,1,16,1.778V14.222A1.778,1.778,0,0,1,14.222,16H1.778A1.778,1.778,0,0,1,0,14.222V1.778A1.778,1.778,0,0,1,1.778,0Z" transform="translate(333 5719)" fill="#cbd4dc"/>
    <path id="Path_34163" data-name="Path 34163" d="M8.573,14.255a.736.736,0,0,1-.521-.216L4.586,10.573,5.627,9.532l2.946,2.946,5.891-5.891,1.041,1.041L9.094,14.039A.736.736,0,0,1,8.573,14.255Z" transform="translate(330.954 5716.58)" fill="#fff"/>
  </g>
</svg>
