<svg xmlns="http://www.w3.org/2000/svg" width="16" height="16" viewBox="0 0 16 16">
  <g id="Group_52926" data-name="Group 52926" transform="translate(-3028 -1384)">
    <path id="Path_38009" data-name="Path 38009" d="M1.778,0H14.222A1.778,1.778,0,0,1,16,1.778V14.222A1.778,1.778,0,0,1,14.222,16H1.778A1.778,1.778,0,0,1,0,14.222V1.778A1.778,1.778,0,0,1,1.778,0Z" transform="translate(3028 1384)" fill="#2979ff"/>
    <g id="_24px_d-check" data-name="24px_d-check" transform="translate(3025.954 1381.58)">
      <g id="Group_45370" data-name="Group 45370" transform="translate(4.586 6.586)">
        <path id="Path_34163" data-name="Path 34163" d="M8.573,14.255a.736.736,0,0,1-.521-.216L4.586,10.573,5.627,9.532l2.946,2.946,5.891-5.891,1.041,1.041L9.094,14.039A.736.736,0,0,1,8.573,14.255Z" transform="translate(-4.586 -6.586)" fill="#fff"/>
      </g>
    </g>
  </g>
</svg>
