<svg width="24" height="24" viewBox="0 0 24 24" fill="none" xmlns="http://www.w3.org/2000/svg">
<path d="M11.9999 2.57141C6.80095 2.57141 2.57129 6.80107 2.57129 12C2.57129 14.1487 3.31189 16.2376 4.66172 17.9116L4.45854 20.7552C4.44381 20.962 4.5322 21.1628 4.69425 21.292C4.80689 21.3816 4.94531 21.4286 5.08557 21.4286C5.14757 21.4286 5.20988 21.4193 5.27034 21.4006L8.03998 20.5486C9.29436 21.1327 10.6255 21.4286 11.9999 21.4286C17.1988 21.4286 21.4284 17.1989 21.4284 12C21.4284 6.80107 17.1988 2.57141 11.9999 2.57141Z" fill="#B2B2B2"/>
<path d="M7.875 13.3749C8.63439 13.3749 9.25 12.7593 9.25 11.9999C9.25 11.2405 8.63439 10.6249 7.875 10.6249C7.11561 10.6249 6.5 11.2405 6.5 11.9999C6.5 12.7593 7.11561 13.3749 7.875 13.3749Z" fill="white"/>
<path d="M12 13.3749C12.7594 13.3749 13.375 12.7593 13.375 11.9999C13.375 11.2405 12.7594 10.6249 12 10.6249C11.2406 10.6249 10.625 11.2405 10.625 11.9999C10.625 12.7593 11.2406 13.3749 12 13.3749Z" fill="white"/>
<path d="M16.125 13.3749C16.8844 13.3749 17.5 12.7593 17.5 11.9999C17.5 11.2405 16.8844 10.6249 16.125 10.6249C15.3656 10.6249 14.75 11.2405 14.75 11.9999C14.75 12.7593 15.3656 13.3749 16.125 13.3749Z" fill="white"/>
</svg>
