<svg xmlns="http://www.w3.org/2000/svg" width="18" height="18" viewBox="0 0 18 18">
  <g id="Group_53261" data-name="Group 53261" transform="translate(-2 -2)">
    <path id="Path_8605" data-name="Path 8605" d="M11,2a9,9,0,1,0,9,9A9,9,0,0,0,11,2Zm0,16.2A7.2,7.2,0,1,1,18.2,11,7.2,7.2,0,0,1,11,18.2Z" fill="#ef5350"/>
    <path id="Path_8606" data-name="Path 8606" d="M14.71,9.29a1,1,0,0,0-1.42,0L12,10.59l-1.29-1.3a1,1,0,0,0-1.42,1.42L10.59,12l-1.3,1.29a1,1,0,0,0,1.42,1.42L12,13.41l1.29,1.3a1,1,0,1,0,1.42-1.42L13.41,12l1.3-1.29a1,1,0,0,0,0-1.42Z" transform="translate(-1 -1)" fill="#ef5350"/>
  </g>
</svg>
