<svg xmlns="http://www.w3.org/2000/svg" width="52" height="18" viewBox="0 0 52 18">
  <g id="ic_Decimal" transform="translate(-207 -226)">
    <g id="Rectangle_22935" data-name="Rectangle 22935" transform="translate(207 226)" fill="#fff" stroke="#14aa8a" stroke-width="2">
      <rect width="52" height="18" rx="3" stroke="none"/>
      <rect x="1" y="1" width="50" height="16" rx="2" fill="none"/>
    </g>
    <path id="Path_84539" data-name="Path 84539" d="M2.368,0h.85V-7.046H2.358L.483-5.7v.884l1.865-1.3h.02ZM4.961-5.01h.85A1.427,1.427,0,0,1,7.334-6.4,1.238,1.238,0,0,1,8.657-5.151c0,.586-.22.967-1.172,1.958L5-.605V0H9.653V-.781H6.211V-.8L7.886-2.52c1.294-1.328,1.65-1.909,1.65-2.686a2.045,2.045,0,0,0-2.2-1.958A2.214,2.214,0,0,0,4.961-5.01ZM12.1-3.267h.884c.991,0,1.611.488,1.606,1.357,0,.737-.625,1.265-1.553,1.265s-1.6-.474-1.65-1.221h-.845a2.223,2.223,0,0,0,2.5,1.982,2.209,2.209,0,0,0,2.446-2.056A1.705,1.705,0,0,0,13.76-3.667v-.02a1.7,1.7,0,0,0,1.494-1.66c0-1.006-.815-1.816-2.227-1.816A2.148,2.148,0,0,0,10.684-5.2h.845a1.339,1.339,0,0,1,1.5-1.2c.9,0,1.343.474,1.343,1.172a1.286,1.286,0,0,1-1.426,1.221H12.1ZM19.932,0h.85V-1.465h1v-.771h-1v-4.81h-1.3a50.9,50.9,0,0,0-3.091,4.785v.8h3.54ZM17.261-2.256c.557-.977,1.323-2.153,2.656-4.058h.015v4.077H17.261Zm6.064,2.3a.55.55,0,0,0,.557-.557.55.55,0,0,0-.557-.557.55.55,0,0,0-.557.557A.55.55,0,0,0,23.325.049ZM26.377,0h.85V-7.046h-.859L24.492-5.7v.884l1.865-1.3h.02ZM28.97-5.01h.85A1.427,1.427,0,0,1,31.343-6.4a1.238,1.238,0,0,1,1.323,1.245c0,.586-.22.967-1.172,1.958L29.014-.605V0h4.648V-.781H30.22V-.8L31.895-2.52c1.294-1.328,1.65-1.909,1.65-2.686a2.045,2.045,0,0,0-2.2-1.958A2.214,2.214,0,0,0,28.97-5.01Z" transform="translate(213 239)" fill="#14aa8a"/>
  </g>
</svg>
