<svg width="24" height="24" viewBox="0 0 24 24" fill="none" xmlns="http://www.w3.org/2000/svg">
<path d="M19.4245 4.58156C18.4512 3.59867 17.2933 2.81776 16.0174 2.28371C14.7414 1.74966 13.3725 1.47298 11.9892 1.46958C10.606 1.46617 9.23574 1.73611 7.95715 2.26387C6.67856 2.79164 5.51685 3.56683 4.53876 4.54492C3.56067 5.52302 2.78547 6.68472 2.25771 7.96331C1.72994 9.2419 1.46001 10.6122 1.46341 11.9954C1.46682 13.3786 1.74349 14.7475 2.27755 16.0235C2.8116 17.2995 3.5925 18.4574 4.5754 19.4306C5.54866 20.4135 6.70654 21.1944 7.98252 21.7285C9.25849 22.2625 10.6274 22.5392 12.0106 22.5426C13.3939 22.546 14.7641 22.2761 16.0427 21.7483C17.3213 21.2206 18.483 20.4454 19.4611 19.4673C20.4392 18.4892 21.2144 17.3275 21.7422 16.0489C22.2699 14.7703 22.5399 13.4 22.5365 12.0168C22.5331 10.6336 22.2564 9.26465 21.7223 7.98868C21.1883 6.71271 20.4074 5.55483 19.4245 4.58156ZM2.99993 12.0061C2.99959 11.2096 3.1052 10.4165 3.31399 9.64781C3.65805 10.3884 4.15774 11.0283 4.49759 11.7881C4.9368 12.765 6.11618 12.4941 6.63696 13.35C7.09915 14.1098 6.60556 15.0708 6.95149 15.8658C7.20274 16.4428 7.79525 16.5689 8.204 16.9908C8.62165 17.4164 8.61275 17.9995 8.6765 18.5545C8.74843 19.2066 8.86511 19.853 9.02571 20.4891C9.02571 20.4938 9.02571 20.4989 9.02947 20.5036C5.52181 19.2717 2.99993 15.9281 2.99993 12.0061ZM11.9999 21.0061C11.4973 21.0059 10.9956 20.9639 10.4999 20.8805C10.5051 20.7534 10.5074 20.6349 10.5201 20.5524C10.634 19.807 11.0071 19.0781 11.5106 18.5203C12.0079 17.97 12.6895 17.5978 13.1095 16.9734C13.521 16.3641 13.6443 15.5438 13.4746 14.8317C13.2248 13.7798 11.7956 13.4288 11.0249 12.8583C10.582 12.5302 10.1877 12.023 9.60603 11.9817C9.3379 11.963 9.11337 12.0206 8.84759 11.9522C8.60384 11.8889 8.41259 11.7577 8.1529 11.7919C7.66774 11.8556 7.36165 12.3741 6.8404 12.3038C6.34587 12.2377 5.83634 11.6588 5.72384 11.1877C5.57946 10.582 6.05852 10.3856 6.57181 10.3317C6.78603 10.3092 7.02649 10.2848 7.23228 10.3636C7.50321 10.4639 7.63118 10.7292 7.87446 10.8633C8.33056 11.1136 8.4229 10.7138 8.35306 10.3088C8.24853 9.70219 8.12665 9.45516 8.66759 9.0375C9.04259 8.74969 9.36321 8.54156 9.30322 8.02453C9.26759 7.72078 9.10118 7.58344 9.25634 7.28109C9.374 7.05094 9.69697 6.84328 9.90743 6.70594C10.4507 6.35156 12.2348 6.37781 11.5059 5.38594C11.2917 5.09484 10.8965 4.57453 10.5215 4.50328C10.0527 4.41469 9.84462 4.93781 9.5179 5.16844C9.1804 5.40703 8.52321 5.67797 8.18525 5.30906C7.73056 4.81266 8.48665 4.65 8.654 4.30312C8.73134 4.1414 8.654 3.91687 8.52368 3.70547C8.69275 3.63422 8.86462 3.56812 9.03931 3.50719C9.14879 3.58805 9.27866 3.63675 9.41431 3.64781C9.7279 3.66844 10.0237 3.49875 10.2974 3.7125C10.6012 3.94687 10.8201 4.24312 11.2232 4.31625C11.6132 4.38703 12.0262 4.15969 12.1227 3.76031C12.1813 3.5175 12.1227 3.26109 12.0665 3.01031C13.8196 3.0204 15.5312 3.54543 16.9884 4.52016C16.8946 4.48453 16.7826 4.48875 16.6443 4.55297C16.3598 4.68516 15.9567 5.02172 15.9234 5.35547C15.8854 5.73422 16.4442 5.78766 16.7095 5.78766C17.1079 5.78766 17.5115 5.60953 17.3831 5.14922C17.3273 4.94953 17.2513 4.74187 17.129 4.61625C17.4231 4.82032 17.7048 5.04165 17.9728 5.27906C17.9685 5.28328 17.9643 5.28703 17.9601 5.29172C17.6901 5.57297 17.3765 5.79562 17.1918 6.13781C17.0615 6.37875 16.9148 6.49313 16.6509 6.55547C16.5056 6.58969 16.3396 6.60234 16.2178 6.69984C15.8784 6.96703 16.0715 7.60922 16.3931 7.80188C16.7995 8.04516 17.4023 7.93078 17.7088 7.58344C17.9484 7.31156 18.0895 6.83953 18.5203 6.84C18.7099 6.83961 18.8921 6.91386 19.0274 7.04672C19.2056 7.23141 19.1704 7.40391 19.2084 7.63453C19.2754 8.04422 19.6368 7.82203 19.8567 7.61531C20.0169 7.90051 20.1615 8.19423 20.2898 8.49516C20.0479 8.84344 19.8557 9.22313 19.274 8.81719C18.9257 8.57391 18.7115 8.22094 18.2742 8.11125C17.8921 8.0175 17.5007 8.115 17.1234 8.18016C16.6945 8.25469 16.1859 8.2875 15.8606 8.61234C15.546 8.92547 15.3796 9.34453 15.0449 9.65906C14.3976 10.2684 14.1243 10.9336 14.5434 11.7952C14.9465 12.6234 15.7898 13.073 16.6996 13.0139C17.5935 12.9544 18.5221 12.4359 18.4963 13.7348C18.487 14.1947 18.5831 14.513 18.7242 14.94C18.8549 15.3338 18.846 15.7153 18.876 16.1217C18.9046 16.5976 18.979 17.0697 19.0982 17.5313C18.258 18.613 17.1817 19.4885 15.9515 20.0907C14.7213 20.6929 13.3697 21.006 11.9999 21.0061Z" fill="#6477BA"/>
</svg>
