<svg width="47" height="48" viewBox="0 0 47 48" fill="none" xmlns="http://www.w3.org/2000/svg">
<rect x="1" y="1.5" width="45" height="45" rx="22.5" fill="#F6F6F6"/>
<path d="M19.3428 33.7303L31.0752 21.9979L25.5025 16.4252L13.7701 28.1576C13.6086 28.3194 13.4939 28.5218 13.4381 28.7434L12.1377 35.3627L18.7557 34.0623C18.9779 34.0068 19.1812 33.8919 19.3428 33.7303ZM34.8627 18.2104C35.3361 17.7369 35.602 17.0948 35.602 16.4252C35.602 15.7557 35.3361 15.1136 34.8627 14.64L32.8604 12.6377C32.3869 12.1644 31.7447 11.8984 31.0752 11.8984C30.4057 11.8984 29.7635 12.1644 29.29 12.6377L27.2877 14.64L32.8604 20.2127L34.8627 18.2104Z" fill="#6477BA"/>
<rect x="1" y="1.5" width="45" height="45" rx="22.5" stroke="#6477BA" stroke-width="2"/>
</svg>
