<svg width="46" height="46" viewBox="0 0 46 46" fill="none" xmlns="http://www.w3.org/2000/svg">
<circle cx="23" cy="23" r="22" fill="#F6F6F6" stroke="#6477BA" stroke-width="2"/>
<g clip-path="url(#clip0_7114_12163)">
<path d="M35.8403 17.8313C36.68 17.8161 37.0053 18.1112 36.9599 18.9357C36.8313 21.3717 36.68 23.8076 36.5439 26.2435C36.4758 27.5068 36.4153 28.7702 36.3472 30.0335C36.264 31.5692 36.1808 33.1124 36.09 34.6481C36.0597 35.1474 35.7949 35.4349 35.273 35.5256C35.1065 35.5559 34.925 35.5559 34.751 35.5559C26.8986 35.5559 19.0462 35.5559 11.2013 35.5559C10.1801 35.5559 9.9153 35.2911 9.86235 34.2926C9.71862 31.5919 9.56732 28.8912 9.42358 26.1981C9.34037 24.6321 9.25715 23.0662 9.16637 21.5003C9.12099 20.6454 9.04534 19.7906 9.00751 18.9357C8.96969 18.096 9.27228 17.8161 10.1271 17.8388C11.7687 17.8388 13.4027 17.8388 15.0443 17.8388C20.9828 17.8388 26.9213 17.8388 32.8598 17.8388C33.0413 17.8388 33.238 17.8994 33.4044 17.7632C33.5406 17.8615 33.6995 17.854 33.8583 17.854C34.5165 17.854 35.1746 17.854 35.8403 17.854V17.8313Z" fill="#5CC8D9"/>
<path d="M33.4045 17.7403C33.2381 17.8765 33.0414 17.816 32.8599 17.816C26.9214 17.816 20.9829 17.816 15.0444 17.816C15.1276 17.7554 15.1957 17.6874 15.2865 17.642C16.7012 16.9687 18.1234 16.3105 19.5304 15.6221C20.4761 15.1607 21.4746 14.79 22.3673 14.2226C24.0089 13.5645 25.5673 12.7323 27.171 11.9985C27.7762 11.7186 28.3738 11.416 28.9866 11.1437C29.7658 10.7957 30.2802 11.0151 30.6358 11.7943C31.014 12.6113 31.4149 13.4132 31.8008 14.2302C31.8613 14.3739 31.9142 14.5252 31.9748 14.669C32.4438 15.6902 32.9204 16.7115 33.397 17.7328L33.4045 17.7403Z" fill="#D3E0F2"/>
<path d="M22.367 14.2376C21.4668 14.805 20.4758 15.1757 19.5302 15.6371C18.1231 16.3255 16.7009 16.9837 15.2862 17.657C15.1955 17.7023 15.1274 17.7704 15.0442 17.8309C13.4026 17.8309 11.7685 17.8309 10.127 17.8309C10.1345 16.1591 10.1421 14.4872 10.1572 12.8154C10.1572 12.6111 10.1572 12.4069 10.1572 12.2026C10.1875 11.4386 10.5128 11.1208 11.2693 11.1133C12.9562 11.1133 14.6432 11.1133 16.3302 11.1133C16.7765 11.1133 17.1321 11.2797 17.4649 11.5747C18.3727 12.3691 19.2957 13.1482 20.2034 13.935C20.4531 14.1544 20.7179 14.2679 21.0659 14.2452C21.4971 14.2149 21.9358 14.2452 22.3746 14.2452L22.367 14.2376Z" fill="#19BBD3"/>
<path d="M33.4043 17.7404C32.9277 16.7191 32.4587 15.6978 31.9821 14.6766C31.914 14.5328 31.8611 14.3815 31.8081 14.2378C32.7915 14.2378 33.7826 14.2378 34.766 14.2378C35.4998 14.2378 35.8024 14.5404 35.8175 15.3044C35.8327 16.1442 35.8327 16.9839 35.8402 17.8236C35.1821 17.8236 34.5239 17.8236 33.8582 17.8236C33.6993 17.8236 33.5405 17.8387 33.4043 17.7328V17.7404Z" fill="#18BBD3"/>
</g>
<defs>
<clipPath id="clip0_7114_12163">
<rect width="27.96" height="24.5558" fill="white" transform="translate(9 11)"/>
</clipPath>
</defs>
</svg>
