<svg width="30" height="38" viewBox="0 0 30 38" fill="none" xmlns="http://www.w3.org/2000/svg">
<path d="M26.4842 12.9166C25.9066 12.2157 24.7966 12.3192 24.3822 13.1268C24.2673 13.352 24.139 13.5559 24.0027 13.7401C23.3419 14.637 21.9133 14.3003 21.739 13.2003C21.323 10.5886 20.3239 8.95675 19.404 7.90969C18.1696 6.50465 16.8852 6.11664 15.9725 4.46031C15.4931 3.59263 15.2752 2.68939 15.2111 1.82566C15.1287 0.725651 13.7516 0.263362 13.0139 1.086C10.16 4.27381 8.29486 8.30481 8.03102 12.6724C7.95892 13.8942 6.28315 14.3849 5.62711 13.1332C5.21193 12.3208 4.10109 12.207 3.52032 12.9111C-4.78799 22.9819 2.64955 37.3334 15.0003 37.3334C27.3503 37.3334 34.7846 22.9827 26.4842 12.9166Z" fill="#D51B48"/>
</svg>
