<svg width="35" height="35" viewBox="0 0 35 35" fill="none" xmlns="http://www.w3.org/2000/svg">
<path d="M17.4997 34.9993C27.1645 34.9993 34.9993 27.1645 34.9993 17.4997C34.9993 7.83487 27.1645 0 17.4997 0C7.83487 0 0 7.83487 0 17.4997C0 27.1645 7.83487 34.9993 17.4997 34.9993Z" fill="#6477BA"/>
<path d="M16.8657 28.1262C16.5071 28.0764 16.1439 28.0478 15.7906 27.9748C11.6295 27.1181 8.8749 24.6697 7.70746 20.5843C6.40588 16.0307 8.60197 11.1339 12.8069 8.95901C16.5177 7.03917 20.9239 7.54121 24.1081 10.2453C24.1519 10.2825 24.1991 10.3164 24.2675 10.3695C24.2734 10.2878 24.2801 10.232 24.2807 10.1763C24.2814 9.6802 24.2788 9.18347 24.2821 8.68741C24.2861 8.17076 24.6387 7.79821 25.1188 7.79489C25.6003 7.79223 25.9642 8.16279 25.9668 8.67545C25.9715 9.52281 25.9781 10.3695 25.9648 11.2169C25.9436 12.6114 24.8558 13.6972 23.4593 13.7184C22.6126 13.731 21.7652 13.7251 20.9185 13.7198C20.4079 13.7171 20.0373 13.3492 20.0426 12.8671C20.0473 12.3949 20.4172 12.0383 20.9192 12.035C21.7002 12.0304 22.4804 12.0337 23.2614 12.033C23.3311 12.033 23.4008 12.0264 23.529 12.0197C23.3139 11.8225 23.1452 11.6571 22.9659 11.5051C17.9953 7.29684 10.3027 10.0395 9.11795 16.4418C8.32107 20.749 10.9216 24.9539 15.1285 26.1612C19.8587 27.5179 24.7655 24.576 25.7776 19.7588C25.8978 19.1871 25.921 18.5927 25.9622 18.007C26.002 17.4485 26.3633 17.0833 26.8899 17.1225C27.2153 17.1464 27.4417 17.3204 27.5865 17.6086C27.6124 17.6597 27.639 17.7108 27.6649 17.7626V18.5569C27.6536 18.614 27.6363 18.6711 27.6323 18.7289C27.5759 19.5576 27.4298 20.3711 27.1476 21.1514C25.7882 24.9061 23.1505 27.1878 19.2311 27.9734C18.8705 28.0458 18.5013 28.077 18.1361 28.1275H16.8657V28.1262Z" fill="white"/>
<path d="M16.6587 15.8428C16.6587 15.1289 16.6521 14.4144 16.6614 13.7005C16.6667 13.2715 16.9881 12.9295 17.4051 12.8817C17.8129 12.8345 18.202 13.0915 18.3109 13.492C18.3415 13.6042 18.3435 13.7271 18.3435 13.8453C18.3455 15.0286 18.3475 16.2127 18.3415 17.3961C18.3408 17.5488 18.3886 17.6531 18.4949 17.758C19.1955 18.4506 19.8888 19.1505 20.5867 19.8458C20.8185 20.0769 20.93 20.3479 20.8563 20.6726C20.7116 21.3101 19.9592 21.5532 19.4684 21.1195C19.2758 20.9489 19.1005 20.7583 18.9179 20.5763C18.2817 19.9408 17.6515 19.2993 17.008 18.6711C16.7583 18.428 16.6448 18.1558 16.6527 17.8065C16.6673 17.1523 16.6567 16.4976 16.6567 15.8428H16.658H16.6587Z" fill="white"/>
</svg>
