<svg width="40" height="40" viewBox="0 0 40 40" fill="none" xmlns="http://www.w3.org/2000/svg">
<path d="M32.0076 15.3175C29.3869 7.68165 20.81 11.0868 20 14.9048C18.904 10.8289 10.5654 7.78484 7.99235 15.3175C5.13339 23.6757 18.9993 31.1569 20 32.3951C21.0006 31.4148 34.8666 23.521 32.0076 15.3175Z" fill="#D41B48"/>
<path d="M35.5554 12.4999C35.2221 11.4443 34.6665 10.4999 33.8887 9.72211C33.1665 8.94434 32.222 8.33322 31.2776 7.94433C30.7776 7.72211 30.2776 7.611 29.7776 7.49989C29.4998 7.44433 29.2776 7.44433 28.9998 7.38878H28.222L28.8887 7.72211L29.5554 8.05545C29.9998 8.27767 30.4443 8.49989 30.8332 8.77767C31.6665 9.27767 32.3887 9.88878 33.0554 10.5554C33.7221 11.2221 34.2221 11.9999 34.7221 12.8888C34.9443 13.3332 35.1665 13.7777 35.3332 14.2221C35.4443 14.4443 35.4998 14.7221 35.6109 14.9443L35.8887 15.6666C35.9443 15.3888 35.9443 15.111 35.9443 14.8888C35.9443 14.611 35.9443 14.3332 35.8887 14.111C35.8332 13.5554 35.7221 12.9999 35.5554 12.4999" fill="#FFAFAF"/>
<path d="M36.6666 11C36.611 10.6111 36.5555 10.2222 36.4444 9.83331C36.2222 9.05553 35.7777 8.33331 35.2222 7.7222C34.6666 7.11108 33.9999 6.66664 33.2777 6.44442C32.8888 6.33331 32.5555 6.2222 32.1666 6.16664C31.9999 6.16664 31.7777 6.11108 31.611 6.11108C31.4444 6.11108 31.2221 6.11108 31.0555 6.16664C31.2221 6.27775 31.3888 6.33331 31.5555 6.44442C31.6666 6.49997 31.8333 6.61108 31.9999 6.66664C32.3333 6.83331 32.611 6.99997 32.8888 7.2222C33.4444 7.61108 33.9999 8.05553 34.4444 8.49997C34.8888 8.99997 35.2777 9.55553 35.6666 10.1666C35.8333 10.4444 35.9999 10.7778 36.1666 11.1111C36.2222 11.2778 36.3333 11.4444 36.3888 11.6111C36.4444 11.7778 36.5555 11.9444 36.611 12.1666C36.6666 11.9444 36.6666 11.7778 36.6666 11.5555V11" fill="#FFAFAF"/>
<path d="M4.61091 14.2221C4.77758 13.7777 4.9998 13.2777 5.22203 12.8888C5.66647 11.9999 6.22203 11.2221 6.88869 10.5554C7.55536 9.88878 8.27758 9.27767 9.11092 8.77767C9.49981 8.49989 9.94425 8.27767 10.3887 8.05545L11.0554 7.72211L11.722 7.38878H10.9443C10.6665 7.38878 10.4443 7.44433 10.1665 7.49989C9.66647 7.611 9.16647 7.72211 8.66647 7.94433C7.72203 8.33322 6.83314 8.94434 6.11092 9.72211C5.38869 10.4999 4.77758 11.4443 4.44425 12.4999C4.27758 12.9999 4.16647 13.5554 4.11091 14.0554C4.05536 14.3332 4.05536 14.611 4.05536 14.8332C4.05536 15.111 4.05536 15.3888 4.11091 15.611L4.38869 14.8888C4.44425 14.6666 4.4998 14.4443 4.61091 14.2221" fill="#FFAFAF"/>
<path d="M5.55548 8.55548C5.99992 8.05548 6.55548 7.61104 7.11103 7.22215C7.38881 7.05548 7.72214 6.83326 7.99992 6.66659C8.16659 6.55548 8.33325 6.49993 8.49992 6.38881C8.66659 6.2777 8.83325 6.22215 8.99992 6.11104C8.83325 6.11104 8.61103 6.05548 8.44437 6.05548C8.2777 6.05548 8.05548 6.05548 7.88881 6.11104C7.49992 6.16659 7.16659 6.2777 6.7777 6.38881C5.99992 6.72215 5.33325 7.16659 4.7777 7.72215C4.22214 8.33326 3.7777 9.05548 3.55547 9.83326C3.44436 10.2221 3.38881 10.611 3.33325 10.9999V11.611C3.33325 11.8333 3.33325 11.9999 3.38881 12.2222C3.44436 12.0555 3.55547 11.8888 3.61103 11.6666C3.72214 11.4444 3.7777 11.2777 3.88881 11.111C4.05547 10.7777 4.22214 10.4444 4.38881 10.1666C4.72214 9.55548 5.11103 8.99993 5.55548 8.55548" fill="#FFAFAF"/>
<path d="M6.55568 24.7222L6.50012 24.8333C6.7779 25.6666 7.22234 26.3333 7.66679 27C8.11123 27.6666 8.66679 28.2222 9.22235 28.7222C9.7779 29.2222 10.389 29.7222 11.0557 30.1666C11.7223 30.6111 12.4446 30.9444 13.2779 31.1666L13.3335 31.0555C12.2223 29.9444 11.1112 28.8889 10.0001 27.8333C8.83346 26.8333 7.72235 25.7222 6.55568 24.7222" fill="#FFAFAF"/>
<path d="M4.22212 26.3889L4.16656 26.5C4.55545 27.4444 5.05545 28.2222 5.61101 28.9444C6.16657 29.6666 6.77768 30.3333 7.44434 30.9444C8.11101 31.5555 8.77768 32.1111 9.55546 32.6666C10.3332 33.1666 11.111 33.6666 12.0555 33.9444L12.111 33.8333C10.8332 32.5555 9.4999 31.3333 8.22212 30.0555C6.88879 28.8333 5.55545 27.5555 4.22212 26.3889" fill="#FFAFAF"/>
<path d="M30.8333 28.7222C31.3888 28.1666 31.9444 27.6111 32.3888 27C32.8333 26.3889 33.2777 25.6666 33.5555 24.8333L33.4999 24.7222C32.3333 25.7222 31.2222 26.8333 30.0555 27.8333C28.9444 28.8889 27.8333 29.9444 26.7222 31.0555L26.7777 31.1666C27.6111 30.9444 28.3333 30.5555 28.9999 30.1666C29.6666 29.7222 30.2222 29.2222 30.8333 28.7222" fill="#FFAFAF"/>
<path d="M31.7779 30.0555C30.5001 31.3333 29.1668 32.5555 27.889 33.8333L27.9445 33.9444C28.889 33.6111 29.6668 33.1666 30.4445 32.6666C31.2223 32.1666 31.889 31.6111 32.5556 30.9444C33.2223 30.3333 33.8334 29.6666 34.389 28.9444C34.9445 28.2222 35.4445 27.4444 35.8334 26.5L35.7779 26.3889C34.4445 27.5555 33.1112 28.8333 31.7779 30.0555" fill="#FFAFAF"/>
</svg>
