<svg xmlns="http://www.w3.org/2000/svg" width="16" height="16" viewBox="0 0 16 16"><g transform="translate(741.992 -284)"><rect width="16" height="16" transform="translate(-741.992 284)" fill="none"/><g transform="translate(-2082.378 -124.378)"><path d="M200.586,148.7l2.664-2.664a2.241,2.241,0,0,1,3.171,0h0a2.241,2.241,0,0,1,0,3.171l-4.228,4.228a2.241,2.241,0,0,1-3.171,0h0a2.3,2.3,0,0,1-.391-.518" transform="translate(1148.307 264)" fill="none" stroke="#2979ff" stroke-linecap="round" stroke-linejoin="round" stroke-width="1.5"/><path d="M199.818,155.824l-2.611,2.611a2.241,2.241,0,0,1-3.171,0h0a2.241,2.241,0,0,1,0-3.171l4.228-4.228a2.241,2.241,0,0,1,3.171,0h0a2.326,2.326,0,0,1,.412.56" transform="translate(1148.008 264.286)" fill="none" stroke="#2979ff" stroke-linecap="round" stroke-linejoin="round" stroke-width="1.5"/></g></g></svg>