<svg xmlns="http://www.w3.org/2000/svg" xmlns:xlink="http://www.w3.org/1999/xlink" width="51" height="51.314" viewBox="0 0 51 51.314">
  <defs>
    <filter id="Ellipse_4054" x="29" y="29.314" width="22" height="22" filterUnits="userSpaceOnUse">
      <feOffset dy="1" input="SourceAlpha"/>
      <feGaussianBlur stdDeviation="1" result="blur"/>
      <feFlood flood-opacity="0.161"/>
      <feComposite operator="in" in2="blur"/>
      <feComposite in="SourceGraphic"/>
    </filter>
  </defs>
  <g id="ic_notify1_48" transform="translate(-954 -226)">
    <g id="Group_54102" data-name="Group 54102" transform="translate(0 -315)">
      <g id="Group_54092" data-name="Group 54092" transform="translate(1590 -1367)">
        <circle id="Ellipse_4056" data-name="Ellipse 4056" cx="24" cy="24" r="24" transform="translate(-636 1908)" fill="#edf1f5"/>
        <g id="Group_54091" data-name="Group 54091" transform="matrix(0.978, -0.208, 0.208, 0.978, -1255.891, 1488.001)">
          <path id="Path_96791" data-name="Path 96791" d="M228.5,309.5h2.4v8h-2.4a4,4,0,0,1-4-4h0A4,4,0,0,1,228.5,309.5Z" transform="translate(301.008 253.592)" fill="none" stroke="#888" stroke-miterlimit="10" stroke-width="1.5"/>
          <path id="Path_96792" data-name="Path 96792" d="M226.5,314.5h3.2v6.4h-1.936a1.264,1.264,0,0,1-1.264-1.264Z" transform="translate(302.208 256.592)" fill="none" stroke="#888" stroke-miterlimit="10" stroke-width="1.5"/>
          <path id="Path_96793" data-name="Path 96793" d="M228.5,311.092c4.912,0,10.784-2.832,13.232-4.144a.784.784,0,0,1,1.168.7v14.88a.784.784,0,0,1-1.168.7c-2.448-1.312-8.32-4.144-13.232-4.144" transform="translate(303.408 252)" fill="none" stroke="#888" stroke-linecap="round" stroke-linejoin="round" stroke-width="1.5"/>
          <path id="Path_96794" data-name="Path 96794" d="M237.5,310.5h.8a2.4,2.4,0,0,1,2.4,2.4h0a2.4,2.4,0,0,1-2.4,2.4h-.8Z" transform="translate(308.808 254.192)" fill="none" stroke="#888" stroke-linecap="round" stroke-linejoin="round" stroke-width="1.5"/>
        </g>
      </g>
    </g>
    <g id="Group_54106" data-name="Group 54106" transform="translate(-3674 -1093.686)">
      <g transform="matrix(1, 0, 0, 1, 4628, 1319.69)" filter="url(#Ellipse_4054)">
        <g id="Ellipse_4054-2" data-name="Ellipse 4054" transform="translate(32 31.31)" fill="#2979ff" stroke="#fff" stroke-width="1">
          <circle cx="8" cy="8" r="8" stroke="none"/>
          <circle cx="8" cy="8" r="7.5" fill="none"/>
        </g>
      </g>
      <g id="ic_mode_edit_18px" transform="translate(4662 1353.694)">
        <g id="Group_53913" data-name="Group 53913" transform="translate(2 0.992)">
          <path id="Path_95162" data-name="Path 95162" d="M2,7.329V8.993H3.663L8.4,4.259,6.734,2.6ZM9.868,2.793a.441.441,0,0,0,0-.629L8.829,1.124a.441.441,0,0,0-.629,0L7.331,2,8.994,3.662Z" transform="translate(-2 -0.992)" fill="#fff"/>
        </g>
      </g>
    </g>
  </g>
</svg>
