<svg xmlns="http://www.w3.org/2000/svg" width="16" height="15.333" viewBox="0 0 16 15.333">
  <g id="paper-plane" transform="translate(0 0)">
    <path id="Path_96756" data-name="Path 96756" d="M8.75,17.612V20.7a.5.5,0,0,0,.9.3l1.809-2.461Z" transform="translate(-2.917 -5.871)" fill="#fff"/>
    <path id="Path_96757" data-name="Path 96757" d="M15.79.093a.5.5,0,0,0-.521-.036L.269,7.89a.5.5,0,0,0,.069.917l4.17,1.425,8.881-7.593L6.517,10.918l6.989,2.389a.512.512,0,0,0,.161.027.5.5,0,0,0,.495-.426L15.995.574a.5.5,0,0,0-.2-.481Z" transform="translate(0 0)" fill="#fff"/>
  </g>
</svg>
