<svg width="24" height="24" viewBox="0 0 24 24" fill="none" xmlns="http://www.w3.org/2000/svg">
<path d="M13.7677 2.57141H4.73201C3.53772 2.57141 2.57129 3.53784 2.57129 4.73213V16.9107C2.57129 18.105 3.53772 19.0714 4.73201 19.0714H10.5306L10.7034 18.105C10.782 17.665 10.9863 17.2722 11.3006 16.95L15.9285 12.33V4.73213C15.9285 3.53784 14.962 2.57141 13.7677 2.57141V2.57141Z" fill="#B2B2B2"/>
<path d="M12.7859 10.4289H5.71443C5.28071 10.4289 4.92871 10.0769 4.92871 9.64314C4.92871 9.20942 5.28071 8.85742 5.71443 8.85742H12.7859C13.2196 8.85742 13.5716 9.20942 13.5716 9.64314C13.5716 10.0769 13.2196 10.4289 12.7859 10.4289Z" fill="white"/>
<path d="M9.643 13.5717H5.71443C5.28071 13.5717 4.92871 13.2197 4.92871 12.786C4.92871 12.3522 5.28071 12.0002 5.71443 12.0002H9.643C10.0767 12.0002 10.4287 12.3522 10.4287 12.786C10.4287 13.2197 10.0767 13.5717 9.643 13.5717Z" fill="white"/>
<path d="M8.85728 7.28591H5.71443C5.28071 7.28591 4.92871 6.93391 4.92871 6.50019C4.92871 6.06648 5.28071 5.71448 5.71443 5.71448H8.85728C9.291 5.71448 9.643 6.06648 9.643 6.50019C9.643 6.93391 9.291 7.28591 8.85728 7.28591Z" fill="white"/>
<path d="M12.4142 21.4284C12.2594 21.4284 12.1085 21.3671 11.9977 21.2555C11.8618 21.1196 11.8005 20.9263 11.8343 20.7361L12.2507 18.3751C12.2712 18.2564 12.3293 18.1464 12.4142 18.0608L18.2481 12.2276C18.9647 11.5095 19.6687 11.7035 20.0537 12.0885L21.0256 13.0605C21.5623 13.5963 21.5623 14.4685 21.0256 15.0051L15.1917 20.8391C15.1068 20.9247 14.9968 20.9821 14.8774 21.0025L12.5163 21.4189C12.4825 21.4252 12.448 21.4284 12.4142 21.4284Z" fill="#B2B2B2"/>
</svg>
