<svg width="40" height="40" viewBox="0 0 40 40" fill="none" xmlns="http://www.w3.org/2000/svg">
<path d="M22.9297 30.7422C22.9297 31.2572 22.7943 31.7637 22.5384 32.2064L21.6908 33.6719L30.8073 33.6719L30.8073 27.7142C31.1276 27.7793 31.4544 27.8125 31.7839 27.8125C34.4759 27.8125 36.6667 25.6217 36.6667 22.9297C36.6667 20.2376 34.4759 18.0469 31.7839 18.0469C31.4544 18.0469 31.1276 18.0801 30.8073 18.1452L30.8073 12.1875L24.7845 12.1875C24.8496 11.8672 24.8828 11.5404 24.8828 11.2109C24.8828 8.51888 22.6921 6.32812 20 6.32812C17.308 6.32812 15.1172 8.51888 15.1172 11.2109C15.1172 11.5404 15.1504 11.8672 15.2155 12.1875L9.19273 12.1875L9.19273 18.1452C8.87242 18.0801 8.54559 18.0469 8.21617 18.0469C5.52411 18.0469 3.33335 20.2376 3.33335 22.9297C3.33335 25.6217 5.52411 27.8125 8.21617 27.8125C8.54559 27.8125 8.87242 27.7793 9.19273 27.7142L9.19273 33.6719L18.3093 33.6719L17.4615 32.2064C17.2057 31.7637 17.0703 31.2572 17.0703 30.7422C17.0703 29.127 18.3847 27.8125 20 27.8125C21.6152 27.8125 22.9297 29.127 22.9297 30.7422Z" fill="#E22B57"/>
<path d="M22.9297 30.7422C22.9297 31.2572 22.7943 31.7637 22.5384 32.2064L21.6908 33.6719L30.8073 33.6719L30.8073 27.7142C31.1276 27.7793 31.4544 27.8125 31.7839 27.8125C34.4759 27.8125 36.6667 25.6217 36.6667 22.9297L3.33335 22.9297C3.33335 25.6217 5.52411 27.8125 8.21617 27.8125C8.54559 27.8125 8.87242 27.7793 9.19273 27.7142L9.19273 33.6719L18.3093 33.6719L17.4615 32.2064C17.2057 31.7637 17.0703 31.2572 17.0703 30.7422C17.0703 29.127 18.3847 27.8125 20 27.8125C21.6152 27.8125 22.9297 29.127 22.9297 30.7422Z" fill="#D41B48"/>
</svg>
