<svg width="90" height="90" viewBox="0 0 90 90" fill="none" xmlns="http://www.w3.org/2000/svg">
<rect width="90" height="90" rx="45" fill="#F6F6F6"/>
<path d="M56.1395 89.9672L45 75.5004C60.277 49.4602 57.7308 28.4834 54.5481 21.25C62.5049 29.0862 76.8271 41.1418 84.7839 48.3752C87.3301 83.0955 66.7485 90.57 56.1395 89.9672Z" fill="url(#paint0_linear_4969_4028)"/>
<path d="M45 15C32.5934 15 22.5 25.3037 22.5 37.9687C22.5 42.0227 23.5492 46.0084 25.5342 49.4947C25.9969 50.3075 26.5142 51.0996 27.0719 51.849L44.0224 75H45.9775L62.9281 51.8491C63.4857 51.0996 64.003 50.3077 64.4658 49.4948C66.4508 46.0084 67.5 42.0227 67.5 37.9687C67.5 25.3037 57.4066 15 45 15ZM45 45.5859C40.8856 45.5859 37.5383 42.1689 37.5383 37.9687C37.5383 33.7686 40.8856 30.3516 45 30.3516C49.1144 30.3516 52.4617 33.7686 52.4617 37.9687C52.4617 42.1689 49.1144 45.5859 45 45.5859Z" fill="#FFB01C"/>
<path d="M45 15V30.3516C49.1144 30.3516 52.4617 33.7686 52.4617 37.9687C52.4617 42.1689 49.1144 45.5859 45 45.5859V75H45.9776L62.9283 51.8491C63.4858 51.0996 64.0031 50.3077 64.4659 49.4948C66.4508 46.0084 67.5 42.0227 67.5 37.9687C67.5 25.3037 57.4066 15 45 15Z" fill="#FF9400"/>
<defs>
<linearGradient id="paint0_linear_4969_4028" x1="45" y1="51.9919" x2="80.6464" y2="71.4108" gradientUnits="userSpaceOnUse">
<stop stop-color="#D4D4D4"/>
<stop offset="1" stop-color="#FCFCFC" stop-opacity="0"/>
</linearGradient>
</defs>
</svg>
