<svg width="40" height="40" viewBox="0 0 40 40" fill="none" xmlns="http://www.w3.org/2000/svg">
<path d="M14.6601 32.8333H25.3409L27.1357 26.2049C29.5755 24.6628 31.4474 22.3721 32.4699 19.6774C33.4924 16.9826 33.6101 14.0295 32.8054 11.2622C32.0006 8.49495 30.317 6.06318 28.0077 4.3327C25.6983 2.60223 22.8882 1.66663 20 1.66663C17.1118 1.66663 14.3017 2.60223 11.9924 4.3327C9.68304 6.06318 7.99939 8.49495 7.19467 11.2622C6.38996 14.0295 6.50769 16.9826 7.53016 19.6774C8.55263 22.3721 10.4245 24.6628 12.8643 26.2049L14.6601 32.8333Z" fill="#FFDAA2"/>
<path d="M26.9543 10.1438C26.9543 10.5477 27.1148 10.935 27.4004 11.2206C27.6859 11.5062 28.0733 11.6667 28.4772 11.6667C28.8811 11.6667 29.2684 11.5062 29.554 11.2206C29.8396 10.935 30 10.5477 30 10.1438C29.9984 8.78008 29.456 7.47266 28.4917 6.50836C27.5274 5.54406 26.22 5.00161 24.8562 5C24.4524 5 24.065 5.16045 23.7794 5.44604C23.4938 5.73163 23.3334 6.11898 23.3334 6.52286C23.3334 6.92675 23.4938 7.3141 23.7794 7.59969C24.065 7.88529 24.4524 8.04573 24.8562 8.04573C25.4125 8.04642 25.9457 8.26769 26.339 8.661C26.7324 9.05432 26.9536 9.58757 26.9543 10.1438Z" fill="white"/>
<path d="M25.6611 32.8333C25.9182 32.8333 26.1729 32.7859 26.4104 32.6937C26.648 32.6016 26.8639 32.4666 27.0457 32.2963C27.2275 32.1261 27.3717 31.924 27.4701 31.7015C27.5686 31.4791 27.6192 31.2407 27.6192 31C27.6192 30.7592 27.5686 30.5208 27.4701 30.2984C27.3717 30.0759 27.2275 29.8738 27.0457 29.7036C26.8639 29.5334 26.648 29.3983 26.4104 29.3062C26.1729 29.214 25.9182 29.1666 25.6611 29.1666H14.3392C13.8199 29.1666 13.3218 29.3598 12.9546 29.7036C12.5874 30.0474 12.3811 30.5137 12.3811 31C12.3811 31.4862 12.5874 31.9525 12.9546 32.2963C13.3218 32.6401 13.8199 32.8333 14.3392 32.8333H25.6611Z" fill="#B52648"/>
<rect x="14.2855" y="30.9999" width="11.4286" height="7.33333" rx="1" fill="#B52648"/>
</svg>
