<svg width="40" height="40" viewBox="0 0 40 40" fill="none" xmlns="http://www.w3.org/2000/svg">
<path d="M31.4842 13.9166C30.9066 13.2157 29.7966 13.3192 29.3822 14.1268C29.2673 14.352 29.139 14.5559 29.0027 14.7401C28.3419 15.637 26.9133 15.3003 26.739 14.2003C26.323 11.5886 25.3239 9.95675 24.404 8.90969C23.1696 7.50465 21.8852 7.11664 20.9725 5.46031C20.4931 4.59263 20.2752 3.68939 20.2111 2.82566C20.1287 1.72565 18.7516 1.26336 18.0139 2.086C15.16 5.27381 13.2949 9.30481 13.031 13.6724C12.9589 14.8942 11.2832 15.3849 10.6271 14.1332C10.2119 13.3208 9.10109 13.207 8.52032 13.9111C0.212008 23.9819 7.64955 38.3334 20.0003 38.3334C32.3503 38.3334 39.7846 23.9827 31.4842 13.9166V13.9166Z" fill="#D51B48"/>
<path d="M24.74 18.3477C27.3032 18.5484 29.2182 20.7832 29.0178 23.3404C28.5265 29.5841 23.214 33.427 20.0114 33.427H19.9892C16.7866 33.427 11.4741 29.5841 10.9829 23.3404C10.7824 20.7832 12.6974 18.5484 15.2606 18.3477C17.3856 18.1817 19.2864 19.4698 19.9892 21.3719H20.0114C20.7142 19.4698 22.615 18.1817 24.74 18.3477Z" fill="#FFDAA1"/>
<path d="M14.7456 22.7824C14.1728 22.7824 13.8927 22.0776 14.3139 21.6872C14.3139 21.6872 14.3899 21.6167 14.4232 21.5865C14.6819 21.3514 15.0828 21.3701 15.3186 21.6281C15.5543 21.8861 15.5357 22.286 15.2769 22.5212C15.1507 22.6355 15.0205 22.7824 14.7456 22.7824Z" fill="white"/>
<path d="M14.5818 26.7104C14.3347 26.7104 14.1 26.5655 13.9977 26.3242C13.6706 25.5526 13.4961 24.8808 13.4644 24.2703C13.4463 23.9217 13.715 23.6243 14.0646 23.6063C14.4151 23.5895 14.7123 23.8562 14.7305 24.2049C14.7545 24.6659 14.8967 25.1981 15.1654 25.8319C15.3427 26.2503 15.032 26.7104 14.5818 26.7104Z" fill="white"/>
</svg>
