<svg xmlns="http://www.w3.org/2000/svg" width="18.4" height="18.4" viewBox="0 0 18.4 18.4">
  <path id="Path_33568" data-name="Path 33568" d="M17.993.479a.429.429,0,0,0-.014-.066.551.551,0,0,0-.136-.256A.553.553,0,0,0,17.588.02c-.024-.006-.044-.009-.068-.013a.556.556,0,0,0-.289.028L.354,6.786A.562.562,0,0,0,.311,7.811L6.9,11.1l3.293,6.585a.562.562,0,0,0,.5.311h.024a.564.564,0,0,0,.5-.353L17.965.769A.557.557,0,0,0,17.993.479ZM15.108,2.1,7.2,10,1.936,7.365ZM10.635,16.064,8,10.8l7.9-7.9Z" transform="translate(0.2 0.2)" fill="#fff" stroke="#fff" stroke-width="0.4"/>
</svg>
