<svg width="35" height="35" viewBox="0 0 35 35" fill="none" xmlns="http://www.w3.org/2000/svg">
<path d="M17.4997 34.9993C27.1645 34.9993 34.9993 27.1645 34.9993 17.4997C34.9993 7.83487 27.1645 0 17.4997 0C7.83487 0 0 7.83487 0 17.4997C0 27.1645 7.83487 34.9993 17.4997 34.9993Z" fill="#6477BA"/>
<path d="M23.0064 6.403C23.44 6.52851 23.8936 6.60886 24.304 6.7875C25.915 7.48677 26.9696 9.21137 26.708 11.0854C26.4357 13.0404 24.9787 14.4635 23.0974 14.6893C20.5766 14.9921 18.3665 13.0059 18.425 10.489C18.4734 8.42245 19.9975 6.71578 22.0388 6.44218C22.0873 6.43554 22.1345 6.41695 22.1823 6.40366H23.0057L23.0064 6.403ZM22.5934 8.25709C21.3283 8.24713 20.283 9.27645 20.2757 10.5408C20.2678 11.8252 21.2865 12.8591 22.5694 12.8697C23.8491 12.8804 24.8997 11.8471 24.9017 10.5767C24.9037 9.29703 23.879 8.26772 22.594 8.25709H22.5934Z" fill="white"/>
<path d="M28.5992 23.2645C28.5733 23.3136 28.5447 23.3614 28.5221 23.4119C28.3448 23.805 27.9723 24.0122 27.5373 23.9591C27.1482 23.9113 26.8287 23.6012 26.7657 23.1908C26.6933 22.7219 26.684 22.2372 26.5605 21.7829C25.6958 18.5967 21.7267 17.3602 19.1932 19.4793C18.9176 19.7097 18.6367 19.9036 18.2582 19.8272C17.8883 19.7529 17.634 19.5331 17.5324 19.1638C17.4288 18.786 17.5384 18.4639 17.8286 18.2069C18.7251 17.414 19.7623 16.8973 20.9391 16.6848C24.4095 16.058 27.6854 18.2388 28.4511 21.6774C28.5135 21.9576 28.55 22.2438 28.5985 22.5274V23.2645H28.5992Z" fill="white"/>
<path d="M6.40307 27.2596C6.41037 23.9166 8.68482 21.0996 11.9268 20.4163C15.5952 19.6426 19.2675 21.9941 20.0969 25.6459C20.2517 26.3272 20.2948 27.0165 20.2709 27.7118C20.255 28.182 19.8811 28.5618 19.4182 28.5944C18.9421 28.6282 18.5178 28.3035 18.4454 27.826C18.4142 27.6208 18.4241 27.409 18.4208 27.1998C18.3836 24.7075 16.7214 22.7067 14.2763 22.2126C11.5935 21.6707 8.84619 23.5155 8.35876 26.2077C8.27443 26.6725 8.27642 27.1546 8.25716 27.6295C8.22927 28.3015 7.65949 28.7431 7.04855 28.5525C6.68131 28.4376 6.421 28.1029 6.40373 27.7145C6.39709 27.563 6.4024 27.411 6.4024 27.2596H6.40307Z" fill="white"/>
<path d="M13.3442 18.4201C11.0372 18.4148 9.17111 16.556 9.17775 14.2683C9.18439 11.9473 11.0531 10.0926 13.376 10.0999C15.6551 10.1072 17.5105 11.9971 17.4999 14.3002C17.4893 16.5666 15.6146 18.4247 13.3442 18.4201ZM11.0318 14.2517C11.0265 15.5333 12.0492 16.566 13.3329 16.5759C14.5939 16.5859 15.6399 15.5499 15.6458 14.2849C15.6518 12.9893 14.6258 11.9533 13.3335 11.9513C12.0678 11.9493 11.0372 12.9787 11.0318 14.251V14.2517Z" fill="white"/>
</svg>
