<svg xmlns="http://www.w3.org/2000/svg" width="16" height="16" viewBox="0 0 16 16"><path d="M0,0H16V16H0Z" fill="none"/><path d="M4,7H14.667" transform="translate(-1.333 -2.333)" fill="none" stroke="#ef5350" stroke-linecap="round" stroke-linejoin="round" stroke-width="1.4"/><path d="M10,11v4" transform="translate(-3.333 -3.667)" fill="none" stroke="#ef5350" stroke-linecap="round" stroke-linejoin="round" stroke-width="1.4"/><path d="M14,11v4" transform="translate(-4.667 -3.667)" fill="none" stroke="#ef5350" stroke-linecap="round" stroke-linejoin="round" stroke-width="1.4"/><path d="M5,7l.667,8A1.333,1.333,0,0,0,7,16.333h5.333A1.333,1.333,0,0,0,13.667,15l.667-8" transform="translate(-1.667 -2.333)" fill="none" stroke="#ef5350" stroke-linecap="round" stroke-linejoin="round" stroke-width="1.4"/><path d="M9,5.667v-2A.667.667,0,0,1,9.667,3h2.667A.667.667,0,0,1,13,3.667v2" transform="translate(-3 -1)" fill="none" stroke="#ef5350" stroke-linecap="round" stroke-linejoin="round" stroke-width="1.4"/></svg>