<svg width="24" height="24" viewBox="0 0 24 24" fill="none" xmlns="http://www.w3.org/2000/svg">
<rect width="24" height="24" rx="8" fill="#C7D3FF"/>
<path d="M19.3848 11.0768C19.3848 6.99685 16.0802 3.69223 12.0002 3.69223C7.92015 3.69223 4.61553 6.99685 4.61553 11.0768C4.61553 14.3999 6.81246 17.2061 9.83092 18.1384L12.0002 20.3076L14.1694 18.1384C17.1878 17.2061 19.3848 14.3999 19.3848 11.0768ZM17.5386 11.0768C17.5386 14.1322 15.0555 16.6153 12.0002 16.6153C8.94477 16.6153 6.46169 14.1322 6.46169 11.0768C6.46169 8.02146 8.94477 5.53839 12.0002 5.53839C15.0555 5.53839 17.5386 8.02146 17.5386 11.0768Z" fill="#6477BA"/>
<path d="M11.0762 12.0002V7.38477H12.4608V11.2617L15.23 12.9232L14.4731 14.0863L11.0762 12.0002Z" fill="#6477BA"/>
</svg>
