<svg xmlns="http://www.w3.org/2000/svg" width="52" height="18" viewBox="0 0 52 18">
  <g id="ic_Text" transform="translate(-27 -226)">
    <g id="Rectangle_22935" data-name="Rectangle 22935" transform="translate(27 226)" fill="#fff" stroke="#14aa8a" stroke-width="2">
      <rect width="52" height="18" rx="3" stroke="none"/>
      <rect x="1" y="1" width="50" height="16" rx="2" fill="none"/>
    </g>
    <path id="Path_84537" data-name="Path 84537" d="M.22,0h1l1.9-2.808h.034L5.02,0H6.074L3.7-3.491v-.029L6.128-7.046h-1l-1.9,2.832H3.188L1.309-7.046H.249L2.617-3.564v.034ZM6.943,0h.85V-5.078h-.85Zm.425-5.981A.53.53,0,0,0,7.9-6.514a.527.527,0,0,0-.532-.532.53.53,0,0,0-.532.532A.533.533,0,0,0,7.368-5.981ZM8.94,0h.85V-2.988a1.3,1.3,0,0,1,1.323-1.426c.781,0,1.167.449,1.167,1.27V0h.85V-3.3a1.672,1.672,0,0,0-1.758-1.87,1.7,1.7,0,0,0-1.611.9h-.02v-.811h-.8ZM20.479-3.413a2.022,2.022,0,0,0-2.134-1.753,2.341,2.341,0,0,0-2.334,2.627A2.328,2.328,0,0,0,18.354.088a2.022,2.022,0,0,0,2.134-1.724h-.835a1.225,1.225,0,0,1-1.294.977c-.879,0-1.484-.7-1.484-1.88,0-1.152.6-1.88,1.475-1.88a1.248,1.248,0,0,1,1.3,1.006ZM21.313,0h.85V-2.959A1.319,1.319,0,0,1,23.53-4.414a1.126,1.126,0,0,1,1.2,1.289V0h.85V-3.281a1.714,1.714,0,0,0-1.787-1.885,1.681,1.681,0,0,0-1.611.9h-.02V-7.046h-.85Zm7.021-.635c-.61,0-1.016-.317-1.016-.8s.391-.781,1.074-.825l1.357-.083v.415A1.336,1.336,0,0,1,28.335-.635Zm-.19.723a1.852,1.852,0,0,0,1.631-.962h.02V0H30.6V-3.511c0-1.011-.752-1.655-1.943-1.655a1.793,1.793,0,0,0-2.012,1.553h.82a1.066,1.066,0,0,1,1.172-.806c.7,0,1.113.371,1.113.991V-3L28.3-2.92c-1.172.068-1.841.615-1.841,1.484A1.525,1.525,0,0,0,28.145.088Zm.117-5.9h.659l-.869-1.465h-.933Zm5.522,5.9a2.344,2.344,0,0,0,2.349-2.627,2.342,2.342,0,0,0-2.349-2.627,2.343,2.343,0,0,0-2.354,2.627A2.345,2.345,0,0,0,33.784.088Zm0-.747c-.9,0-1.489-.684-1.489-1.88s.591-1.88,1.489-1.88,1.484.684,1.484,1.88S34.683-.659,33.784-.659Z" transform="translate(33 239)" fill="#14aa8a"/>
  </g>
</svg>
