<svg width="57" height="56" viewBox="0 0 57 56" fill="none" xmlns="http://www.w3.org/2000/svg">
<path d="M0.111328 25C0.111328 11.1929 11.3042 0 25.1113 0H31.1113C44.9184 0 56.1113 11.1929 56.1113 25V31C56.1113 44.8071 44.9184 56 31.1113 56H25.1113C11.3042 56 0.111328 44.8071 0.111328 31V25Z" fill="url(#paint0_linear_4969_4161)"/>
<path d="M42.1113 18C42.1113 20.1217 41.2685 22.1566 39.7682 23.6569C38.2679 25.1571 36.2331 26 34.1113 26C31.9896 26 29.9548 25.1571 28.4545 23.6569C26.9542 22.1566 26.1113 20.1217 26.1113 18C26.1113 15.8783 26.9542 13.8434 28.4545 12.3431C29.9548 10.8429 31.9896 10 34.1113 10C36.2331 10 38.2679 10.8429 39.7682 12.3431C41.2685 13.8434 42.1113 15.8783 42.1113 18V18ZM37.5559 14.1623C37.4271 14.0851 37.2844 14.0341 37.1359 14.0121C36.9874 13.9901 36.8361 13.9975 36.6905 14.034C36.5448 14.0705 36.4079 14.1354 36.2873 14.2248C36.1668 14.3143 36.065 14.4266 35.9879 14.5554L33.3136 19.0126L32.0633 17.7623C31.8487 17.5477 31.5577 17.4271 31.2542 17.4271C30.9507 17.4271 30.6596 17.5477 30.445 17.7623C30.2304 17.9769 30.1099 18.2679 30.1099 18.5714C30.1099 18.8749 30.2304 19.166 30.445 19.3806L32.2142 21.1474C32.3983 21.3319 32.6221 21.472 32.8685 21.557C33.115 21.642 33.3775 21.6697 33.6363 21.638C33.895 21.6062 34.1431 21.5159 34.3616 21.3739C34.5802 21.2318 34.7635 21.0418 34.8976 20.8183L37.949 15.7303C38.0262 15.6015 38.0773 15.4588 38.0993 15.3103C38.1213 15.1618 38.1138 15.0105 38.0773 14.8648C38.0408 14.7192 37.976 14.5822 37.8865 14.4617C37.797 14.3411 37.6847 14.2394 37.5559 14.1623V14.1623Z" fill="white"/>
<path fill-rule="evenodd" clip-rule="evenodd" d="M40.1113 26.0008C38.44 27.2561 36.3625 28 34.1113 28C28.5885 28 24.1113 23.5229 24.1113 18C24.1113 15.7489 24.8552 13.6714 26.1105 12.0001H21.1113C19.7852 12.0001 18.5135 12.5269 17.5758 13.4646C16.6381 14.4023 16.1113 15.6741 16.1113 17.0002V43.0009C16.1115 43.1852 16.1626 43.366 16.2591 43.5231C16.3555 43.6803 16.4935 43.8077 16.6578 43.8913C16.8222 43.9749 17.0064 44.0115 17.1902 43.9969C17.374 43.9824 17.5502 43.9173 17.6993 43.8089L28.1113 36.2367L38.5233 43.8089C38.6725 43.9173 38.8487 43.9824 39.0325 43.9969C39.2162 44.0115 39.4005 43.9749 39.5648 43.8913C39.7291 43.8077 39.8671 43.6803 39.9636 43.5231C40.06 43.366 40.1112 43.1852 40.1113 43.0009V29.5865V26.0008Z" fill="white"/>
<defs>
<linearGradient id="paint0_linear_4969_4161" x1="-26.722" y1="18.6667" x2="64.278" y2="61.8333" gradientUnits="userSpaceOnUse">
<stop stop-color="#AA2261"/>
<stop offset="1" stop-color="#F55155"/>
</linearGradient>
</defs>
</svg>
