<svg width="33" height="32" viewBox="0 0 33 32" fill="none" xmlns="http://www.w3.org/2000/svg">
<path fill-rule="evenodd" clip-rule="evenodd" d="M16.4999 2.28558C8.9259 2.28558 2.78564 8.42584 2.78564 15.9999C2.78564 23.5739 8.9259 29.7141 16.4999 29.7141C24.0739 29.7141 30.2142 23.5739 30.2142 15.9999C30.2142 8.42584 24.0739 2.28558 16.4999 2.28558ZM22.4444 13.6809C22.5539 13.5558 22.6372 13.41 22.6895 13.2522C22.7418 13.0944 22.762 12.9278 22.749 12.762C22.7359 12.5963 22.6898 12.4348 22.6135 12.2872C22.5371 12.1395 22.4319 12.0086 22.3042 11.9022C22.1765 11.7958 22.0288 11.716 21.8698 11.6675C21.7108 11.619 21.5437 11.6028 21.3783 11.6198C21.2129 11.6368 21.0527 11.6868 20.9069 11.7667C20.7611 11.8466 20.6328 11.9548 20.5294 12.0851L15.1684 18.5171L12.3944 15.7418C12.1592 15.5147 11.8443 15.389 11.5174 15.3919C11.1905 15.3947 10.8778 15.5258 10.6466 15.757C10.4155 15.9881 10.2844 16.3008 10.2815 16.6277C10.2787 16.9546 10.4044 17.2695 10.6315 17.5047L14.3717 21.2449C14.4942 21.3674 14.6409 21.4629 14.8024 21.5255C14.9638 21.5881 15.1366 21.6164 15.3096 21.6086C15.4826 21.6007 15.6521 21.5569 15.8072 21.4799C15.9624 21.4029 16.0998 21.2944 16.2107 21.1614L22.4444 13.6809Z" fill="white"/>
</svg>
