<svg xmlns="http://www.w3.org/2000/svg" width="16" height="16" viewBox="0 0 16 16">
  <g id="Group_53687" data-name="Group 53687" transform="translate(-601 -151)">
    <rect id="Rectangle_24230" data-name="Rectangle 24230" width="16" height="16" transform="translate(601 151)" fill="#fff" opacity="0"/>
    <path id="file" d="M4.915,12.863a.523.523,0,0,1-.523.523h-2.3A2.094,2.094,0,0,1,0,11.294v-9.2A2.094,2.094,0,0,1,2.092,0H8.52a2.094,2.094,0,0,1,2.092,2.092V7.085a.523.523,0,1,1-1.046,0V2.092A1.047,1.047,0,0,0,8.52,1.046H2.092A1.047,1.047,0,0,0,1.046,2.092v9.2A1.047,1.047,0,0,0,2.092,12.34h2.3a.523.523,0,0,1,.523.523ZM8,3.137H2.612a.523.523,0,0,0,0,1.046H8A.523.523,0,0,0,8,3.137ZM8.52,5.752A.523.523,0,0,0,8,5.229H2.612a.523.523,0,1,0,0,1.046H8A.523.523,0,0,0,8.52,5.752ZM2.612,7.32a.523.523,0,0,0,0,1.046H5.359a.523.523,0,0,0,0-1.046ZM11.9,11.15c-.018.026-.081.115-.121.165a7.358,7.358,0,0,1-1.155,1.191,3.586,3.586,0,0,1-2.237.88,3.586,3.586,0,0,1-2.237-.88A7.356,7.356,0,0,1,5,11.315c-.039-.049-.1-.139-.121-.165a.523.523,0,0,1,0-.6c.018-.026.081-.115.121-.165A7.356,7.356,0,0,1,6.155,9.193a3.586,3.586,0,0,1,2.237-.88,3.586,3.586,0,0,1,2.237.88,7.356,7.356,0,0,1,1.155,1.191c.039.049.1.139.121.165A.523.523,0,0,1,11.9,11.15Zm-1.091-.3a3.4,3.4,0,0,0-2.422-1.49A3.4,3.4,0,0,0,5.97,10.85a3.4,3.4,0,0,0,2.422,1.49A3.4,3.4,0,0,0,10.814,10.85Zm-2.4-.993a.993.993,0,1,0,.993.993A.993.993,0,0,0,8.418,9.856Zm0,0" transform="translate(603 152)" fill="#707070"/>
  </g>
</svg>
