<svg xmlns="http://www.w3.org/2000/svg" width="16" height="17.848" viewBox="0 0 16 17.848">
  <path id="file" d="M6.553,17.15a.7.7,0,0,1-.7.7H2.789A2.792,2.792,0,0,1,0,15.059V2.789A2.792,2.792,0,0,1,2.789,0H11.36a2.792,2.792,0,0,1,2.789,2.789V9.447a.7.7,0,1,1-1.394,0V2.789A1.4,1.4,0,0,0,11.36,1.394H2.789A1.4,1.4,0,0,0,1.394,2.789v12.27a1.4,1.4,0,0,0,1.394,1.394H5.856a.7.7,0,0,1,.7.7ZM10.663,4.183H3.482a.7.7,0,0,0,0,1.394h7.181a.7.7,0,1,0,0-1.394Zm.7,3.486a.7.7,0,0,0-.7-.7H3.482a.7.7,0,0,0,0,1.394h7.181A.7.7,0,0,0,11.36,7.669ZM3.482,9.76a.7.7,0,1,0,0,1.394H7.146a.7.7,0,0,0,0-1.394Zm12.391,5.107c-.025.035-.109.154-.161.22a9.811,9.811,0,0,1-1.541,1.588,4.781,4.781,0,0,1-2.982,1.173,4.781,4.781,0,0,1-2.982-1.173,9.808,9.808,0,0,1-1.54-1.588c-.052-.066-.136-.185-.161-.22a.7.7,0,0,1,0-.8c.025-.035.109-.154.161-.22a9.808,9.808,0,0,1,1.54-1.588,4.781,4.781,0,0,1,2.982-1.173,4.781,4.781,0,0,1,2.982,1.173,9.808,9.808,0,0,1,1.54,1.588c.052.066.136.185.161.22A.7.7,0,0,1,15.873,14.867Zm-1.454-.4c-1.109-1.319-2.194-1.987-3.229-1.987s-2.121.668-3.229,1.987c1.109,1.319,2.194,1.987,3.229,1.987S13.31,15.785,14.419,14.466Zm-3.195-1.325a1.325,1.325,0,1,0,1.325,1.325A1.325,1.325,0,0,0,11.224,13.142Zm0,0" fill="#2979ff"/>
</svg>
