<svg xmlns="http://www.w3.org/2000/svg" width="12.4" height="11.713" viewBox="0 0 12.4 11.713">
  <path id="Path_96757" data-name="Path 96757" d="M12,.3a.256.256,0,0,0-.009-.042A.341.341,0,0,0,11.9.1a.376.376,0,0,0-.17-.086C11.709.009,11.7.007,11.68,0a.391.391,0,0,0-.193.018L.236,4.265A.357.357,0,0,0,0,4.579a.352.352,0,0,0,.207.331L4.6,6.979l2.2,4.139a.378.378,0,0,0,.335.2h.016a.376.376,0,0,0,.332-.222L11.976.483A.331.331,0,0,0,12,.3ZM10.072,1.317,4.8,6.286,1.291,4.629ZM7.09,10.1,5.333,6.786,10.6,1.817Z" transform="translate(0.2 0.2)" fill="#fff" stroke="#fff" stroke-width="0.4"/>
</svg>
