<svg width="40" height="44" viewBox="0 0 40 44" fill="none" xmlns="http://www.w3.org/2000/svg">
<g filter="url(#filter0_dd_5991_8384)">
<path d="M4 11.8367C4 9.55786 5.75991 7.70833 7.92837 7.70833H31.4986C33.667 7.70833 35.4269 9.55786 35.4269 11.8367V16.9961C35.022 16.6942 34.5753 16.4594 34.1025 16.3001L33.1821 15.9934V11.8367C33.1821 11.3675 33.0048 10.9175 32.689 10.5856C32.3733 10.2538 31.9451 10.0674 31.4986 10.0674H7.92837C7.48185 10.0674 7.05362 10.2538 6.73789 10.5856C6.42216 10.9175 6.24478 11.3675 6.24478 11.8367V27.1708C6.24478 28.1475 6.99903 28.9401 7.92837 28.9401H12.9791V26.581C12.9791 25.9554 13.2156 25.3553 13.6366 24.9129C14.0576 24.4705 14.6285 24.2219 15.2239 24.2219H24.203C24.7984 24.2219 25.3693 24.4705 25.7903 24.9129C26.2113 25.3553 26.4478 25.9554 26.4478 26.581V27.0646C25.7803 27.0523 25.1204 27.2157 24.5283 27.5399C23.9363 27.8642 23.4309 28.3391 23.0582 28.9212L21.9784 30.5868L21.8168 30.8699L21.7876 30.9218C21.7251 31.0446 21.6681 31.1706 21.617 31.2992H7.92837C6.8865 31.2992 5.8873 30.8643 5.15059 30.09C4.41388 29.3158 4 28.2657 4 27.1708V11.8367Z" fill="url(#paint0_linear_5991_8384)"/>
<path d="M35.3188 20.6152C35.4363 21.1408 35.4972 21.6938 35.4995 22.272V22.336C35.4927 24.3335 34.7881 26.6348 33.3855 29.2379C33.0919 29.7864 32.7938 30.2983 32.4889 30.7736C30.9147 33.2441 29.2186 34.7662 27.3982 35.3421C26.9838 35.4718 26.5436 35.4932 26.1187 35.4045C25.6938 35.3158 25.298 35.1198 24.9681 34.8348L24.7874 34.6679L24.0895 33.9595C23.7952 33.653 23.605 33.2596 23.5465 32.8363C23.488 32.413 23.5643 31.9819 23.7643 31.6055L23.8682 31.4364L24.9229 29.8686C25.0969 29.6059 25.3365 29.3944 25.6173 29.2555C25.8981 29.1167 26.2102 29.0554 26.5219 29.0779C26.5897 29.0825 26.6597 29.0939 26.7297 29.1076L26.9149 29.1602L28.8595 29.8161C29.6364 29.2219 30.2824 28.4723 30.8018 27.5718C31.2467 26.7994 31.5358 26.0155 31.6736 25.2202L31.7301 24.8225L30.1107 23.2685C29.8486 23.011 29.6621 22.685 29.572 22.3268C29.4819 21.9685 29.4917 21.592 29.6003 21.2391L29.668 21.0448L30.4043 19.2919C30.5559 18.9035 30.8367 18.5809 31.1984 18.3798C31.56 18.1786 31.9798 18.1117 32.385 18.1904L32.5589 18.2361L33.4781 18.5332C34.3928 18.8303 35.0907 19.621 35.3166 20.6129L35.3188 20.6152Z" fill="url(#paint1_linear_5991_8384)"/>
<path d="M24.2037 17.1448C24.2037 18.3962 23.7307 19.5963 22.8888 20.4811C22.0468 21.3659 20.9049 21.863 19.7142 21.863C18.5235 21.863 17.3815 21.3659 16.5396 20.4811C15.6976 19.5963 15.2246 18.3962 15.2246 17.1448C15.2246 15.8935 15.6976 14.6934 16.5396 13.8086C17.3815 12.9238 18.5235 12.4267 19.7142 12.4267C20.9049 12.4267 22.0468 12.9238 22.8888 13.8086C23.7307 14.6934 24.2037 15.8935 24.2037 17.1448Z" fill="url(#paint2_linear_5991_8384)"/>
</g>
<defs>
<filter id="filter0_dd_5991_8384" x="-3" y="0" width="44" height="45" filterUnits="userSpaceOnUse" color-interpolation-filters="sRGB">
<feFlood flood-opacity="0" result="BackgroundImageFix"/>
<feColorMatrix in="SourceAlpha" type="matrix" values="0 0 0 0 0 0 0 0 0 0 0 0 0 0 0 0 0 0 127 0" result="hardAlpha"/>
<feOffset dy="4"/>
<feGaussianBlur stdDeviation="2"/>
<feComposite in2="hardAlpha" operator="out"/>
<feColorMatrix type="matrix" values="0 0 0 0 0 0 0 0 0 0 0 0 0 0 0 0 0 0 0.25 0"/>
<feBlend mode="normal" in2="BackgroundImageFix" result="effect1_dropShadow_5991_8384"/>
<feColorMatrix in="SourceAlpha" type="matrix" values="0 0 0 0 0 0 0 0 0 0 0 0 0 0 0 0 0 0 127 0" result="hardAlpha"/>
<feOffset dy="4"/>
<feGaussianBlur stdDeviation="2"/>
<feComposite in2="hardAlpha" operator="out"/>
<feColorMatrix type="matrix" values="0 0 0 0 0 0 0 0 0 0 0 0 0 0 0 0 0 0 0.25 0"/>
<feBlend mode="normal" in2="effect1_dropShadow_5991_8384" result="effect2_dropShadow_5991_8384"/>
<feBlend mode="normal" in="SourceGraphic" in2="effect2_dropShadow_5991_8384" result="shape"/>
</filter>
<linearGradient id="paint0_linear_5991_8384" x1="-0.942138" y1="13.8329" x2="39.584" y2="21.532" gradientUnits="userSpaceOnUse">
<stop stop-color="#634FA3"/>
<stop offset="1" stop-color="#79B7D9"/>
</linearGradient>
<linearGradient id="paint1_linear_5991_8384" x1="21.6446" y1="22.6496" x2="37.4861" y2="24.213" gradientUnits="userSpaceOnUse">
<stop stop-color="#634FA3"/>
<stop offset="1" stop-color="#79B7D9"/>
</linearGradient>
<linearGradient id="paint2_linear_5991_8384" x1="13.8126" y1="14.8765" x2="25.5924" y2="16.475" gradientUnits="userSpaceOnUse">
<stop stop-color="#634FA3"/>
<stop offset="1" stop-color="#79B7D9"/>
</linearGradient>
</defs>
</svg>
