<svg xmlns="http://www.w3.org/2000/svg" xmlns:xlink="http://www.w3.org/1999/xlink" width="12" height="12" viewBox="0 0 12 12"><defs><clipPath id="a"><rect width="12" height="12" transform="translate(-1549 972)" fill="#fff" stroke="#707070" stroke-width="1"/></clipPath></defs><g transform="translate(1549 -972)" clip-path="url(#a)"><g transform="translate(-1935 954)"><path d="M0-.5H1a.5.5,0,0,1,.5.5V1a.5.5,0,0,1-.5.5H0A.5.5,0,0,1-.5,1V0A.5.5,0,0,1,0-.5Z" transform="translate(389.5 19.5)" fill="#707070"/><path d="M0-.5H1a.5.5,0,0,1,.5.5V1a.5.5,0,0,1-.5.5H0A.5.5,0,0,1-.5,1V0A.5.5,0,0,1,0-.5Z" transform="translate(389.5 23.5)" fill="#707070"/><path d="M0-.5H1a.5.5,0,0,1,.5.5V1a.5.5,0,0,1-.5.5H0A.5.5,0,0,1-.5,1V0A.5.5,0,0,1,0-.5Z" transform="translate(389.5 27.5)" fill="#707070"/><path d="M0-.5H1a.5.5,0,0,1,.5.5V1a.5.5,0,0,1-.5.5H0A.5.5,0,0,1-.5,1V0A.5.5,0,0,1,0-.5Z" transform="translate(393.5 19.5)" fill="#707070"/><path d="M0-.5H1a.5.5,0,0,1,.5.5V1a.5.5,0,0,1-.5.5H0A.5.5,0,0,1-.5,1V0A.5.5,0,0,1,0-.5Z" transform="translate(393.5 23.5)" fill="#707070"/><path d="M0-.5H1a.5.5,0,0,1,.5.5V1a.5.5,0,0,1-.5.5H0A.5.5,0,0,1-.5,1V0A.5.5,0,0,1,0-.5Z" transform="translate(393.5 27.5)" fill="#707070"/></g></g></svg>