<svg xmlns="http://www.w3.org/2000/svg" width="11.714" height="11.713" viewBox="0 0 11.714 11.713">
  <path id="Path_33568" data-name="Path 33568" d="M11.309.3A.27.27,0,0,0,11.3.259.347.347,0,0,0,11.215.1a.347.347,0,0,0-.161-.086c-.015,0-.028-.006-.042-.008a.349.349,0,0,0-.182.018L.222,4.265A.353.353,0,0,0,.2,4.909l4.139,2.07L6.4,11.118a.353.353,0,0,0,.316.2h.015a.355.355,0,0,0,.313-.222L11.292.483A.35.35,0,0,0,11.309.3ZM9.5,1.317,4.528,6.286,1.217,4.629ZM6.684,10.1,5.028,6.786,10,1.817Z" transform="translate(0.2 0.2)" fill="#2979ff" stroke="#2979ff" stroke-width="0.4"/>
</svg>
