<svg width="36" height="37" viewBox="0 0 36 37" fill="none" xmlns="http://www.w3.org/2000/svg">
<path fill-rule="evenodd" clip-rule="evenodd" d="M6.04892 10.6022C5.84367 11.0098 5.72727 11.4758 5.72727 11.9706V25.0294C5.72727 26.6321 6.94831 27.9314 8.45455 27.9314H18C18.7531 27.9314 19.3636 28.581 19.3636 29.3824C19.3636 30.1837 18.7531 30.8333 18 30.8333H8.45455C5.44208 30.8333 3 28.2348 3 25.0294V11.9706C3 8.76518 5.44208 6.16667 8.45455 6.16667H27.5455C30.5579 6.16667 33 8.76518 33 11.9706V17.049C33 17.8504 32.3895 18.5 31.6364 18.5C30.8832 18.5 30.2727 17.8504 30.2727 17.049V11.9706C30.2727 11.4759 30.1564 11.0101 29.9512 10.6025L20.4853 18.3048C19.0185 19.4983 16.9821 19.4983 15.5152 18.3048L6.04892 10.6022ZM27.3466 9.06863H8.65395L17.1719 15.9996C17.6609 16.3974 18.3397 16.3974 18.8286 15.9996L27.3466 9.06863ZM29.1915 21.1015C28.659 20.5348 27.7956 20.5348 27.263 21.1015C26.7305 21.6681 26.7305 22.5868 27.263 23.1535L28.3443 24.3039H22.0909C21.3378 24.3039 20.7273 24.9536 20.7273 25.7549C20.7273 26.5563 21.3378 27.2059 22.0909 27.2059H28.3443L27.263 28.3564C26.7305 28.923 26.7305 29.8417 27.263 30.4084C27.7956 30.975 28.659 30.975 29.1915 30.4084L32.6006 26.7809C33.1331 26.2143 33.1331 25.2955 32.6006 24.7289L29.1915 21.1015Z" fill="url(#paint0_linear_5991_8373)"/>
<defs>
<linearGradient id="paint0_linear_5991_8373" x1="-1.71774" y1="12.5705" x2="37.194" y2="19.3195" gradientUnits="userSpaceOnUse">
<stop stop-color="#634FA3"/>
<stop offset="1" stop-color="#79B7D9"/>
</linearGradient>
</defs>
</svg>
