<svg width="36" height="36" viewBox="0 0 36 36" fill="none" xmlns="http://www.w3.org/2000/svg">
<path d="M18 3C15.0333 3 12.1332 3.87973 9.66646 5.52796C7.19972 7.17618 5.27713 9.51886 4.14181 12.2597C3.0065 15.0006 2.70945 18.0166 3.28823 20.9264C3.86701 23.8361 5.29562 26.5088 7.39341 28.6066C9.4912 30.7044 12.1639 32.133 15.0737 32.7118C17.9834 33.2906 20.9994 32.9935 23.7403 31.8582C26.4812 30.7229 28.8238 28.8003 30.4721 26.3335C32.1203 23.8668 33 20.9667 33 18C32.9955 14.0231 31.4137 10.2104 28.6017 7.39837C25.7896 4.5863 21.9769 3.0045 18 3ZM18 31C15.935 31 13.773 28.338 12.7 24H23.3C22.227 28.338 20.065 31 18 31ZM12.294 22C11.902 19.3477 11.902 16.6523 12.294 14H23.706C23.9043 15.3241 24.0026 16.6612 24 18C24.0026 19.3388 23.9043 20.6759 23.706 22H12.294ZM5.00001 18C5.00073 16.6415 5.21536 15.2917 5.63601 14H10.286C9.90468 16.653 9.90468 19.347 10.286 22H5.63601C5.21536 20.7083 5.00073 19.3584 5.00001 18ZM18 5C20.065 5 22.227 7.662 23.3 12H12.7C13.773 7.662 15.935 5 18 5ZM25.714 14H30.364C31.2118 16.5993 31.2118 19.4007 30.364 22H25.714C25.9037 20.6751 25.9992 19.3384 26 18C25.9992 16.6616 25.9037 15.3249 25.714 14ZM29.521 12H25.354C24.909 9.82502 24.0365 7.76008 22.787 5.925C25.6852 7.0808 28.0739 9.23577 29.521 12ZM13.213 5.925C11.9636 7.76008 11.091 9.82502 10.646 12H6.47901C7.92613 9.23577 10.3149 7.0808 13.213 5.925ZM6.47901 24H10.646C11.091 26.175 11.9636 28.2399 13.213 30.075C10.3149 28.9192 7.92613 26.7642 6.47901 24ZM22.787 30.075C24.0365 28.2399 24.909 26.175 25.354 24H29.521C28.0739 26.7642 25.6852 28.9192 22.787 30.075Z" fill="url(#paint0_linear_5991_8379)" stroke="url(#paint1_linear_5991_8379)" stroke-width="0.3"/>
<defs>
<linearGradient id="paint0_linear_5991_8379" x1="-1.71775" y1="10.7885" x2="37.5656" y2="16.3906" gradientUnits="userSpaceOnUse">
<stop stop-color="#634FA3"/>
<stop offset="1" stop-color="#79B7D9"/>
</linearGradient>
<linearGradient id="paint1_linear_5991_8379" x1="-1.71775" y1="10.7885" x2="37.5656" y2="16.3906" gradientUnits="userSpaceOnUse">
<stop stop-color="#634FA3"/>
<stop offset="1" stop-color="#79B7D9"/>
</linearGradient>
</defs>
</svg>
