<svg id="img_XacThucTaiKhoan" xmlns="http://www.w3.org/2000/svg" width="322.837" height="280" viewBox="0 0 322.837 280">
  <path id="Path_12031" data-name="Path 12031" d="M22.42,0C34.8,0,44.841,5.8,44.841,12.944S34.8,25.889,22.42,25.889,0,20.093,0,12.944,10.038,0,22.42,0Z" transform="translate(37.512 250.253)" fill="#e1ecf3"/>
  <g id="Group_9915" data-name="Group 9915" transform="translate(59.926)">
    <g id="Group_9913" data-name="Group 9913" transform="translate(0)">
      <path id="Path_11383" data-name="Path 11383" d="M417.993,319.963,490.71,278.5c2.659-1.536,2.326-4.218-.745-5.991l-41.84-24.156c-3.071-1.773-7.716-1.965-10.375-.43l-72.717,41.464c-2.659,1.535-2.326,4.217.745,5.99l41.84,24.156C410.688,321.306,415.333,321.5,417.993,319.963Z" transform="translate(-358.535 -57.091)" fill="#e1ecf3"/>
      <path id="Path_11384" data-name="Path 11384" d="M358.029,256.58h0V86.818l67.488-17.664,12.431-7.177c2.852-1.647,7.836-1.441,11.13.461l11.6,6.7,36-.02L486.015,233a3.226,3.226,0,0,1-1.911,2.982L416.754,286.8c-2.852,1.647-7.836,1.441-11.13-.461L360.74,260.421C358.839,259.325,357.923,257.9,358.029,256.58Z" transform="translate(-358.014 -38.243)" fill="#2979ff"/>
      <path id="Path_11385" data-name="Path 11385" d="M390.342,60.875a12.841,12.841,0,0,1,5.966,1.565l11.6,6.7,36-.02V239.335a3.225,3.225,0,0,1-1.911,2.982L363.983,286.8a10.074,10.074,0,0,1-5.166,1.1l-.8-171.282Z" transform="translate(-305.244 -38.244)" fill="#e9f4ff"/>
      <path id="Path_11386" data-name="Path 11386" d="M456.645,293.2a12.675,12.675,0,0,1-8.9-.1V120.651h8.9Z" transform="translate(-398.622 -44.301)" fill="#2796f7"/>
      <path id="Path_11387" data-name="Path 11387" d="M416.743,114.087l78.009-44.481c2.852-1.647,2.495-4.525-.8-6.426L449.069,37.267c-3.295-1.9-8.278-2.109-11.13-.462L359.93,81.286c-2.852,1.647-2.495,4.524.8,6.426l44.884,25.913C408.908,115.528,413.891,115.734,416.743,114.087Z" transform="translate(-358.004 -35.693)" fill="#e9f4ff"/>
      <path id="Path_11388" data-name="Path 11388" d="M360.723,87.881l44.884,25.913c3.295,1.9,8.278,2.108,11.13.461l78.009-44.481a4.3,4.3,0,0,0,1.424-1.263c.98,1.577.535,3.288-1.424,4.42l-78.009,44.481c-2.852,1.646-7.836,1.441-11.13-.462L360.723,91.037c-2.56-1.478-3.338-3.543-2.223-5.163A6.228,6.228,0,0,0,360.723,87.881Z" transform="translate(-357.998 -39.018)" fill="#fafdff"/>
      <g id="Group_9904" data-name="Group 9904" transform="translate(29.046 14.391)">
        <path id="Path_11389" data-name="Path 11389" d="M418.1,97.682l51.936-30.106c1.335-.771,1.167-2.117-.375-3.008l-21-12.126a5.787,5.787,0,0,0-5.209-.216L391.513,82.333c-1.335.77-1.168,2.116.374,3.007l21,12.126A5.79,5.79,0,0,0,418.1,97.682Z" transform="translate(-390.611 -51.707)" fill="#1788f8"/>
        <g id="Group_9903" data-name="Group 9903" transform="translate(21.56 13.289)">
          <path id="Path_11390" data-name="Path 11390" d="M418.522,70.427l3.01-1.737c.184-.107.161-.293-.052-.416L418.573,66.6a.8.8,0,0,0-.72-.03l-3.01,1.737c-.185.107-.162.293.051.416L417.8,70.4A.8.8,0,0,0,418.522,70.427Z" transform="translate(-384.556 -66.494)" fill="#d4ecff"/>
          <path id="Path_11391" data-name="Path 11391" d="M429.71,76.86l3.01-1.737c.184-.107.161-.293-.052-.416l-2.905-1.678a.8.8,0,0,0-.721-.03l-3.01,1.737c-.185.107-.162.293.051.416l2.906,1.678A.8.8,0,0,0,429.71,76.86Z" transform="translate(-405.798 -67.145)" fill="#d4ecff"/>
          <path id="Path_11392" data-name="Path 11392" d="M440.9,83.293l3.01-1.737c.184-.107.162-.293-.052-.416l-2.905-1.678a.8.8,0,0,0-.721-.03l-3.01,1.737c-.185.107-.162.293.052.416l2.905,1.678A.8.8,0,0,0,440.9,83.293Z" transform="translate(-427.04 -67.797)" fill="#d4ecff"/>
          <path id="Path_11393" data-name="Path 11393" d="M452.085,89.726l3.01-1.737c.184-.107.162-.293-.052-.416l-2.906-1.678a.8.8,0,0,0-.721-.03l-3.01,1.737c-.184.107-.162.293.052.416l2.905,1.678A.8.8,0,0,0,452.085,89.726Z" transform="translate(-448.282 -68.449)" fill="#d4ecff"/>
        </g>
        <path id="Path_11394" data-name="Path 11394" d="M470.028,67.577l-.062.035a3.533,3.533,0,0,0-.313-.215l-21-12.127a5.792,5.792,0,0,0-5.209-.216L391.567,85.125c-1.23-.881-1.295-2.08-.061-2.792l51.935-30.106a5.787,5.787,0,0,1,5.209.216l21,12.126C471.195,65.459,471.362,66.806,470.028,67.577Z" transform="translate(-390.604 -51.707)" fill="#1976d2"/>
      </g>
      <g id="Group_9906" data-name="Group 9906" transform="translate(64.349 59.805)">
        <path id="Path_11395" data-name="Path 11395" d="M372.883,154.463l57.64-33.278a7.207,7.207,0,0,0,3.009-5.749v-10.56c0-2.215-1.347-3.234-3.009-2.275l-57.64,33.279a7.2,7.2,0,0,0-3.009,5.749v10.559C369.874,154.4,371.221,155.423,372.883,154.463Z" transform="translate(-369.874 -102.24)" fill="#2979ff"/>
        <g id="Group_9905" data-name="Group 9905" transform="translate(6.712 31.374)">
          <path id="Path_11396" data-name="Path 11396" d="M429.422,149.255l2.709-1.564a1.571,1.571,0,0,0,.656-1.254v-2.893c0-.483-.294-.705-.656-.5l-2.709,1.564a1.572,1.572,0,0,0-.656,1.254v2.893C428.766,149.243,429.06,149.465,429.422,149.255Z" transform="translate(-428.766 -137.741)" fill="#0765c2"/>
          <path id="Path_11397" data-name="Path 11397" d="M419.343,143.436l2.709-1.564a1.572,1.572,0,0,0,.656-1.253v-2.894c0-.483-.294-.705-.656-.5l-2.709,1.564a1.572,1.572,0,0,0-.656,1.254v2.893C418.687,143.424,418.981,143.646,419.343,143.436Z" transform="translate(-409.629 -137.151)" fill="#0765c2"/>
        </g>
      </g>
      <g id="Group_9908" data-name="Group 9908" transform="translate(64.349 97.959)">
        <path id="Path_11398" data-name="Path 11398" d="M372.883,196.919l57.64-33.279a7.2,7.2,0,0,0,3.009-5.749V147.332c0-2.216-1.347-3.234-3.009-2.275l-57.64,33.279a7.2,7.2,0,0,0-3.009,5.749v10.56C369.874,196.861,371.221,197.879,372.883,196.919Z" transform="translate(-369.874 -144.696)" fill="#2979ff"/>
        <g id="Group_9907" data-name="Group 9907" transform="translate(6.712 31.374)">
          <path id="Path_11399" data-name="Path 11399" d="M429.422,191.711l2.709-1.565a1.568,1.568,0,0,0,.656-1.253V186c0-.483-.294-.7-.656-.5l-2.709,1.564a1.571,1.571,0,0,0-.656,1.253v2.894C428.766,191.7,429.06,191.92,429.422,191.711Z" transform="translate(-428.766 -180.197)" fill="#0765c2"/>
          <path id="Path_11400" data-name="Path 11400" d="M419.343,185.892l2.709-1.565a1.569,1.569,0,0,0,.656-1.253v-2.893c0-.483-.294-.705-.656-.5l-2.709,1.564a1.571,1.571,0,0,0-.656,1.253V185.4C418.687,185.879,418.981,186.1,419.343,185.892Z" transform="translate(-409.629 -179.607)" fill="#0765c2"/>
        </g>
      </g>
      <g id="Group_9910" data-name="Group 9910" transform="translate(64.349 136.113)">
        <path id="Path_11401" data-name="Path 11401" d="M372.883,239.375l57.64-33.279a7.207,7.207,0,0,0,3.009-5.749v-10.56c0-2.215-1.347-3.233-3.009-2.275l-57.64,33.279a7.207,7.207,0,0,0-3.009,5.749V237.1C369.874,239.316,371.221,240.335,372.883,239.375Z" transform="translate(-369.874 -187.152)" fill="#2979ff"/>
        <g id="Group_9909" data-name="Group 9909" transform="translate(6.712 31.374)">
          <path id="Path_11402" data-name="Path 11402" d="M429.422,234.166l2.709-1.564a1.571,1.571,0,0,0,.656-1.253v-2.894c0-.483-.294-.7-.656-.5l-2.709,1.565a1.57,1.57,0,0,0-.656,1.253v2.894C428.766,234.154,429.06,234.376,429.422,234.166Z" transform="translate(-428.766 -222.653)" fill="#fff"/>
          <path id="Path_11403" data-name="Path 11403" d="M419.343,228.347l2.709-1.564a1.57,1.57,0,0,0,.656-1.253v-2.894c0-.483-.294-.7-.656-.5l-2.709,1.564a1.57,1.57,0,0,0-.656,1.253v2.894C418.687,228.335,418.981,228.557,419.343,228.347Z" transform="translate(-409.629 -222.063)" fill="#fff"/>
        </g>
      </g>
      <g id="Group_9912" data-name="Group 9912" transform="translate(64.349 174.267)">
        <path id="Path_11404" data-name="Path 11404" d="M372.883,281.831l57.64-33.279a7.207,7.207,0,0,0,3.009-5.749v-10.56c0-2.215-1.347-3.233-3.009-2.275l-57.64,33.279A7.207,7.207,0,0,0,369.874,269v10.56C369.874,281.772,371.221,282.79,372.883,281.831Z" transform="translate(-369.874 -229.608)" fill="#2979ff"/>
        <g id="Group_9911" data-name="Group 9911" transform="translate(6.712 31.374)">
          <path id="Path_11405" data-name="Path 11405" d="M429.422,276.622l2.709-1.564a1.571,1.571,0,0,0,.656-1.253v-2.894c0-.483-.294-.705-.656-.5l-2.709,1.564a1.572,1.572,0,0,0-.656,1.254v2.893C428.766,276.61,429.06,276.832,429.422,276.622Z" transform="translate(-428.766 -265.108)" fill="#fff"/>
          <path id="Path_11406" data-name="Path 11406" d="M419.343,270.8l2.709-1.564a1.571,1.571,0,0,0,.656-1.253v-2.894c0-.483-.294-.7-.656-.5l-2.709,1.564a1.572,1.572,0,0,0-.656,1.254v2.893C418.687,270.791,418.981,271.013,419.343,270.8Z" transform="translate(-409.629 -264.519)" fill="#fff"/>
        </g>
      </g>
    </g>
    <g id="Group_9914" data-name="Group 9914" transform="translate(6.308 76.177)">
      <path id="Path_11407" data-name="Path 11407" d="M498.278,156.309,468.749,139.4a7.2,7.2,0,0,1-3.009-5.749V123.094c0-2.216,1.347-3.234,3.009-2.275l29.529,16.907a7.2,7.2,0,0,1,3.009,5.749v10.559C501.286,156.251,499.939,157.269,498.278,156.309Z" transform="translate(-465.74 -120.458)" fill="#1d6dbc"/>
      <path id="Path_11408" data-name="Path 11408" d="M498.278,198.765l-29.529-16.907a7.207,7.207,0,0,1-3.009-5.749v-10.56c0-2.215,1.347-3.233,3.009-2.275l29.529,16.908a7.2,7.2,0,0,1,3.009,5.749v10.56C501.286,198.707,499.939,199.725,498.278,198.765Z" transform="translate(-465.74 -124.76)" fill="#1d6dbc"/>
      <path id="Path_11409" data-name="Path 11409" d="M498.278,241.221l-29.529-16.907a7.207,7.207,0,0,1-3.009-5.749V208c0-2.215,1.347-3.233,3.009-2.275l29.529,16.907a7.207,7.207,0,0,1,3.009,5.749v10.56C501.286,241.162,499.939,242.181,498.278,241.221Z" transform="translate(-465.74 -129.061)" fill="#1d6dbc"/>
      <path id="Path_11410" data-name="Path 11410" d="M498.278,283.677l-29.529-16.908a7.2,7.2,0,0,1-3.009-5.749V250.461c0-2.216,1.347-3.234,3.009-2.275l29.529,16.907a7.207,7.207,0,0,1,3.009,5.749V281.4C501.286,283.617,499.939,284.636,498.278,283.677Z" transform="translate(-465.74 -133.363)" fill="#1d6dbc"/>
    </g>
  </g>
  <path id="Path_11411" data-name="Path 11411" d="M358.018,131.209l29.378-20.6a291.423,291.423,0,0,1,31.625-19.377V242.41a3.225,3.225,0,0,1-1.911,2.982l-23.225,13.243c-37.135-6.914-35.866-48.279-35.866-48.279Z" transform="translate(-220.436 -41.32)" fill="#3388dc" opacity="0.38"/>
  <g id="Group_9917" data-name="Group 9917" transform="translate(155.644 37.404)">
    <path id="Path_11412" data-name="Path 11412" d="M277.581,216.142V136.993l29.377-20.6a278.45,278.45,0,0,1,44.614-25.759l29.377-13.321,11.862,6.945-13.126,9.518v61.957S381.3,206.241,328,264.525a62.564,62.564,0,0,1-17.956-1.281l.883,2.869-10.435-6.148q-1.351-.725-2.6-1.526l-.148-.087.009,0C276.707,244.737,277.581,216.142,277.581,216.142Z" transform="translate(-277.576 -77.314)" fill="#1d6dbc"/>
    <path id="Path_11413" data-name="Path 11413" d="M277.576,102.1q11.14-6.427,22.248-11.468L329.2,77.314l11.862,6.945-13.126,9.518v37.4Z" transform="translate(-225.828 -77.314)" fill="#1d6dbc"/>
    <path id="Path_11414" data-name="Path 11414" d="M329.686,98.661l24.756,14.293L334.05,124.728l-24.764-14.3Q319.481,103.975,329.686,98.661Z" transform="translate(-267.704 -79.477)" fill="#1367b9"/>
    <path id="Path_11415" data-name="Path 11415" d="M277.575,223.87V144.722l29.377-20.6a278.414,278.414,0,0,1,44.614-25.758l29.378-13.322V164.19s1.611,50.508-51.685,108.791C275.964,276.238,277.575,223.87,277.575,223.87Z" transform="translate(-265.709 -78.097)" fill="#006edb"/>
    <path id="Path_11416" data-name="Path 11416" d="M299.05,256.61c6.412,6.222,15.529,9.327,27.139,9.2,47.392-53.387,46.91-99.364,46.9-99.793l0-65.687-16.861,7.647a269.973,269.973,0,0,0-43.186,24.942l-25.606,17.957v74.54l0,.272C287.422,225.883,287.173,245.087,299.05,256.61Z" transform="translate(-266.709 -79.646)" fill="#2979ff"/>
    <g id="Group_9916" data-name="Group 9916" transform="translate(54.369 97.624)">
      <path id="Path_11417" data-name="Path 11417" d="M344.78,197.2a5.132,5.132,0,0,1-2.322,4.021c-1.282.74-2.321.14-2.321-1.341a5.133,5.133,0,0,1,2.321-4.021C343.741,195.118,344.78,195.718,344.78,197.2Z" transform="translate(-340.137 -186.916)" fill="#fff"/>
      <path id="Path_11418" data-name="Path 11418" d="M336.469,192.4a5.133,5.133,0,0,1-2.321,4.021c-1.282.741-2.322.14-2.322-1.34a5.129,5.129,0,0,1,2.322-4.021C335.43,190.32,336.469,190.92,336.469,192.4Z" transform="translate(-324.357 -186.43)" fill="#fff"/>
      <path id="Path_11419" data-name="Path 11419" d="M328.158,187.6a5.131,5.131,0,0,1-2.321,4.022c-1.282.74-2.321.14-2.321-1.341a5.131,5.131,0,0,1,2.321-4.021C327.119,185.521,328.158,186.121,328.158,187.6Z" transform="translate(-308.576 -185.944)" fill="#fff"/>
    </g>
  </g>
  <g id="Group_9921" data-name="Group 9921" transform="translate(267.769 172.598)">
    <g id="Group_9919" data-name="Group 9919" transform="translate(0)">
      <g id="Group_9918" data-name="Group 9918">
        <path id="Path_11420" data-name="Path 11420" d="M250.7,285.151l18.145-10.558c1.531-.884,1.339-2.428-.43-3.449L251.12,261.068a6.643,6.643,0,0,0-5.974-.247L227,271.378c-1.531.884-1.339,2.429.43,3.45L244.724,284.9A6.64,6.64,0,0,0,250.7,285.151Z" transform="translate(-220.388 -231.04)" fill="#e1ecf3"/>
        <path id="Path_11421" data-name="Path 11421" d="M219.77,250.021h0v-4.558l24.209-.013-.167-.005a8.328,8.328,0,0,1,7.492.31l-.717-.3,24.231-.013v4.866a2.17,2.17,0,0,1-1.287,2.007l-22.755,13.24a8.326,8.326,0,0,1-7.492-.311L221.6,252.606C220.316,251.868,219.7,250.911,219.77,250.021Z" transform="translate(-219.761 -229.467)" fill="#248ef6"/>
        <path id="Path_11422" data-name="Path 11422" d="M219.765,244.7a8.643,8.643,0,0,1,4.016,1.053l-.717-.3,24.231-.013v4.866a2.17,2.17,0,0,1-1.287,2.007l-22.755,13.24a6.782,6.782,0,0,1-3.477.743Z" transform="translate(-192.237 -229.467)" fill="#2485e5"/>
        <path id="Path_11423" data-name="Path 11423" d="M219.765,245.527l2.743,0v4.866a2.17,2.17,0,0,1-1.287,2.007l-1.456.841Z" transform="translate(-167.449 -229.551)" fill="#2979ff"/>
        <path id="Path_11424" data-name="Path 11424" d="M253.049,267.443a8.541,8.541,0,0,1-5.99-.069v-6.369h5.99Z" transform="translate(-222.515 -231.119)" fill="#117fec"/>
        <path id="Path_11425" data-name="Path 11425" d="M250.775,259.011l22.755-13.239c1.92-1.109,1.68-3.046-.537-4.326L251.3,228.809a8.328,8.328,0,0,0-7.492-.31l-22.755,13.239c-1.921,1.109-1.68,3.046.538,4.326L243.283,258.7A8.328,8.328,0,0,0,250.775,259.011Z" transform="translate(-219.759 -227.75)" fill="#ebf5ff"/>
      </g>
    </g>
    <g id="Group_9920" data-name="Group 9920" transform="translate(16.722 9.703)">
      <path id="Path_11426" data-name="Path 11426" d="M241.273,241.544a4.733,4.733,0,0,0,4.286-.021,1.306,1.306,0,0,0-.012-2.475,4.737,4.737,0,0,0-4.287.022A1.306,1.306,0,0,0,241.273,241.544Z" transform="translate(-226.626 -238.547)" fill="#2979ff"/>
      <path id="Path_11427" data-name="Path 11427" d="M248.925,246.012a4.738,4.738,0,0,0,4.287-.021,1.306,1.306,0,0,0-.013-2.475,4.737,4.737,0,0,0-4.287.021A1.306,1.306,0,0,0,248.925,246.012Z" transform="translate(-241.155 -238.999)" fill="#2979ff"/>
      <path id="Path_11428" data-name="Path 11428" d="M256.577,250.48a4.74,4.74,0,0,0,4.287-.021,1.307,1.307,0,0,0-.012-2.475,4.737,4.737,0,0,0-4.287.021A1.306,1.306,0,0,0,256.577,250.48Z" transform="translate(-255.683 -239.452)" fill="#2979ff"/>
    </g>
  </g>
  <g id="Group_9925" data-name="Group 9925" transform="translate(29.819 122.636)">
    <path id="Path_11429" data-name="Path 11429" d="M503.759,185.352s.475,9.813,1.222,16.408,16.63-5.066,16.63-5.066v-7.508Z" transform="translate(-483.817 -173.492)" fill="#3e3e3e"/>
    <g id="Group_9923" data-name="Group 9923" transform="translate(8.367 3.885)">
      <path id="Path_11430" data-name="Path 11430" d="M499.532,320.76c.239.6,4.354,5.607,8.469,6.859a9.468,9.468,0,0,0,3.781.522,1.246,1.246,0,0,0,1.013-1.661,15.633,15.633,0,0,0-7.895-8.7C497.921,314.319,499.532,320.76,499.532,320.76Z" transform="translate(-479.498 -190.692)" fill="#1e1e1e"/>
      <path id="Path_11431" data-name="Path 11431" d="M519.183,323.353a34.073,34.073,0,0,1,2.027,6.68c.291,1.855-.727,4.265-1.565,5.863a1.713,1.713,0,0,1-2.669.462,9.9,9.9,0,0,1-3.34-6.385c-.477-5.129,0-6.024,0-6.024Z" transform="translate(-500.521 -191.36)" fill="#1e1e1e"/>
      <path id="Path_11432" data-name="Path 11432" d="M498.832,253.8a97.6,97.6,0,0,0,0,13.627c.537,7.157,2.459,40.627,2.816,48.68,0,0-.179,2.438,4.54,1.9s4.339-3.242,4.339-3.242,6.628-.09,6.837-4,6.788-46.65,6.788-62.017Z" transform="translate(-490.084 -183.801)" fill="#414141"/>
      <g id="Group_9922" data-name="Group 9922" transform="translate(0)">
        <path id="Path_11433" data-name="Path 11433" d="M493.009,217.206l3.822,23.377,3.478-.061-.32-21.422Z" transform="translate(-461.222 -180.605)" fill="#ffc2b0"/>
        <path id="Path_11434" data-name="Path 11434" d="M492.6,194.172s5.158-.134,6.954,7.321,3.2,16.789,1.638,17.565c-4.688,2.328-7.655-.4-7.655-.4Z" transform="translate(-462.418 -178.271)" fill="#bc9700"/>
        <path id="Path_11435" data-name="Path 11435" d="M523.6,194.488a4.22,4.22,0,0,0-2.784-.153c-4.394,1.262-20.918,6.111-23.641,8.439-3.146,2.69,4.718,17.8,4.6,22.755s-.672,10.8-1.11,16.182-1.03,8.339,3.375,10.629,11.927,2.4,17.557-1.894,4.609-7.226,4.375-10.341-2.151-16.585-1.985-20.409a14.476,14.476,0,0,0,3.454-3.968c1.47-2.506-1.126-7.114-2.2-10.109s.608-6.42.275-8.864A2.775,2.775,0,0,0,523.6,194.488Z" transform="translate(-491.867 -178.271)" fill="#eebf00"/>
        <path id="Path_11436" data-name="Path 11436" d="M519.487,199.784c.349,2.721-2.148,5.284-5.576,5.723s-6.49-1.411-6.839-4.133,2.148-5.283,5.576-5.723S519.138,197.062,519.487,199.784Z" transform="translate(-493.04 -178.415)" fill="#fff"/>
        <path id="Path_11437" data-name="Path 11437" d="M517.917,200.171c.249,1.946-1.536,3.777-3.986,4.091s-4.639-1.008-4.889-2.954,1.536-3.776,3.987-4.091S517.667,198.226,517.917,200.171Z" transform="translate(-493.24 -178.575)" fill="#ffc2b0"/>
        <path id="Path_11438" data-name="Path 11438" d="M514.961,193.227s-2.983-2.453-3.569-1.211-1.069,6.574-1.069,6.574l5.923,1.592-.9-5.4S516.534,193.774,514.961,193.227Z" transform="translate(-492.72 -178.017)" fill="#ffc2b0"/>
        <path id="Path_11439" data-name="Path 11439" d="M519.109,185.845a8.844,8.844,0,1,1-8.307-9.351A8.844,8.844,0,0,1,519.109,185.845Z" transform="translate(-487.611 -176.479)" fill="#ffc2b0"/>
        <path id="Path_11440" data-name="Path 11440" d="M510.717,193.727c-.052.279-.1.577-.15.882.6,3.077,5.2,4.424,5.2,4.424l-.68-4.088s.557-.473.4-.947C513.667,193.424,511.373,192.915,510.717,193.727Z" transform="translate(-492.458 -178.183)" fill="#ea9c92"/>
        <path id="Path_11441" data-name="Path 11441" d="M519.109,185.845a8.844,8.844,0,1,1-8.307-9.351A8.844,8.844,0,0,1,519.109,185.845Z" transform="translate(-487.611 -176.479)" fill="#ffc2b0"/>
        <path id="Path_11442" data-name="Path 11442" d="M528.068,227.978l.99,23.667,3.46.357L534.77,230.7Z" transform="translate(-527.19 -181.697)" fill="#ffc2b0"/>
        <path id="Path_11443" data-name="Path 11443" d="M527.019,223.948c-1.145-5.053-3.407-16.219-3.407-16.219l-.967,11.106c1.115,3.294,2.074,6.317,2.034,8.068-.066,2.908-.288,6.123-.546,9.371v.01S528.164,229,527.019,223.948Z" transform="translate(-514.77 -179.645)" fill="#bc9700"/>
        <path id="Path_11444" data-name="Path 11444" d="M532.338,203.2s-2.766,1.058-4.332,9.556-2.736,17.011.055,18.108,5.124,1.921,5.945-.351,1.329-13.225,1.432-17.165S535.691,203.982,532.338,203.2Z" transform="translate(-526.373 -179.186)" fill="#eebf00"/>
      </g>
      <path id="Path_11445" data-name="Path 11445" d="M510.2,316.319a13.674,13.674,0,0,0,1.895-.2h0l1.3-52.029Z" transform="translate(-489.759 -185.356)" fill="#2b2b2b"/>
    </g>
    <g id="Group_9924" data-name="Group 9924" transform="translate(0 72.981)">
      <path id="Path_11446" data-name="Path 11446" d="M541.134,287.127l-1.841-2.4-19.361-11.209a2.694,2.694,0,0,1-1.122-2.15l.017-15.852-1.114-1.453,1.046-.606v0a.706.706,0,0,1,.759.044l21.941,12.7a2.7,2.7,0,0,1,1.123,2.151l-.019,17.263a.978.978,0,0,1-.41.92h0Z" transform="translate(-517.331 -253.365)" fill="#248ef6"/>
      <path id="Path_11447" data-name="Path 11447" d="M528.074,278.038l-1.376-.8-7.551-13.115.008-8.614-1.114-1.453,1.046-.606v0a.706.706,0,0,1,.759.044l21.941,12.7a2.283,2.283,0,0,1,.828.967Z" transform="translate(-517.659 -253.365)" fill="#2979ff"/>
      <path id="Path_11448" data-name="Path 11448" d="M543.442,254.7l-.494-.645,1.046-.606v0a.706.706,0,0,1,.759.044l.386.224Z" transform="translate(-542.565 -253.365)" fill="#117fec"/>
      <path id="Path_11449" data-name="Path 11449" d="M519.976,267.807a2.809,2.809,0,0,1,.917,1.848l-2.144,1.238-1.027-1.785Z" transform="translate(-495.646 -254.828)" fill="#117fec"/>
      <path id="Path_11450" data-name="Path 11450" d="M541.963,266.876l-21.942-12.7c-.62-.36-1.124.021-1.125.849l-.019,17.262a2.694,2.694,0,0,0,1.122,2.15l21.941,12.7c.621.36,1.124-.021,1.125-.849l.019-17.262A2.694,2.694,0,0,0,541.963,266.876Z" transform="translate(-518.877 -253.433)" fill="#505050"/>
    </g>
    <path id="Path_11451" data-name="Path 11451" d="M530.282,253.769a53.615,53.615,0,0,0-.777,7.294c.137,1.77,1.085,4.688,1.8,4.626s.023-7.115,1.286-6.413,1.395,1.908,1.966,1.483-1-6.455-.578-9.069S530.282,253.769,530.282,253.769Z" transform="translate(-520.018 -180.133)" fill="#ffc2b0"/>
    <path id="Path_11452" data-name="Path 11452" d="M496.535,242.827a53.625,53.625,0,0,1,.777,7.294c-.138,1.77-1.085,4.688-1.8,4.626s-.023-7.116-1.286-6.413-1.395,1.908-1.966,1.482,1-6.454.579-9.069S496.535,242.827,496.535,242.827Z" transform="translate(-449.081 -179.025)" fill="#ffc2b0"/>
    <path id="Path_11453" data-name="Path 11453" d="M507.81,186.658c4.437,1.575,5.3.615,5.343.563.04-.268.073-.537.089-.813a8.847,8.847,0,0,0-.295-2.826l-11.51-1.554A12.547,12.547,0,0,0,507.81,186.658Z" transform="translate(-473.377 -173.156)" fill="#ea9c92"/>
    <path id="Path_11454" data-name="Path 11454" d="M519.046,176.6c-1.046-.9-4.819-5.327-11.578-4.281-4.225.653-7.785,3.535-8.575,10.108a15.111,15.111,0,0,0,4.088,12.017,3.7,3.7,0,0,0,.48-.243c1.693-1.114,1.876-1.727,1.876-1.733l.374-3.355a.937.937,0,0,0-.843-.929,1.691,1.691,0,0,1-1.239-.755c-.97-1.27-.522-3.249,1.419-3.323A1.49,1.49,0,0,0,506.6,183a.8.8,0,0,1,1.036-.539c2.209.8,7.652,2.523,11.155,1.53C523.271,182.72,520.091,177.492,519.046,176.6Z" transform="translate(-478.862 -172.155)" fill="#3e3e3e"/>
    <path id="Path_11456" data-name="Path 11456" d="M531.58,261.531l-2.305-1.32.866,1.414,1.165.43Z" transform="translate(-516.717 -181.077)" fill="#2979ff"/>
  </g>
  <g id="Group_9926" data-name="Group 9926" transform="translate(183.92 227.821)">
    <path id="Path_11457" data-name="Path 11457" d="M266.7,293.309c9.49-5.478,24.876-5.479,34.365,0s9.49,14.362,0,19.841-24.876,5.479-34.365,0S257.214,298.788,266.7,293.309Zm17.772,10.108a9.766,9.766,0,0,0,8.838,0c2.441-1.409,2.441-3.694,0-5.1a9.766,9.766,0,0,0-8.838,0C282.035,299.724,282.035,302.008,284.476,303.417Z" transform="translate(-205.061 -289.2)" fill="#e1ecf3"/>
    <path id="Path_11458" data-name="Path 11458" d="M355.931,310.952a22.762,22.762,0,0,0,4.7,3.53,33.587,33.587,0,0,0,6.114,2.716l-4.645,2.682-7,.36-3.463,2,1.413.817-2.621,1.513-2.827-1.632-4.581,2.644,4.6,2.657-3.383,1.953-3.281,1.894-4.088-2.361-6.058,3.5,2.313,1.335-3.892,2.247-2.313-1.335-1.826,1.054,1.84,3.658-5.887,3.4H299.415Z" transform="translate(-299.415 -291.404)" fill="#e1ecf3"/>
  </g>
  <g id="Group_9928" data-name="Group 9928" transform="translate(183.92 219.323)">
    <path id="Path_11459" data-name="Path 11459" d="M259.587,301.084v-6.57l1.936,1.093a16.685,16.685,0,0,1,5.181-4.432c9.49-5.479,24.876-5.479,34.365,0a15.852,15.852,0,0,1,5.7,5.2l1.414-1.859v6.569c.005,3.595-2.367,7.189-7.117,9.931-9.49,5.479-24.876,5.479-34.365,0C261.954,308.273,259.582,304.678,259.587,301.084Zm24.972-4.282a9.767,9.767,0,0,0,8.838,0c2.441-1.409,2.441-3.694,0-5.1a9.766,9.766,0,0,0-8.838,0C282.118,293.109,282.118,295.393,284.559,296.8Z" transform="translate(-205.061 -280.484)" fill="#e8a200"/>
    <path id="Path_11460" data-name="Path 11460" d="M259.587,307.1l10.486-5.169,9.318-6.155a11.918,11.918,0,0,1,1.047,1.434l1.414-1.859v6.569c.005,3.595-2.367,7.189-7.117,9.931a34.07,34.07,0,0,1-15.148,4.057Z" transform="translate(-178.727 -281.324)" fill="#fdd762"/>
    <path id="Path_11461" data-name="Path 11461" d="M266.7,283.852c9.49-5.478,24.876-5.479,34.365,0s9.49,14.362,0,19.841-24.876,5.479-34.365,0S257.214,289.331,266.7,283.852Zm17.772,10.108a9.766,9.766,0,0,0,8.838,0c2.441-1.409,2.441-3.693,0-5.1a9.765,9.765,0,0,0-8.838,0C282.035,290.266,282.035,292.551,284.476,293.96Z" transform="translate(-205.061 -279.743)" fill="#fdd762"/>
    <path id="Path_11462" data-name="Path 11462" d="M272.694,288.175h13.188a34,34,0,0,1,3.51,1.007v11.177h-16.7Zm4.85,8.74a9.766,9.766,0,0,0,8.838,0c2.441-1.409,2.441-3.693,0-5.1a9.767,9.767,0,0,0-8.838,0C275.1,293.221,275.1,295.506,277.544,296.915Z" transform="translate(-198.046 -280.597)" fill="#e8a200"/>
    <path id="Path_11463" data-name="Path 11463" d="M269.066,285.216c8.364-4.829,21.926-4.83,30.29,0s8.364,12.659,0,17.488-21.927,4.829-30.291,0S260.7,290.045,269.066,285.216Zm15.734,8.932a9.766,9.766,0,0,0,8.838,0c2.441-1.409,2.441-3.694,0-5.1a9.766,9.766,0,0,0-8.838,0C282.359,290.454,282.359,292.738,284.8,294.148Z" transform="translate(-205.385 -279.93)" fill="#f2b42a"/>
    <path id="Path_11464" data-name="Path 11464" d="M299.357,287.029c-8.364-4.829-21.926-4.829-30.29,0-3.783,2.184-5.849,4.981-6.211,7.837-.438-3.46,1.628-7.006,6.211-9.652,8.364-4.829,21.926-4.83,30.29,0,4.582,2.646,6.648,6.191,6.21,9.651C305.206,292.011,303.14,289.213,299.357,287.029Z" transform="translate(-205.386 -279.93)" fill="#e8a200"/>
    <g id="Group_9927" data-name="Group 9927" transform="translate(0 21.332)">
      <path id="Path_11465" data-name="Path 11465" d="M355.931,308.763a22.763,22.763,0,0,0,4.7,3.53,33.594,33.594,0,0,0,6.114,2.716L362.1,317.69l-7,.36-3.463,2,1.413.816-2.621,1.513-2.827-1.632-4.581,2.645,4.6,2.657L344.243,328l-3.281,1.894-4.088-2.361-6.058,3.5,2.313,1.335-3.892,2.248-2.313-1.335-1.826,1.054,1.84,3.659-5.887,3.4H299.415Z" transform="translate(-299.415 -304.015)" fill="#f2b42a"/>
      <path id="Path_11466" data-name="Path 11466" d="M355.931,303.48a22.824,22.824,0,0,0,4.7,3.53,33.592,33.592,0,0,0,6.114,2.716l-4.645,2.682-7,.359-3.463,2,1.413.816-2.621,1.513-2.827-1.632-4.581,2.645,4.6,2.657-3.383,1.953-3.281,1.894-4.088-2.361-6.058,3.5,2.313,1.335-3.892,2.247L326.923,328l-1.826,1.055,1.84,3.659-5.887,3.4H299.415Z" transform="translate(-299.415 -303.48)" fill="#fdd762"/>
      <rect id="Rectangle_7055" data-name="Rectangle 7055" width="21.635" height="4.748" transform="translate(0 32.629)" fill="#e8a200"/>
      <path id="Path_11467" data-name="Path 11467" d="M343.468,336.845V332.1l-2.313-1.336v4.748Z" transform="translate(-313.646 -306.244)" fill="#e8a200"/>
      <path id="Path_11468" data-name="Path 11468" d="M340.716,329.747V334.5l-3.892,2.247v-4.748Z" transform="translate(-307.003 -306.141)" fill="#eead00"/>
      <path id="Path_11469" data-name="Path 11469" d="M328.108,324.369v4.748l4.088,2.36v-4.748Z" transform="translate(-290.649 -305.596)" fill="#e8a200"/>
      <path id="Path_11470" data-name="Path 11470" d="M327.356,322.715v4.748l-6.663,3.847v-4.748Z" transform="translate(-279.146 -305.429)" fill="#eead00"/>
      <path id="Path_11471" data-name="Path 11471" d="M349.588,336.045l.013,4.713-5.887,3.4v-4.748Z" transform="translate(-322.079 -306.779)" fill="#eead00"/>
      <path id="Path_11472" data-name="Path 11472" d="M314.655,318.461v4.748l2.621-1.513v-4.748Z" transform="translate(-263.639 -304.844)" fill="#eead00"/>
      <path id="Path_11473" data-name="Path 11473" d="M311.584,313.414v4.748l-7,.36v-4.748Z" transform="translate(-248.897 -304.487)" fill="#e8a200"/>
      <path id="Path_11474" data-name="Path 11474" d="M316.442,333.2l41.377-23.91-2.3-1.328-43.651,25.223Z" transform="translate(-301.677 -303.934)" fill="#e8a200"/>
      <path id="Path_11475" data-name="Path 11475" d="M355.519,309.112l-41.672,24.079-1.979-.006,43.651-25.223,2.3,1.328-1,.575Z" transform="translate(-301.677 -303.934)" fill="#f2b42a"/>
      <path id="Path_11476" data-name="Path 11476" d="M299.414,317.86v-4.748l4.645-2.682v4.748Z" transform="translate(-236.727 -304.184)" fill="#e8a200"/>
      <path id="Path_11477" data-name="Path 11477" d="M317.571,316.815v4.748L320.4,323.2v-4.748Z" transform="translate(-269.383 -304.831)" fill="#e8a200"/>
    </g>
    <path id="Path_11478" data-name="Path 11478" d="M290.63,285.216c4.7-2.713,11.041-3.9,17.179-3.566v1.814c-6.138-.336-12.479.853-17.179,3.567-3.783,2.184-5.849,4.981-6.211,7.837C283.982,291.408,286.048,287.861,290.63,285.216Z" transform="translate(-226.949 -279.93)" fill="#fdd762"/>
  </g>
  <g id="Group_9932" data-name="Group 9932" transform="translate(0 60.795)">
    <g id="Group_9930" data-name="Group 9930" transform="translate(0)">
      <g id="Group_9929" data-name="Group 9929">
        <path id="Path_11479" data-name="Path 11479" d="M548.669,161.173l18.871-10.98c1.593-.919,1.393-2.525-.446-3.588l-17.988-10.479a6.905,6.905,0,0,0-6.214-.258l-18.871,10.98c-1.593.919-1.393,2.526.446,3.588l17.988,10.48A6.9,6.9,0,0,0,548.669,161.173Z" transform="translate(-518.248 -106.575)" fill="#e1ecf3"/>
        <path id="Path_11480" data-name="Path 11480" d="M517.729,125.613h0v-4.559l24.209-.013-.167-.005a8.325,8.325,0,0,1,7.492.311l-.717-.3,24.231-.013V125.9a2.172,2.172,0,0,1-1.287,2.008l-22.755,13.239a8.328,8.328,0,0,1-7.492-.31L519.554,128.2C518.275,127.46,517.657,126.5,517.729,125.613Z" transform="translate(-517.72 -105.059)" fill="#bc9803"/>
        <path id="Path_11481" data-name="Path 11481" d="M517.724,120.293a8.655,8.655,0,0,1,4.016,1.054l-.717-.3,24.231-.013V125.9a2.172,2.172,0,0,1-1.287,2.008l-22.755,13.239a6.783,6.783,0,0,1-3.477.743Z" transform="translate(-490.196 -105.06)" fill="#bc9803"/>
        <path id="Path_11482" data-name="Path 11482" d="M517.724,121.119h2.743v4.865a2.173,2.173,0,0,1-1.287,2.008l-1.456.84Z" transform="translate(-465.408 -105.143)" fill="#ac8b03"/>
        <path id="Path_11483" data-name="Path 11483" d="M551.008,143.035a8.535,8.535,0,0,1-5.99-.068V136.6h5.99Z" transform="translate(-520.473 -106.711)" fill="#ac8b03"/>
        <path id="Path_11484" data-name="Path 11484" d="M548.734,134.6l22.756-13.239c1.921-1.109,1.679-3.046-.537-4.325L549.262,104.4a8.326,8.326,0,0,0-7.492-.311l-22.755,13.24c-1.92,1.108-1.68,3.046.538,4.325l21.689,12.637A8.325,8.325,0,0,0,548.734,134.6Z" transform="translate(-517.718 -103.342)" fill="#eebf00"/>
      </g>
    </g>
    <g id="Group_9931" data-name="Group 9931" transform="translate(18.108 9.617)">
      <path id="Path_11485" data-name="Path 11485" d="M537.69,117.041a4.738,4.738,0,0,0,4.287-.022,1.306,1.306,0,0,0-.013-2.474,4.736,4.736,0,0,0-4.286.021A1.306,1.306,0,0,0,537.69,117.041Z" transform="translate(-523.043 -114.043)" fill="#fff"/>
      <path id="Path_11486" data-name="Path 11486" d="M545.341,121.509a4.738,4.738,0,0,0,4.287-.022,1.306,1.306,0,0,0-.012-2.475,4.738,4.738,0,0,0-4.287.022A1.306,1.306,0,0,0,545.341,121.509Z" transform="translate(-537.571 -114.496)" fill="#fff"/>
      <path id="Path_11487" data-name="Path 11487" d="M552.993,125.976a4.736,4.736,0,0,0,4.286-.021,1.306,1.306,0,0,0-.012-2.475,4.74,4.74,0,0,0-4.287.021A1.306,1.306,0,0,0,552.993,125.976Z" transform="translate(-552.099 -114.948)" fill="#fff"/>
    </g>
  </g>
</svg>
