<svg width="57" height="56" viewBox="0 0 57 56" fill="none" xmlns="http://www.w3.org/2000/svg">
<g clip-path="url(#clip0_4969_4156)">
<path d="M56.1113 28C56.1113 43.4642 43.5755 56 28.1113 56C12.6472 56 0.111328 43.4642 0.111328 28C0.111328 12.5358 12.6472 0 28.1113 0C43.5755 0 56.1113 12.5358 56.1113 28Z" fill="url(#paint0_linear_4969_4156)"/>
<path d="M37.0189 19.9452C37.0189 15.0076 33.0015 10.9902 28.0639 10.9902C23.1262 10.9902 19.1092 15.0076 19.1092 19.9452C19.1092 22.8775 20.5258 25.4853 22.7106 27.1195C16.8769 29.2968 12.7109 34.9252 12.7109 41.5089H15.4549C15.4549 34.5564 21.1114 28.9003 28.0639 28.9003C33.0015 28.9003 37.0189 24.8829 37.0189 19.9452ZM28.0639 26.1563C24.6393 26.1563 21.8528 23.3698 21.8528 19.9452C21.8528 16.5207 24.6393 13.7345 28.0639 13.7345C31.4884 13.7345 34.2746 16.5207 34.2746 19.9452C34.2746 23.3698 31.4884 26.1563 28.0639 26.1563Z" fill="white"/>
<path d="M37.8015 27.2688L35.8611 29.2092L38.1992 31.5469H36.7143C32.4662 31.5469 29.0077 35.003 29.0041 39.2511L29.002 41.5077L31.7459 41.5102L31.7481 39.2532C31.7502 36.5171 33.9782 34.2909 36.7143 34.2909H38.3178L35.8611 36.7472L37.8015 38.6877L43.511 32.9782L37.8015 27.2688Z" fill="white"/>
</g>
<defs>
<linearGradient id="paint0_linear_4969_4156" x1="-8.69512" y1="14.5385" x2="64.6338" y2="24.9958" gradientUnits="userSpaceOnUse">
<stop stop-color="#634FA3"/>
<stop offset="1" stop-color="#79B7D9"/>
</linearGradient>
<clipPath id="clip0_4969_4156">
<rect width="56" height="56" fill="white" transform="translate(0.111328)"/>
</clipPath>
</defs>
</svg>
