<svg width="40" height="40" viewBox="0 0 40 40" fill="none" xmlns="http://www.w3.org/2000/svg">
<path d="M34.5 20C34.5 28.0081 28.0081 34.5 20 34.5C11.9919 34.5 5.5 28.0081 5.5 20C5.5 11.9919 11.9919 5.5 20 5.5C28.0081 5.5 34.5 11.9919 34.5 20Z" stroke="#FFA201"/>
<path d="M29.1948 17.0124C29.0914 16.6943 28.8164 16.4623 28.4854 16.4142L23.1668 15.6414L20.7882 10.8219C20.6401 10.5219 20.3346 10.332 20.0001 10.332C19.6655 10.332 19.36 10.5219 19.2119 10.822L16.8334 15.6414L11.5147 16.4143C11.1837 16.4624 10.9086 16.6943 10.8052 17.0125C10.7019 17.3306 10.7881 17.6799 11.0277 17.9134L14.8763 21.6648L13.9677 26.9619C13.9112 27.2916 14.0467 27.6249 14.3173 27.8216C14.588 28.0182 14.9468 28.0442 15.2429 27.8885L20.0001 25.3875L24.7572 27.8885C25.0555 28.0453 25.4141 28.0167 25.6828 27.8216C25.9534 27.6249 26.089 27.2917 26.0325 26.9619L25.1239 21.6648L28.9725 17.9134C29.212 17.6799 29.2982 17.3306 29.1948 17.0124Z" fill="url(#paint0_linear_4166_5272)"/>
<defs>
<linearGradient id="paint0_linear_4166_5272" x1="20.0001" y1="27.9894" x2="20.0001" y2="10.332" gradientUnits="userSpaceOnUse">
<stop stop-color="#FE9201"/>
<stop offset="1" stop-color="#FFD601"/>
</linearGradient>
</defs>
</svg>
