<svg width="56" height="56" viewBox="0 0 56 56" fill="none" xmlns="http://www.w3.org/2000/svg">
<path d="M28 56C43.464 56 56 43.464 56 28C56 12.536 43.464 0 28 0C12.536 0 0 12.536 0 28C0 43.464 12.536 56 28 56Z" fill="#F6F6F6"/>
<path d="M56 31.7499L29.75 7H26.5775V12.7347C19.4301 13.7621 13.7621 19.43 12.7348 26.5775H7V29.75L31.7499 56C44.5249 54.6779 54.6779 44.5249 56 31.7499Z" fill="url(#paint0_linear_4969_4129)"/>
<path d="M29.75 7H26.25V14H29.75V7Z" fill="#FFCE6B"/>
<path d="M29.75 7H28V14H29.75V7Z" fill="#FFB447"/>
<path d="M29.75 42H26.25V49H29.75V42Z" fill="#FFCE6B"/>
<path d="M30.383 42.0786H28.1616V49H30.383V42.0786Z" fill="#FFB447"/>
<path d="M49.0004 25.9057H42.0894V30.3556H49.0004V25.9057Z" fill="#FFB447"/>
<path d="M14 26.25H7V29.75H14V26.25Z" fill="#FFCE6B"/>
<path d="M28 43.75C19.3154 43.75 12.25 36.6846 12.25 28C12.25 19.3154 19.3154 12.25 28 12.25C36.6846 12.25 43.75 19.3154 43.75 28C43.75 36.6846 36.6846 43.75 28 43.75ZM28 15.4907C21.1023 15.4907 15.4907 21.1023 15.4907 28C15.4907 34.8977 21.1023 40.5093 28 40.5093C34.8977 40.5093 40.5093 34.8977 40.5093 28C40.5093 21.1023 34.8977 15.4907 28 15.4907Z" fill="#FFCE6B"/>
<path d="M30.2507 12.4099C29.5159 12.3043 28.7636 12.25 28 12.25V15.4908C34.8977 15.4908 40.5092 21.1023 40.5092 28C40.5092 34.8977 34.8977 40.5092 28 40.5092V43.75C28.7636 43.75 29.5159 43.6957 30.2507 43.5901C37.8731 42.4945 43.75 35.9206 43.75 28C43.75 20.0794 37.8731 13.5055 30.2507 12.4099Z" fill="#FFB447"/>
<path d="M36.75 28C36.75 23.1675 32.8325 19.25 28 19.25C23.1675 19.25 19.25 23.1675 19.25 28C19.25 32.8325 23.1675 36.75 28 36.75C32.8325 36.75 36.75 32.8325 36.75 28Z" fill="#F12B29"/>
<path d="M28 19.25C32.8321 19.25 36.75 23.1679 36.75 28C36.75 32.8321 32.8321 36.75 28 36.75L28 19.25Z" fill="#FF807E"/>
<g style="mix-blend-mode:multiply">
<path d="M19.25 28C19.25 23.1679 23.1679 19.25 28 19.25C32.8321 19.25 36.75 23.1679 36.75 28L19.25 28Z" fill="#E0262B"/>
</g>
<defs>
<linearGradient id="paint0_linear_4969_4129" x1="26.3607" y1="29.7648" x2="48.4873" y2="62.9547" gradientUnits="userSpaceOnUse">
<stop stop-color="#DEDEDE"/>
<stop offset="1" stop-color="white" stop-opacity="0"/>
</linearGradient>
</defs>
</svg>
