<svg width="28" height="28" viewBox="0 0 28 28" fill="none" xmlns="http://www.w3.org/2000/svg">
<path d="M14 1.29539e-06C17.713 1.13309e-06 21.274 1.475 23.8995 4.1005C26.525 6.72601 28 10.287 28 14C28 17.713 26.525 21.274 23.8995 23.8995C21.274 26.525 17.713 28 14 28C10.287 28 6.72602 26.525 4.10051 23.8995C1.475 21.274 -4.49658e-07 17.713 -6.11959e-07 14C-7.74261e-07 10.287 1.475 6.72602 4.1005 4.10051C6.72601 1.475 10.287 1.45769e-06 14 1.29539e-06ZM7.875 13.125C7.64294 13.125 7.42038 13.2172 7.25628 13.3813C7.09219 13.5454 7 13.7679 7 14C7 14.2321 7.09219 14.4546 7.25628 14.6187C7.42038 14.7828 7.64294 14.875 7.875 14.875L18.0128 14.875L14.2555 18.6305C14.0912 18.7948 13.9989 19.0176 13.9989 19.25C13.9989 19.4824 14.0912 19.7052 14.2555 19.8695C14.4198 20.0338 14.6426 20.1261 14.875 20.1261C15.1074 20.1261 15.3302 20.0338 15.4945 19.8695L20.7445 14.6195C20.826 14.5382 20.8906 14.4417 20.9347 14.3354C20.9789 14.2291 21.0016 14.1151 21.0016 14C21.0016 13.8849 20.9789 13.7709 20.9347 13.6646C20.8906 13.5583 20.826 13.4618 20.7445 13.3805L15.4945 8.1305C15.3302 7.9662 15.1074 7.87389 14.875 7.87389C14.6426 7.8739 14.4198 7.9662 14.2555 8.1305C14.0912 8.2948 13.9989 8.51764 13.9989 8.75C13.9989 8.98236 14.0912 9.2052 14.2555 9.3695L18.0128 13.125L7.875 13.125Z" fill="#6477BA"/>
</svg>
