<svg xmlns="http://www.w3.org/2000/svg" xmlns:xlink="http://www.w3.org/1999/xlink" width="814" height="539" viewBox="0 0 814 539">
  <defs>
    <clipPath id="clip-path">
      <rect width="814" height="352" fill="none"/>
    </clipPath>
  </defs>
  <g id="Group_53859" data-name="Group 53859" transform="translate(-536 -122)">
    <text id="Báo_cáo_tình_hình_đăng_ký_thi_đua" data-name="Báo cáo tình hình đăng ký thi đua" transform="translate(943 144)" fill="#2a3958" font-size="20" font-family="SegoeUI-Bold, Segoe UI" font-weight="700"><tspan x="-192.251" y="0">BÁO CÁO TÌNH HÌNH ĐĂNG KÝ THI ĐUA</tspan></text>
    <text id="Năm_2021" data-name="Năm 2021" transform="translate(943 171)" fill="#2a3958" font-size="14" font-family="SegoeUI, Segoe UI"><tspan x="-31.838" y="0">Năm 2021</tspan></text>
    <g id="Group_53863" data-name="Group 53863" transform="translate(0 25)">
      <g id="Rectangle_22426" data-name="Rectangle 22426" transform="translate(536 596)" fill="#fbfbfe" stroke="#ddd" stroke-width="1">
        <path d="M0,0H814a0,0,0,0,1,0,0V36a4,4,0,0,1-4,4H4a4,4,0,0,1-4-4V0A0,0,0,0,1,0,0Z" stroke="none"/>
        <path d="M1,.5H813a.5.5,0,0,1,.5.5V36a3.5,3.5,0,0,1-3.5,3.5H4A3.5,3.5,0,0,1,.5,36V1A.5.5,0,0,1,1,.5Z" fill="none"/>
      </g>
      <g id="Rectangle_22422" data-name="Rectangle 22422" transform="translate(536 166)" fill="#fff" stroke="#ddd" stroke-width="1">
        <path d="M4,0H810a4,4,0,0,1,4,4V80a0,0,0,0,1,0,0H0a0,0,0,0,1,0,0V4A4,4,0,0,1,4,0Z" stroke="none"/>
        <path d="M4,.5H810A3.5,3.5,0,0,1,813.5,4V79a.5.5,0,0,1-.5.5H1A.5.5,0,0,1,.5,79V4A3.5,3.5,0,0,1,4,.5Z" fill="none"/>
      </g>
      <g id="Repeat_Grid_1" data-name="Repeat Grid 1" transform="translate(536 245)" clip-path="url(#clip-path)">
        <g transform="translate(-536 -205)">
          <g id="Rectangle_22423" data-name="Rectangle 22423" transform="translate(536 205)" fill="#fff" stroke="#ddd" stroke-width="1">
            <rect width="814" height="40" stroke="none"/>
            <rect x="0.5" y="0.5" width="813" height="39" fill="none"/>
          </g>
        </g>
        <g transform="translate(-536 -166)">
          <g id="Rectangle_22423-2" data-name="Rectangle 22423" transform="translate(536 205)" fill="#fff" stroke="#ddd" stroke-width="1">
            <rect width="814" height="40" stroke="none"/>
            <rect x="0.5" y="0.5" width="813" height="39" fill="none"/>
          </g>
        </g>
        <g transform="translate(-536 -127)">
          <g id="Rectangle_22423-3" data-name="Rectangle 22423" transform="translate(536 205)" fill="#fff" stroke="#ddd" stroke-width="1">
            <rect width="814" height="40" stroke="none"/>
            <rect x="0.5" y="0.5" width="813" height="39" fill="none"/>
          </g>
        </g>
        <g transform="translate(-536 -88)">
          <g id="Rectangle_22423-4" data-name="Rectangle 22423" transform="translate(536 205)" fill="#fff" stroke="#ddd" stroke-width="1">
            <rect width="814" height="40" stroke="none"/>
            <rect x="0.5" y="0.5" width="813" height="39" fill="none"/>
          </g>
        </g>
        <g transform="translate(-536 -49)">
          <g id="Rectangle_22423-5" data-name="Rectangle 22423" transform="translate(536 205)" fill="#fff" stroke="#ddd" stroke-width="1">
            <rect width="814" height="40" stroke="none"/>
            <rect x="0.5" y="0.5" width="813" height="39" fill="none"/>
          </g>
        </g>
        <g transform="translate(-536 -10)">
          <g id="Rectangle_22423-6" data-name="Rectangle 22423" transform="translate(536 205)" fill="#fff" stroke="#ddd" stroke-width="1">
            <rect width="814" height="40" stroke="none"/>
            <rect x="0.5" y="0.5" width="813" height="39" fill="none"/>
          </g>
        </g>
        <g transform="translate(-536 29)">
          <g id="Rectangle_22423-7" data-name="Rectangle 22423" transform="translate(536 205)" fill="#fff" stroke="#ddd" stroke-width="1">
            <rect width="814" height="40" stroke="none"/>
            <rect x="0.5" y="0.5" width="813" height="39" fill="none"/>
          </g>
        </g>
        <g transform="translate(-536 68)">
          <g id="Rectangle_22423-8" data-name="Rectangle 22423" transform="translate(536 205)" fill="#fff" stroke="#ddd" stroke-width="1">
            <rect width="814" height="40" stroke="none"/>
            <rect x="0.5" y="0.5" width="813" height="39" fill="none"/>
          </g>
        </g>
        <g transform="translate(-536 107)">
          <g id="Rectangle_22423-9" data-name="Rectangle 22423" transform="translate(536 205)" fill="#fff" stroke="#ddd" stroke-width="1">
            <rect width="814" height="40" stroke="none"/>
            <rect x="0.5" y="0.5" width="813" height="39" fill="none"/>
          </g>
        </g>
        <g transform="translate(-536 146)">
          <g id="Rectangle_22423-10" data-name="Rectangle 22423" transform="translate(536 205)" fill="#fff" stroke="#ddd" stroke-width="1">
            <rect width="814" height="40" stroke="none"/>
            <rect x="0.5" y="0.5" width="813" height="39" fill="none"/>
          </g>
        </g>
      </g>
      <text id="STT" transform="translate(557 211)" fill="#182d4b" font-size="14" font-family="SegoeUI-Bold, Segoe UI" font-weight="700" letter-spacing="-0.01em"><tspan x="0" y="0">STT</tspan></text>
      <text id="Danh_hiệu_thi_đua_hình_thức_khen_thưởng" data-name="Danh hiệu thi đua/hình thức khen thưởng" transform="translate(723 211)" fill="#182d4b" font-size="14" font-family="SegoeUI-Bold, Segoe UI" font-weight="700" letter-spacing="-0.01em"><tspan x="0" y="0">Danh hiệu thi đua/hình thức khen thưởng</tspan></text>
      <text id="Số_lượng_đăng_ký" data-name="Số lượng đăng ký" transform="translate(1175 191)" fill="#182d4b" font-size="14" font-family="SegoeUI-Bold, Segoe UI" font-weight="700" letter-spacing="-0.01em"><tspan x="0" y="0">Số lượng đăng ký</tspan></text>
      <text id="Cá_nhân" data-name="Cá nhân" transform="translate(1264 230)" fill="#182d4b" font-size="14" font-family="SegoeUI-Bold, Segoe UI" font-weight="700" letter-spacing="-0.01em"><tspan x="0" y="0">Cá nhân</tspan></text>
      <text id="Tập_thể" data-name="Tập thể" transform="translate(1147 230)" fill="#182d4b" font-size="14" font-family="SegoeUI-Bold, Segoe UI" font-weight="700" letter-spacing="-0.01em"><tspan x="0" y="0">Tập thể</tspan></text>
      <path id="Path_77081" data-name="Path 77081" d="M2587.629,166.645v470" transform="translate(-1474.629 -0.645)" fill="none" stroke="#ddd" stroke-width="1"/>
      <path id="Path_77083" data-name="Path 77083" d="M2587.629,166.645v430" transform="translate(-1356.629 39.355)" fill="none" stroke="#ddd" stroke-width="1"/>
      <path id="Path_77082" data-name="Path 77082" d="M3103,205.887h236" transform="translate(-1990 0.113)" fill="none" stroke="#ddd" stroke-width="1"/>
      <path id="Path_77084" data-name="Path 77084" d="M2587.629,166.645v431" transform="translate(-1985.629 -0.645)" fill="none" stroke="#ddd" stroke-width="1"/>
      <g id="Rectangle_22424" data-name="Rectangle 22424" transform="translate(536 245)" fill="#fbfbfe" stroke="#ddd" stroke-width="1">
        <rect width="814" height="40" stroke="none"/>
        <rect x="0.5" y="0.5" width="813" height="39" fill="none"/>
      </g>
      <g id="Rectangle_22425" data-name="Rectangle 22425" transform="translate(536 440)" fill="#fbfbfe" stroke="#ddd" stroke-width="1">
        <rect width="814" height="40" stroke="none"/>
        <rect x="0.5" y="0.5" width="813" height="39" fill="none"/>
      </g>
      <g id="Group_53862" data-name="Group 53862" transform="translate(0 40)">
        <text id="I._Khen_thưởng_cấp_huyện_1_2_3_4_II._Khen_thưởng_cấp_tỉnh_5_6_7" data-name="I. Khen thưởng cấp huyện
    1
    2
    3
    4
II. Khen thưởng cấp tỉnh 
    5
    6
    7" transform="translate(552 231)" fill="#182d4b" font-size="14" font-family="SegoeUI, Segoe UI"><tspan x="0" y="0">I. Khen thưởng cấp huyện</tspan><tspan x="0" y="39" xml:space="preserve">    1</tspan><tspan x="0" y="78" xml:space="preserve">    2</tspan><tspan x="0" y="117" xml:space="preserve">    3</tspan><tspan x="0" y="156" xml:space="preserve">    4</tspan><tspan x="0" y="195">II. Khen thưởng cấp tỉnh </tspan><tspan x="0" y="234" xml:space="preserve">    5</tspan><tspan x="0" y="273" xml:space="preserve">    6</tspan><tspan x="0" y="312" xml:space="preserve">    7</tspan></text>
        <text id="_Lao_động_tiên_tiến_Chiến_sĩ_thi_đua_cơ_sở_Tập_thể_lao_động_tiến_tiến_Giấy_khen_của_Chủ_tịch_UBND_Huyện_Chiến_sĩ_thi_đua_cấp_tỉnh_Tập_thể_lao_động_xuất_sắc_Cờ_thi_đua_cấp_tỉnh_Tổng_số" data-name=" 
Lao động tiên tiến
Chiến sĩ thi đua cơ sở
Tập thể lao động tiến tiến
Giấy khen của Chủ tịch UBND Huyện
 
Chiến sĩ thi đua cấp tỉnh
Tập thể lao động xuất sắc
Cờ thi đua cấp tỉnh
Tổng số" transform="translate(618 231)" fill="#182d4b" font-size="14" font-family="SegoeUI, Segoe UI"><tspan x="0" y="0"> </tspan><tspan x="0" y="39">Lao động tiên tiến</tspan><tspan x="0" y="78">Chiến sĩ thi đua cơ sở</tspan><tspan x="0" y="117">Tập thể lao động tiến tiến</tspan><tspan x="0" y="156">Giấy khen của Chủ tịch UBND Huyện</tspan><tspan x="0" y="195"> </tspan><tspan x="0" y="234">Chiến sĩ thi đua cấp tỉnh</tspan><tspan x="0" y="273">Tập thể lao động xuất sắc</tspan><tspan x="0" y="312">Cờ thi đua cấp tỉnh</tspan><tspan font-family="SegoeUI-Bold, Segoe UI" font-weight="700"><tspan x="0" y="351">Tổng số</tspan></tspan></text>
        <text id="_37_74_13_5_129" data-name=" 
 
 
37
74
 
 
13
5
129" transform="translate(1215 231)" fill="#182d4b" font-size="14" font-family="SegoeUI, Segoe UI"><tspan x="-3.835" y="0"> </tspan><tspan x="-3.835" y="39"> </tspan><tspan x="-3.835" y="78"> </tspan><tspan x="-15.094" y="117">37</tspan><tspan x="-15.094" y="156">74</tspan><tspan x="-3.835" y="195"> </tspan><tspan x="-3.835" y="234"> </tspan><tspan x="-15.094" y="273">13</tspan><tspan x="-7.547" y="312">5</tspan><tspan x="-22.641" y="351">129</tspan></text>
        <text id="_517_25_441_1_984" data-name=" 517
25 
 

441
 
1


984" transform="translate(1334 231)" fill="#182d4b" font-size="14" font-family="SegoeUI, Segoe UI"><tspan x="-26.476" y="0" xml:space="preserve"> 517</tspan><tspan x="-18.929" y="39">25 </tspan><tspan x="-3.835" y="78"> </tspan><tspan x="0" y="117"></tspan><tspan x="-22.641" y="156">441</tspan><tspan x="-3.835" y="195"> </tspan><tspan x="-7.547" y="234">1</tspan><tspan font-family="SegoeUI-Bold, Segoe UI" font-weight="700"><tspan x="0" y="273"></tspan><tspan x="0" y="312"></tspan><tspan x="-24.158" y="351">984</tspan></tspan></text>
      </g>
    </g>
  </g>
</svg>
