<svg id="ic_emoji2" xmlns="http://www.w3.org/2000/svg" xmlns:xlink="http://www.w3.org/1999/xlink" width="42" height="42" viewBox="0 0 42 42">
  <defs>
    <linearGradient id="linear-gradient" x1="0.243" y1="0.044" x2="0.76" y2="0.962" gradientUnits="objectBoundingBox">
      <stop offset="0" stop-color="#fffdf1"/>
      <stop offset="0.2" stop-color="#ffeb72"/>
      <stop offset="0.75" stop-color="#f69b32"/>
      <stop offset="1" stop-color="#ed6c12"/>
    </linearGradient>
    <linearGradient id="linear-gradient-2" x1="1.213" y1="-22.099" x2="0.103" y2="-22.013" gradientUnits="objectBoundingBox">
      <stop offset="0" stop-color="#4b2313"/>
      <stop offset="1" stop-color="#914324"/>
    </linearGradient>
  </defs>
  <g id="Isolation_Mode" data-name="Isolation Mode">
    <g id="h">
      <circle id="Ellipse_6136" data-name="Ellipse 6136" cx="21" cy="21" r="21" fill="url(#linear-gradient)"/>
      <g id="Group_52651" data-name="Group 52651" transform="translate(10.185 15.014)">
        <g id="Group_1489" data-name="Group 1489">
          <path id="Path_1350" data-name="Path 1350" d="M124.763,164.45a2.46,2.46,0,1,0,2.462-2.493A2.476,2.476,0,0,0,124.763,164.45Z" transform="translate(-124.763 -161.957)" fill="#002b47"/>
          <path id="Path_1351" data-name="Path 1351" d="M129.114,165.723a.793.793,0,1,0,.791-.787A.789.789,0,0,0,129.114,165.723Z" transform="translate(-126.89 -163.812)" fill="#fff"/>
        </g>
        <g id="Group_1490" data-name="Group 1490" transform="translate(16.71)">
          <path id="Path_1352" data-name="Path 1352" d="M152.256,164.45a2.461,2.461,0,1,0,2.463-2.493A2.477,2.477,0,0,0,152.256,164.45Z" transform="translate(-152.256 -161.957)" fill="#002b47"/>
          <path id="Path_1353" data-name="Path 1353" d="M156.608,165.723a.793.793,0,1,0,.791-.787A.789.789,0,0,0,156.608,165.723Z" transform="translate(-154.384 -163.812)" fill="#fff"/>
        </g>
      </g>
      <path id="Path_100602" data-name="Path 100602" d="M4.75,0C-.172.221-.118,4.5.054,4.681c.092.1.1.09.274-.083a6.458,6.458,0,0,1,4.5-1.509A6.523,6.523,0,0,1,9.271,4.6c.048.046.108.143.165.139.233-.015.2-.3.158-.684A4.672,4.672,0,0,0,4.75,0Z" transform="translate(25.813 30.305) rotate(180)" fill="url(#linear-gradient-2)"/>
    </g>
  </g>
</svg>
