<svg id="ic_emoji1" xmlns="http://www.w3.org/2000/svg" xmlns:xlink="http://www.w3.org/1999/xlink" width="42" height="42" viewBox="0 0 42 42">
  <defs>
    <linearGradient id="linear-gradient" x1="0.243" y1="0.044" x2="0.76" y2="0.962" gradientUnits="objectBoundingBox">
      <stop offset="0" stop-color="#fffdf1"/>
      <stop offset="0.2" stop-color="#ffeb72"/>
      <stop offset="0.75" stop-color="#f69b32"/>
      <stop offset="1" stop-color="#ed6c12"/>
    </linearGradient>
    <linearGradient id="linear-gradient-2" x1="1.213" y1="-22.099" x2="0.103" y2="-22.013" gradientUnits="objectBoundingBox">
      <stop offset="0" stop-color="#4b2313"/>
      <stop offset="1" stop-color="#914324"/>
    </linearGradient>
  </defs>
  <g id="Isolation_Mode" data-name="Isolation Mode">
    <g id="h">
      <circle id="Ellipse_6136" data-name="Ellipse 6136" cx="21" cy="21" r="21" fill="url(#linear-gradient)"/>
      <path id="Path_100440" data-name="Path 100440" d="M4822.339,898.33c-.068.011-.068.011-.321.2a29.172,29.172,0,0,1-4.3,2.7,19.4,19.4,0,0,1-3.319,1.368.973.973,0,0,0-.195.065c-.052.029-.133.205-.061.268.011.009,1.488.723,4.339-.822a11.628,11.628,0,0,0,3.966-3.679C4822.451,898.334,4822.34,898.33,4822.339,898.33Z" transform="translate(-4807.707 -889.397)" fill="#27304e"/>
      <path id="Path_100442" data-name="Path 100442" d="M5129.717,898.328c-.553.106,1.685,2.4,3.125,3.349,2.951,1.939,5.312,1.5,5.207,1.118a.263.263,0,0,0-.081-.128,1.04,1.04,0,0,0-.2-.065,20.055,20.055,0,0,1-3.749-1.545,28.1,28.1,0,0,1-3.98-2.526C5129.772,898.327,5129.772,898.327,5129.717,898.328Z" transform="translate(-5102.463 -889.395)" fill="#27304e"/>
      <path id="Path_100444" data-name="Path 100444" d="M4948.676,1198.694c-6.307.2-6.239,4.1-6.019,4.267.118.089.127.083.352-.076a12.621,12.621,0,0,1,11.462,0c.061.042.138.13.212.127.3-.014.258-.27.2-.624C4954.5,1199.932,4951.4,1198.651,4948.676,1198.694Z" transform="translate(-4927.765 -1174.309)" fill="url(#linear-gradient-2)"/>
      <g id="Group_52654" data-name="Group 52654" transform="translate(10.462 14.509)">
        <path id="Path_1081" data-name="Path 1081" d="M72.673,19.347A2.651,2.651,0,1,1,70.022,16.7,2.651,2.651,0,0,1,72.673,19.347Z" transform="translate(-67.371 -16.696)" fill="#27304e"/>
        <path id="Path_1082" data-name="Path 1082" d="M70.8,19.318a.922.922,0,1,1-.922-.922A.922.922,0,0,1,70.8,19.318Z" transform="translate(-68.15 -17.531)" fill="#fff"/>
        <path id="Path_1083" data-name="Path 1083" d="M74.306,23.618a.692.692,0,1,1-.692-.691A.692.692,0,0,1,74.306,23.618Z" transform="translate(-70.098 -19.758)" fill="#fff"/>
      </g>
      <g id="Group_52655" data-name="Group 52655" transform="translate(26.236 14.509)">
        <path id="Path_1084" data-name="Path 1084" d="M104.255,19.347A2.651,2.651,0,1,1,101.6,16.7,2.651,2.651,0,0,1,104.255,19.347Z" transform="translate(-98.953 -16.696)" fill="#27304e"/>
        <path id="Path_1085" data-name="Path 1085" d="M102.384,19.318a.922.922,0,1,1-.922-.922A.922.922,0,0,1,102.384,19.318Z" transform="translate(-99.733 -17.531)" fill="#fff"/>
        <path id="Path_1086" data-name="Path 1086" d="M105.888,23.618a.692.692,0,1,1-.691-.691A.691.691,0,0,1,105.888,23.618Z" transform="translate(-101.681 -19.758)" fill="#fff"/>
      </g>
    </g>
  </g>
</svg>
