<svg id="ic_emoji3" xmlns="http://www.w3.org/2000/svg" xmlns:xlink="http://www.w3.org/1999/xlink" width="42" height="42" viewBox="0 0 42 42">
  <defs>
    <linearGradient id="linear-gradient" x1="0.243" y1="0.044" x2="0.76" y2="0.962" gradientUnits="objectBoundingBox">
      <stop offset="0" stop-color="#fffdf1"/>
      <stop offset="0.2" stop-color="#ffeb72"/>
      <stop offset="0.75" stop-color="#f69b32"/>
      <stop offset="1" stop-color="#ed6c12"/>
    </linearGradient>
    <linearGradient id="linear-gradient-2" x1="0.502" y1="0.048" x2="0.49" y2="0.972" gradientUnits="objectBoundingBox">
      <stop offset="0" stop-color="#4b2313"/>
      <stop offset="0.38" stop-color="#6c321b"/>
      <stop offset="0.77" stop-color="#873e22"/>
      <stop offset="1" stop-color="#914324"/>
    </linearGradient>
    <linearGradient id="linear-gradient-3" x1="0.509" y1="0.986" x2="0.496" y2="0.211" gradientUnits="objectBoundingBox">
      <stop offset="0" stop-color="#ca0a34"/>
      <stop offset="0.36" stop-color="#df284e"/>
      <stop offset="0.77" stop-color="#f34567"/>
      <stop offset="1" stop-color="#fb5070"/>
    </linearGradient>
  </defs>
  <g id="Isolation_Mode" data-name="Isolation Mode">
    <g id="h">
      <g id="Group_52652" data-name="Group 52652">
        <circle id="Ellipse_6136" data-name="Ellipse 6136" cx="21" cy="21" r="21" fill="url(#linear-gradient)"/>
      </g>
    </g>
  </g>
  <g id="Group_52657" data-name="Group 52657" transform="translate(10.287 13.452)">
    <g id="Group_52653" data-name="Group 52653" transform="translate(5.3 10.209)">
      <path id="Path_100407" data-name="Path 100407" d="M1648.43,378.842c-3.828,0-5.425.919-5.434.926-.345.349.224,1.907,1.522,3.027a5.606,5.606,0,0,0,7.122.586h0c2.462-1.651,2.384-3.409,2.38-3.424-.173-.548-2.873-.96-3.784-1.04q-.9-.077-1.807-.077" transform="translate(-1642.896 -378.84)" fill="url(#linear-gradient-2)"/>
      <path id="Path_100408" data-name="Path 100408" d="M1691.876,461.007a3.965,3.965,0,0,0-3.116,1.1c2.211,1.663,4.084,1.664,6.265,0-.906-1.1-2.922-1.108-3.15-1.105" transform="translate(-1686.317 -457.779)" fill="url(#linear-gradient-3)"/>
    </g>
    <g id="Group_1342" data-name="Group 1342">
      <path id="Path_1081" data-name="Path 1081" d="M72.764,19.392a2.7,2.7,0,1,1-2.7-2.7A2.7,2.7,0,0,1,72.764,19.392Z" transform="translate(-67.371 -16.696)" fill="#323232"/>
      <path id="Path_1082" data-name="Path 1082" d="M70.833,19.333a.938.938,0,1,1-.938-.937A.938.938,0,0,1,70.833,19.333Z" transform="translate(-68.136 -17.516)" fill="#fff"/>
      <path id="Path_1083" data-name="Path 1083" d="M74.329,23.63a.7.7,0,1,1-.7-.7A.7.7,0,0,1,74.329,23.63Z" transform="translate(-70.05 -19.703)" fill="#fff"/>
    </g>
    <g id="Group_1343" data-name="Group 1343" transform="translate(16.339)">
      <path id="Path_1084" data-name="Path 1084" d="M104.346,19.392a2.7,2.7,0,1,1-2.7-2.7A2.7,2.7,0,0,1,104.346,19.392Z" transform="translate(-98.953 -16.696)" fill="#323232"/>
      <path id="Path_1085" data-name="Path 1085" d="M102.415,19.333a.938.938,0,1,1-.938-.937A.938.938,0,0,1,102.415,19.333Z" transform="translate(-99.719 -17.516)" fill="#fff"/>
      <path id="Path_1086" data-name="Path 1086" d="M105.912,23.63a.7.7,0,1,1-.7-.7A.7.7,0,0,1,105.912,23.63Z" transform="translate(-101.633 -19.703)" fill="#fff"/>
    </g>
  </g>
</svg>
