<svg xmlns="http://www.w3.org/2000/svg" xmlns:xlink="http://www.w3.org/1999/xlink" width="560" height="350" viewBox="0 0 560 350">
  <defs>
    <clipPath id="clip-path">
      <rect id="Rectangle_22484" data-name="Rectangle 22484" width="560" height="350" rx="4" fill="#fff"/>
    </clipPath>
  </defs>
  <g id="img_nps2" transform="translate(-98.333 -53.407)">
    <g id="Group_53009" data-name="Group 53009" transform="translate(98.333 53.407)">
      <g id="Group_53008" data-name="Group 53008" clip-path="url(#clip-path)">
        <path id="Path_100684" data-name="Path 100684" d="M92,50.5V83.8c16.806,14.5,36.057,28.036,56.527,36.478,51.8,24.484,95.721-8.295,112.082-69.781Z" transform="translate(-103.692 -55.866)" fill="#f0cebb"/>
        <path id="Path_100685" data-name="Path 100685" d="M189.419,246.24c16.591-6.092,34.652-8.614,49.892-17.562,10.193-5.985,19.818-15.011,31.634-14.708,8.74.223,16.636,5.825,21.8,12.881s8.053,15.476,10.868,23.754c2.821,8.3,5.37,18.332-.186,25.111-4.824,5.882-13.486,6.384-21.092,6.412l-104.193.367c-15.03.054-31.828,3.255-18.661-15.423C166.693,256.843,178.091,250.771,189.419,246.24Z" transform="translate(-50.613 82.448)" fill="#cadab2"/>
        <path id="Path_100686" data-name="Path 100686" d="M492.775,299.979c-22.335-57.689-61.682-89.108-95.461-77.544-31.7,10.66-68.3,44.374-91.152,77.544Z" transform="translate(77.522 87.607)" fill="#ffefd6" style="mix-blend-mode: multiply;isolation: isolate"/>
        <path id="Path_100687" data-name="Path 100687" d="M95.928,285.775l196.929-2.928c-.072-.148-.162-.286-.231-.437-.563-1.231-1.839-3.07-2.328-4.508-1.392-1.665-2.762-3.341-4.239-4.95-.061-.066-.092-.105-.146-.164-.321-.179-.735-.426-1.318-.8-2.046-1.309-4.091-2.585-6.168-3.846-.057-.013-.092-.018-.159-.035a29.277,29.277,0,0,1-2.985-1.222c-2.378-.921-4.8-1.732-7.235-2.474-2.487-.757-5-1.427-7.527-2.031-.024-.006-2.452-.5-3.622-.757-.209-.033-.38-.061-.458-.072-18.836-2.607-37.924-3.3-56.71-6.129-26.175-3.938-50.036-13.737-72.838-27-11.134-6.478-21.8-13.684-32.426-20.958C95.731,233.542,95.969,259.654,95.928,285.775Z" transform="translate(-101.604 76.947)" fill="#c4daeb" style="mix-blend-mode: multiply;isolation: isolate"/>
        <path id="Path_100688" data-name="Path 100688" d="M148.089,38.058c14.313,20.009,30.079,38.177,48.162,51.709,24.09,18.03,52.791,27.292,79.881,19.71,23.786-6.655,45.318-25.759,69.585-27.779C367,79.925,387.642,91.572,408.93,93.326s46.848-12.652,48.831-40.68a48.727,48.727,0,0,0-1.207-14.588Z" transform="translate(-56.232 -66.394)" fill="#fadfa7" style="mix-blend-mode: multiply;isolation: isolate"/>
        <path id="Path_100689" data-name="Path 100689" d="M440,82.188c-19.362,9.81-35.348,26.841-45.2,46.418-13.99,27.8-16.914,60.053-14.293,91.063.953,11.265,3.406,23.83,12.777,30.153,11.782,7.951,27.607,1.913,41.775,3.059a35.314,35.314,0,0,1,4.94.772Z" transform="translate(139.694 -29.053)" fill="#f0cebb"/>
        <path id="Path_100690" data-name="Path 100690" d="M358.249,121.977c-2.494,9.593,8.123,17.337,16.239,11.646a64.887,64.887,0,0,0,8.031-6.731c6.155-6.02,11.732-12.958,14.363-21.155,5.815-18.133-13.545-43.6-32.62-29.47-8.878,6.576-4.388,16.444-3.934,25.68A66.718,66.718,0,0,1,358.249,121.977Z" transform="translate(121.282 -37.536)" fill="#fadfa7" style="mix-blend-mode: multiply;isolation: isolate"/>
        <path id="Path_100691" data-name="Path 100691" d="M120.536,235.317c5.084,1.032,11.284.316,14.012-4.1,2.6-4.194.881-9.611,1.3-14.526,1.014-11.8,14.321-20.147,14.2-31.986-.266-26.149-40.436-16.7-50.086-2.337C87.342,201.154,98.247,230.788,120.536,235.317Z" transform="translate(-101.473 43.754)" fill="#f0cebb"/>
        <path id="Path_100692" data-name="Path 100692" d="M144.517,220.384c4.863.519,8.852-3.772,11.265-8.023,2.339-4.121,4.08-8.791,3.644-13.508-1.058-11.5-15.45-14.485-20.509-4.122C135.608,201.512,133.978,219.257,144.517,220.384Z" transform="translate(-66.112 60.799)" fill="#fadfa7" style="mix-blend-mode: multiply;isolation: isolate"/>
        <path id="Path_100693" data-name="Path 100693" d="M163.352,179.115c-6.894,0-5.786,10.652,1.041,10.652C171.287,189.767,170.179,179.115,163.352,179.115Z" transform="translate(-47.257 52.962)" fill="#fadfa7"/>
        <path id="Path_100694" data-name="Path 100694" d="M342.938,208c-9.423-2.476-16.708,5.062-23.029,10.7-5.939,5.3-11.284,5.69-18.99,3.978-5.053-1.122-10.366-2.3-15.233.209-7.141,3.687-8.546,11.959-2.943,17.666,6.851,6.978,31.577,8.518,46.128,3.225,16.01-5.825,19.654-12.369,21.7-17.719C353.362,218.754,351.113,210.145,342.938,208Z" transform="translate(54.791 76.989)" fill="#fadfa7" style="mix-blend-mode: multiply;isolation: isolate"/>
        <path id="Path_100695" data-name="Path 100695" d="M127.931,97.468c-17.908,17.417-7.516,46.575,21.729,42.4,16.516-2.359,44.068-23.561,46.767-37.686C202.471,70.538,146.516,78.75,127.931,97.468Z" transform="translate(-80.756 -30.129)" fill="#ffefd6" style="mix-blend-mode: multiply;isolation: isolate"/>
        <path id="Path_100696" data-name="Path 100696" d="M413.564,168.131c-15.694,29.886-47.219,37.806-46.117,52.8,1.5,20.417,44.989,15.249,59.084,9.447,18.506-7.615,30.755-23.35,29.686-44.422C455.106,164.014,429.258,138.245,413.564,168.131Z" transform="translate(129.354 32.207)" fill="#c4daeb" style="mix-blend-mode: multiply;isolation: isolate"/>
      </g>
    </g>
  </g>
</svg>
